<?xml version="1.0" encoding="utf-8"?>
<!-- Generator: Adobe Illustrator 15.1.0, SVG Export Plug-In . SVG Version: 6.00 Build 0)  -->
<!DOCTYPE svg PUBLIC "-//W3C//DTD SVG 1.1//EN" "http://www.w3.org/Graphics/SVG/1.1/DTD/svg11.dtd">
<svg version="1.1" id="Шар_1" xmlns="http://www.w3.org/2000/svg" xmlns:xlink="http://www.w3.org/1999/xlink" x="0px" y="0px"
	 width="688.115px" height="336.647px" viewBox="0 0 688.115 336.647" enable-background="new 0 0 688.115 336.647"
	 xml:space="preserve">
<g>
	<g>
		<g>
			<path fill="#ffffff" d="M246.077,320.31c-3.114,0-5.5-1.158-7.158-3.481c-1.66-2.325-2.489-5.907-2.489-10.757
				c0-2.48,0.239-4.571,0.71-6.283c0.473-1.705,1.127-3.1,1.974-4.171c0.837-1.073,1.837-1.842,2.987-2.317
				c1.143-0.474,2.396-0.707,3.749-0.707c1.123,0,2.168,0.147,3.137,0.443c0.975,0.292,1.762,0.655,2.376,1.088l-1.032,2.867
				c-0.614-0.403-1.271-0.738-1.975-0.988c-0.704-0.255-1.51-0.386-2.431-0.386c-2.043,0-3.521,0.854-4.442,2.547
				c-0.918,1.697-1.377,4.334-1.377,7.907c0,3.601,0.487,6.37,1.454,8.306c0.972,1.936,2.553,2.912,4.749,2.912
				c1.045,0,1.894-0.13,2.541-0.39c0.656-0.251,1.288-0.587,1.898-0.99l0.962,2.714c-0.593,0.461-1.362,0.858-2.316,1.192
				C248.437,320.148,247.327,320.31,246.077,320.31z"/>
			<path fill="#ffffff" d="M269.125,309.706c0,1.583-0.139,3.021-0.421,4.312c-0.278,1.289-0.708,2.387-1.279,3.309
				c-0.578,0.92-1.307,1.633-2.181,2.146c-0.883,0.504-1.927,0.767-3.125,0.767c-1.197,0-2.246-0.263-3.139-0.767
				c-0.897-0.514-1.626-1.227-2.203-2.146c-0.573-0.922-1.001-2.02-1.282-3.309c-0.278-1.29-0.424-2.729-0.424-4.312
				c0-1.552,0.146-2.983,0.424-4.287c0.281-1.303,0.709-2.422,1.282-3.35c0.577-0.93,1.306-1.649,2.203-2.165
				c0.893-0.51,1.941-0.766,3.139-0.766c1.198,0,2.242,0.256,3.125,0.766c0.874,0.516,1.603,1.235,2.181,2.165
				c0.571,0.928,1.001,2.047,1.279,3.35C268.986,306.723,269.125,308.154,269.125,309.706z M265.681,309.706
				c0-1.122-0.066-2.151-0.197-3.082c-0.123-0.929-0.327-1.733-0.609-2.408c-0.279-0.678-0.649-1.2-1.109-1.568
				c-0.46-0.372-1.009-0.56-1.646-0.56c-0.663,0-1.221,0.188-1.664,0.56c-0.449,0.368-0.818,0.891-1.108,1.568
				c-0.3,0.675-0.503,1.479-0.632,2.408c-0.13,0.931-0.193,1.96-0.193,3.082c0,1.127,0.063,2.151,0.193,3.084
				c0.129,0.928,0.332,1.731,0.632,2.389c0.29,0.669,0.659,1.183,1.108,1.551c0.443,0.37,1.001,0.56,1.664,0.56
				c0.637,0,1.186-0.189,1.646-0.56c0.46-0.368,0.83-0.882,1.109-1.551c0.282-0.657,0.486-1.461,0.609-2.389
				C265.614,311.857,265.681,310.833,265.681,309.706z"/>
			<path fill="#ffffff" d="M274.909,300.21c0.942-0.279,1.966-0.513,3.057-0.708c1.103-0.193,2.111-0.288,3.03-0.288
				c0.99,0,1.901,0.138,2.715,0.402c0.821,0.271,1.515,0.723,2.092,1.36c0.572,0.642,1.019,1.499,1.335,2.585
				c0.324,1.088,0.479,2.432,0.479,4.04v12.136h-3.294v-11.871c0-1.987-0.253-3.442-0.768-4.363
				c-0.503-0.918-1.463-1.378-2.866-1.378c-0.739,0-1.57,0.129-2.487,0.387v17.226h-3.293V300.21z"/>
			<path fill="#ffffff" d="M294.318,300.21c0.942-0.279,1.965-0.513,3.063-0.708c1.101-0.193,2.109-0.288,3.021-0.288
				c0.998,0,1.905,0.138,2.721,0.402c0.815,0.271,1.515,0.723,2.088,1.36c0.573,0.642,1.018,1.499,1.337,2.585
				c0.322,1.088,0.48,2.432,0.48,4.04v12.136h-3.293v-11.871c0-1.987-0.253-3.442-0.767-4.363c-0.509-0.918-1.469-1.378-2.871-1.378
				c-0.739,0-1.568,0.129-2.488,0.387v17.226h-3.291V300.21z"/>
			<path fill="#ffffff" d="M315.99,310.663c0.022,0.971,0.114,1.858,0.266,2.661c0.153,0.805,0.401,1.503,0.743,2.11
				c0.347,0.592,0.809,1.062,1.379,1.394c0.578,0.331,1.311,0.498,2.201,0.498c0.74,0,1.426-0.109,2.05-0.324
				c0.628-0.217,1.08-0.407,1.359-0.557l0.614,2.639c-0.334,0.234-0.884,0.483-1.67,0.748c-0.776,0.272-1.699,0.407-2.771,0.407
				c-1.404,0-2.584-0.263-3.538-0.767c-0.964-0.514-1.743-1.227-2.339-2.146c-0.603-0.922-1.027-2.018-1.285-3.292
				c-0.255-1.28-0.38-2.682-0.38-4.21c0-3.707,0.612-6.414,1.836-8.121c1.228-1.707,2.846-2.564,4.861-2.564
				c2.271,0,3.876,0.857,4.821,2.564c0.947,1.707,1.416,4.112,1.416,7.2c0,0.28,0,0.569,0,0.862c0,0.292-0.008,0.589-0.033,0.897
				H315.99z M319.317,301.933c-1.1,0-1.896,0.553-2.39,1.65c-0.502,1.097-0.804,2.563-0.901,4.4h6.084
				c0-1.866-0.185-3.334-0.571-4.422C321.156,302.476,320.42,301.933,319.317,301.933z"/>
			<path fill="#ffffff" d="M337.504,320.239c-1.377,0-2.528-0.272-3.445-0.811c-0.918-0.534-1.665-1.266-2.243-2.199
				c-0.573-0.931-0.986-2.031-1.225-3.313c-0.242-1.275-0.363-2.667-0.363-4.176c0-3.317,0.602-5.915,1.821-7.787
				c1.209-1.878,3.038-2.815,5.491-2.815c0.74,0,1.404,0.089,1.992,0.271c0.588,0.179,1.137,0.405,1.645,0.686l-0.842,2.723
				c-0.793-0.517-1.673-0.766-2.64-0.766c-1.381,0-2.392,0.622-3.046,1.872c-0.651,1.252-0.976,3.194-0.976,5.817
				c0,1.102,0.062,2.116,0.193,3.049c0.125,0.928,0.345,1.731,0.668,2.389c0.319,0.669,0.741,1.191,1.265,1.568
				c0.523,0.389,1.19,0.579,2.009,0.579c0.562,0,1.067-0.072,1.511-0.21c0.447-0.143,0.878-0.328,1.285-0.556l0.727,2.563
				c-0.41,0.287-0.951,0.537-1.627,0.768C339.026,320.12,338.294,320.239,337.504,320.239z"/>
			<path fill="#ffffff" d="M348.91,299.633h5.055v2.84h-5.055v11.065c0,1.376,0.252,2.341,0.747,2.888
				c0.496,0.548,1.168,0.822,2.012,0.822c0.433,0,0.847-0.063,1.246-0.191c0.398-0.131,0.729-0.278,1.008-0.462l0.654,2.644
				c-1.044,0.613-2.159,0.919-3.331,0.919c-1.888,0-3.301-0.527-4.229-1.589c-0.934-1.057-1.397-2.813-1.397-5.266v-19.061
				l3.291-0.576V299.633z"/>
			<path fill="#ffffff" d="M360.741,296.078c-0.588,0-1.089-0.198-1.513-0.59c-0.419-0.398-0.628-0.93-0.628-1.593
				c0-0.662,0.209-1.193,0.628-1.591c0.424-0.397,0.925-0.592,1.513-0.592c0.587,0,1.091,0.194,1.513,0.592
				c0.426,0.397,0.632,0.929,0.632,1.591c0,0.663-0.206,1.194-0.632,1.593C361.832,295.88,361.328,296.078,360.741,296.078z
				 M362.39,319.737h-3.289v-20.104h3.289V319.737z"/>
			<path fill="#ffffff" d="M369.317,300.21c0.945-0.279,1.964-0.513,3.063-0.708c1.097-0.193,2.105-0.288,3.023-0.288
				c0.997,0,1.899,0.138,2.721,0.402c0.812,0.271,1.509,0.723,2.082,1.36c0.575,0.642,1.02,1.499,1.344,2.585
				c0.314,1.088,0.479,2.432,0.479,4.04v12.136h-3.293v-11.871c0-1.987-0.257-3.442-0.767-4.363
				c-0.512-0.918-1.469-1.378-2.875-1.378c-0.741,0-1.567,0.129-2.488,0.387v17.226h-3.289V300.21z"/>
			<path fill="#ffffff" d="M400.677,319.165c0,1.422-0.191,2.632-0.56,3.616c-0.371,0.982-0.873,1.779-1.511,2.392
				c-0.64,0.608-1.385,1.062-2.24,1.342c-0.855,0.278-1.77,0.423-2.737,0.423c-0.815,0-1.638-0.091-2.446-0.27
				c-0.821-0.181-1.572-0.45-2.265-0.805l0.692-2.758c0.455,0.256,1.021,0.486,1.684,0.689c0.662,0.203,1.353,0.308,2.068,0.308
				c1.245,0,2.229-0.355,2.951-1.069c0.709-0.716,1.066-1.943,1.066-3.68v-0.956c-0.41,0.179-0.845,0.325-1.304,0.441
				c-0.458,0.114-0.983,0.174-1.568,0.174c-2.398,0-4.155-0.825-5.265-2.472s-1.664-3.975-1.664-6.986
				c0-1.604,0.151-3.06,0.441-4.348c0.292-1.289,0.756-2.384,1.375-3.292c0.627-0.906,1.438-1.594,2.436-2.065
				c0.99-0.478,2.209-0.711,3.634-0.711c0.944,0,1.869,0.099,2.776,0.289c0.906,0.188,1.718,0.441,2.436,0.747V319.165z
				 M397.38,302.319c-0.357-0.106-0.698-0.171-1.031-0.213c-0.334-0.037-0.642-0.055-0.921-0.055c-1.533,0-2.65,0.586-3.349,1.759
				c-0.701,1.175-1.049,3.092-1.049,5.744c0,2.397,0.339,4.091,1.027,5.074c0.691,0.982,1.677,1.472,2.944,1.472
				c0.438,0,0.85-0.052,1.246-0.154c0.398-0.099,0.774-0.243,1.132-0.419V302.319z"/>
			<path fill="#ffffff" d="M419.514,317.359c1.377,0,2.442-0.377,3.191-1.142c0.753-0.77,1.135-1.807,1.135-3.104
				c0-0.688-0.116-1.304-0.345-1.837c-0.233-0.535-0.531-1.021-0.901-1.452c-0.371-0.433-0.802-0.83-1.286-1.189
				c-0.484-0.357-0.981-0.715-1.489-1.075c-0.584-0.404-1.201-0.837-1.84-1.299c-0.64-0.459-1.216-0.993-1.738-1.609
				c-0.526-0.613-0.956-1.323-1.287-2.14c-0.33-0.821-0.498-1.778-0.498-2.879c0-1.065,0.188-2.037,0.555-2.902
				c0.372-0.87,0.884-1.612,1.536-2.227c0.649-0.608,1.424-1.084,2.334-1.416c0.903-0.328,1.881-0.495,2.925-0.495
				c1.025,0,1.968,0.126,2.838,0.382c0.862,0.259,1.596,0.566,2.183,0.921l-1.074,2.717c-0.536-0.359-1.118-0.629-1.74-0.821
				c-0.631-0.197-1.283-0.285-1.978-0.285c-1.249,0-2.25,0.332-3.003,1.01c-0.754,0.678-1.129,1.666-1.129,2.966
				c0,0.723,0.123,1.343,0.365,1.881c0.245,0.536,0.559,1.021,0.956,1.455c0.399,0.432,0.854,0.829,1.381,1.186
				c0.523,0.354,1.077,0.725,1.663,1.109c0.584,0.385,1.185,0.806,1.799,1.269c0.612,0.454,1.169,0.979,1.671,1.586
				c0.493,0.6,0.898,1.297,1.225,2.103c0.315,0.804,0.476,1.756,0.476,2.856c0,0.991-0.152,1.938-0.463,2.829
				c-0.301,0.894-0.778,1.679-1.434,2.356c-0.65,0.675-1.469,1.213-2.447,1.609c-0.985,0.39-2.139,0.589-3.469,0.589
				c-1.223,0-2.295-0.14-3.216-0.419c-0.919-0.285-1.736-0.652-2.452-1.114l1.075-2.75c0.66,0.406,1.343,0.731,2.048,0.976
				C417.777,317.246,418.588,317.359,419.514,317.359z"/>
			<path fill="#ffffff" d="M438.386,320.239c-1.383,0-2.527-0.272-3.445-0.811c-0.92-0.534-1.669-1.266-2.239-2.199
				c-0.575-0.931-0.985-2.031-1.226-3.313c-0.242-1.275-0.37-2.667-0.37-4.176c0-3.317,0.61-5.915,1.822-7.787
				c1.214-1.878,3.044-2.815,5.492-2.815c0.74,0,1.407,0.089,1.993,0.271c0.585,0.179,1.137,0.405,1.65,0.686l-0.85,2.723
				c-0.787-0.517-1.668-0.766-2.642-0.766c-1.373,0-2.389,0.622-3.037,1.872c-0.654,1.252-0.979,3.194-0.979,5.817
				c0,1.102,0.062,2.116,0.193,3.049c0.125,0.928,0.348,1.731,0.666,2.389c0.316,0.669,0.743,1.191,1.262,1.568
				c0.525,0.389,1.197,0.579,2.012,0.579c0.562,0,1.062-0.072,1.516-0.21c0.439-0.143,0.872-0.328,1.278-0.556l0.732,2.563
				c-0.415,0.287-0.955,0.537-1.63,0.768C439.905,320.12,439.177,320.239,438.386,320.239z"/>
			<path fill="#ffffff" d="M448.376,296.078c-0.588,0-1.092-0.198-1.516-0.59c-0.411-0.398-0.625-0.93-0.625-1.593
				c0-0.662,0.214-1.193,0.625-1.591c0.424-0.397,0.928-0.592,1.516-0.592c0.585,0,1.091,0.194,1.512,0.592
				c0.424,0.397,0.631,0.929,0.631,1.591c0,0.663-0.207,1.194-0.631,1.593C449.467,295.88,448.961,296.078,448.376,296.078z
				 M450.025,319.737h-3.291v-20.104h3.291V319.737z"/>
			<path fill="#ffffff" d="M459.212,310.663c0.025,0.971,0.114,1.858,0.265,2.661c0.155,0.805,0.401,1.503,0.747,2.11
				c0.346,0.592,0.806,1.062,1.38,1.394c0.577,0.331,1.307,0.498,2.198,0.498c0.738,0,1.424-0.109,2.052-0.324
				c0.626-0.217,1.078-0.407,1.357-0.557l0.612,2.639c-0.334,0.234-0.883,0.483-1.669,0.748c-0.774,0.272-1.698,0.407-2.772,0.407
				c-1.401,0-2.583-0.263-3.536-0.767c-0.962-0.514-1.744-1.227-2.337-2.146c-0.604-0.922-1.027-2.018-1.284-3.292
				c-0.26-1.28-0.386-2.682-0.386-4.21c0-3.707,0.616-6.414,1.842-8.121s2.842-2.564,4.857-2.564c2.272,0,3.88,0.857,4.822,2.564
				c0.951,1.707,1.418,4.112,1.418,7.2c0,0.28,0,0.569,0,0.862c0,0.292-0.009,0.589-0.033,0.897H459.212z M462.538,301.933
				c-1.098,0-1.89,0.553-2.39,1.65c-0.499,1.097-0.8,2.563-0.899,4.4h6.083c0-1.866-0.187-3.334-0.567-4.422
				C464.379,302.476,463.639,301.933,462.538,301.933z"/>
			<path fill="#ffffff" d="M474.604,300.21c0.943-0.279,1.966-0.513,3.058-0.708c1.099-0.193,2.108-0.288,3.029-0.288
				c0.996,0,1.903,0.138,2.718,0.402c0.816,0.271,1.511,0.723,2.085,1.36c0.576,0.642,1.021,1.499,1.339,2.585
				c0.324,1.088,0.479,2.432,0.479,4.04v12.136h-3.296v-11.871c0-1.987-0.249-3.442-0.765-4.363
				c-0.505-0.918-1.464-1.378-2.866-1.378c-0.738,0-1.569,0.129-2.488,0.387v17.226h-3.293V300.21z"/>
			<path fill="#ffffff" d="M500.143,320.239c-1.384,0-2.535-0.272-3.451-0.811c-0.916-0.534-1.666-1.266-2.236-2.199
				c-0.579-0.931-0.984-2.031-1.228-3.313c-0.241-1.275-0.364-2.667-0.364-4.176c0-3.317,0.607-5.915,1.816-7.787
				c1.212-1.878,3.05-2.815,5.496-2.815c0.739,0,1.404,0.089,1.994,0.271c0.583,0.179,1.135,0.405,1.646,0.686l-0.848,2.723
				c-0.79-0.517-1.669-0.766-2.638-0.766c-1.38,0-2.398,0.622-3.044,1.872c-0.651,1.252-0.978,3.194-0.978,5.817
				c0,1.102,0.062,2.116,0.191,3.049c0.125,0.928,0.354,1.731,0.664,2.389c0.322,0.669,0.749,1.191,1.268,1.568
				c0.526,0.389,1.192,0.579,2.013,0.579c0.558,0,1.066-0.072,1.512-0.21c0.448-0.143,0.876-0.328,1.278-0.556l0.73,2.563
				c-0.408,0.287-0.947,0.537-1.625,0.768C501.663,320.12,500.929,320.239,500.143,320.239z"/>
			<path fill="#ffffff" d="M510.736,310.663c0.031,0.971,0.12,1.858,0.274,2.661c0.152,0.805,0.4,1.503,0.744,2.11
				c0.346,0.592,0.807,1.062,1.376,1.394c0.578,0.331,1.312,0.498,2.2,0.498c0.742,0,1.424-0.109,2.052-0.324
				c0.623-0.217,1.081-0.407,1.359-0.557l0.611,2.639c-0.336,0.234-0.889,0.483-1.662,0.748c-0.781,0.272-1.704,0.407-2.78,0.407
				c-1.397,0-2.582-0.263-3.536-0.767c-0.959-0.514-1.739-1.227-2.337-2.146c-0.602-0.922-1.027-2.018-1.285-3.292
				c-0.255-1.28-0.38-2.682-0.38-4.21c0-3.707,0.612-6.414,1.835-8.121c1.225-1.707,2.847-2.564,4.864-2.564
				c2.271,0,3.882,0.857,4.823,2.564c0.945,1.707,1.415,4.112,1.415,7.2c0,0.28,0,0.569,0,0.862c0,0.292-0.008,0.589-0.036,0.897
				H510.736z M514.072,301.933c-1.097,0-1.896,0.553-2.397,1.65c-0.495,1.097-0.795,2.563-0.896,4.4h6.087
				c0-1.866-0.192-3.334-0.574-4.422C515.911,302.476,515.171,301.933,514.072,301.933z"/>
			<path fill="#ffffff" d="M550.06,306.226c-0.133,1.605-0.366,3.094-0.73,4.454c-0.354,1.371-0.814,2.597-1.374,3.697
				c0.587,0.865,1.127,1.766,1.605,2.699c0.486,0.934,0.894,1.818,1.226,2.661h-3.332c-0.329-0.815-0.768-1.709-1.305-2.681
				c-0.815,0.972-1.721,1.72-2.712,2.244c-0.993,0.524-2.004,0.782-3.024,0.782c-1.277,0-2.37-0.205-3.275-0.61
				c-0.904-0.41-1.649-0.937-2.22-1.593c-0.572-0.65-0.998-1.384-1.264-2.198c-0.271-0.817-0.399-1.62-0.399-2.414
				c0-0.996,0.117-1.896,0.36-2.698c0.241-0.804,0.563-1.528,0.96-2.16c0.392-0.641,0.852-1.228,1.373-1.769
				c0.524-0.532,1.079-1.025,1.67-1.489c-0.667-0.973-1.246-2-1.746-3.082c-0.495-1.083-0.743-2.264-0.743-3.544
				c0-1.786,0.495-3.22,1.491-4.308c0.998-1.084,2.337-1.625,4.023-1.625c0.914,0,1.709,0.147,2.371,0.443
				c0.662,0.292,1.21,0.691,1.63,1.206c0.415,0.505,0.722,1.098,0.918,1.761c0.189,0.661,0.288,1.365,0.288,2.104
				c0,0.869-0.122,1.654-0.366,2.351c-0.243,0.703-0.563,1.35-0.954,1.938c-0.396,0.585-0.857,1.124-1.379,1.607
				c-0.525,0.483-1.058,0.943-1.594,1.374l4.562,6.433c0.278-0.813,0.519-1.72,0.725-2.718c0.204-0.989,0.358-2.076,0.456-3.254
				L550.06,306.226z M540.527,317.289c0.736,0,1.46-0.213,2.161-0.632c0.703-0.421,1.344-1.053,1.936-1.899l-5.44-7.465
				c-0.763,0.69-1.39,1.486-1.873,2.379c-0.488,0.893-0.729,2.001-0.729,3.328c0,1.223,0.337,2.242,0.996,3.063
				C538.243,316.879,539.224,317.289,540.527,317.289z M538.114,298.488c0,0.867,0.184,1.676,0.555,2.431s0.823,1.511,1.363,2.277
				c0.787-0.659,1.459-1.389,2.006-2.183c0.547-0.79,0.821-1.76,0.821-2.906c0-0.969-0.211-1.701-0.629-2.184
				c-0.421-0.481-0.979-0.727-1.663-0.727c-0.824,0-1.432,0.291-1.839,0.858C538.316,296.633,538.114,297.445,538.114,298.488z"/>
			<path fill="#ffffff" d="M563.729,293.589c0.89-0.204,1.804-0.366,2.737-0.478c0.932-0.117,1.854-0.178,2.773-0.178
				c1.151,0,2.24,0.11,3.271,0.325c1.038,0.222,1.95,0.592,2.737,1.116c0.797,0.521,1.426,1.209,1.898,2.065
				c0.472,0.857,0.712,1.924,0.712,3.192c0,1.589-0.335,2.883-0.995,3.887c-0.668,1.012-1.523,1.761-2.57,2.248
				c1.302,0.503,2.376,1.29,3.217,2.335c0.841,1.048,1.266,2.487,1.266,4.322c0,1.374-0.227,2.539-0.674,3.484
				c-0.444,0.951-1.074,1.714-1.891,2.318c-0.822,0.594-1.798,1.033-2.934,1.296c-1.132,0.272-2.378,0.409-3.731,0.409
				c-0.893,0-1.824-0.055-2.794-0.155c-0.97-0.103-1.98-0.255-3.023-0.459V293.589z M567.174,304.499h2.372
				c3.164,0,4.747-1.43,4.747-4.289c0-0.893-0.135-1.625-0.399-2.197c-0.268-0.577-0.621-1.021-1.056-1.346
				c-0.433-0.314-0.937-0.538-1.511-0.664c-0.573-0.128-1.182-0.191-1.815-0.191c-0.384,0-0.777,0.011-1.172,0.035
				c-0.395,0.028-0.783,0.067-1.166,0.119V304.499z M567.174,307.253v9.575c0.484,0.071,0.962,0.143,1.435,0.191
				c0.474,0.053,0.938,0.075,1.396,0.075c0.715,0,1.395-0.075,2.03-0.229c0.638-0.153,1.193-0.405,1.667-0.766
				c0.47-0.359,0.838-0.85,1.108-1.472c0.268-0.631,0.401-1.396,0.401-2.317c0-1.585-0.427-2.822-1.286-3.715
				c-0.849-0.892-2.185-1.344-3.995-1.344H567.174z"/>
			<path fill="#ffffff" d="M596.845,319.165c-0.329,0.128-0.735,0.249-1.202,0.358c-0.476,0.119-0.97,0.223-1.494,0.309
				c-0.524,0.089-1.051,0.167-1.571,0.232c-0.522,0.063-1.004,0.093-1.437,0.093c-1.044,0-2.005-0.118-2.87-0.361
				c-0.867-0.243-1.608-0.673-2.221-1.28c-0.61-0.614-1.083-1.452-1.419-2.511c-0.327-1.058-0.494-2.396-0.494-3.997v-12.375h3.291
				v12.258c0,1.965,0.302,3.35,0.9,4.155c0.602,0.803,1.513,1.202,2.733,1.202c0.408,0,0.82-0.019,1.23-0.056
				c0.404-0.038,0.829-0.12,1.262-0.25v-17.31h3.291V319.165z"/>
			<path fill="#ffffff" d="M606.528,317.4c0.97,0,1.705-0.275,2.205-0.825c0.496-0.549,0.744-1.267,0.744-2.164
				c0-0.556-0.102-1.035-0.307-1.433c-0.203-0.395-0.474-0.748-0.804-1.055c-0.333-0.306-0.715-0.574-1.148-0.82
				c-0.432-0.243-0.867-0.504-1.303-0.787c-0.432-0.248-0.854-0.551-1.263-0.898c-0.406-0.345-0.771-0.739-1.09-1.185
				c-0.321-0.448-0.574-0.958-0.77-1.53c-0.186-0.577-0.281-1.245-0.281-2.011c0-1.658,0.511-3.002,1.551-4.019
				c1.03-1.02,2.43-1.535,4.186-1.535c0.746,0,1.446,0.099,2.111,0.289c0.663,0.188,1.205,0.4,1.643,0.631l-0.727,2.641
				c-0.461-0.253-0.916-0.445-1.373-0.574c-0.461-0.128-0.963-0.192-1.5-0.192c-0.815,0-1.464,0.235-1.948,0.715
				c-0.484,0.467-0.728,1.152-0.728,2.045c0,0.511,0.089,0.946,0.265,1.317c0.181,0.371,0.414,0.702,0.712,1.004
				c0.294,0.285,0.622,0.565,0.993,0.817c0.368,0.251,0.759,0.495,1.167,0.731c0.488,0.277,0.964,0.588,1.438,0.916
				c0.468,0.331,0.893,0.723,1.26,1.168c0.372,0.448,0.673,0.972,0.904,1.565c0.231,0.605,0.342,1.326,0.342,2.165
				c0,1.759-0.518,3.177-1.549,4.246c-1.033,1.072-2.552,1.616-4.538,1.616c-1.023,0-1.942-0.145-2.76-0.424
				c-0.814-0.279-1.432-0.538-1.833-0.767l0.688-2.719c0.378,0.203,0.898,0.438,1.55,0.689
				C605.018,317.27,605.738,317.4,606.528,317.4z"/>
			<path fill="#ffffff" d="M619.396,296.078c-0.592,0-1.091-0.198-1.519-0.59c-0.412-0.398-0.628-0.93-0.628-1.593
				c0-0.662,0.216-1.193,0.628-1.591c0.428-0.397,0.927-0.592,1.519-0.592c0.588,0,1.089,0.194,1.512,0.592
				c0.418,0.397,0.631,0.929,0.631,1.591c0,0.663-0.213,1.194-0.631,1.593C620.484,295.88,619.983,296.078,619.396,296.078z
				 M621.042,319.737h-3.296v-20.104h3.296V319.737z"/>
			<path fill="#ffffff" d="M627.967,300.21c0.948-0.279,1.965-0.513,3.065-0.708c1.094-0.193,2.105-0.288,3.024-0.288
				c0.993,0,1.897,0.138,2.718,0.402c0.817,0.271,1.512,0.723,2.083,1.36c0.58,0.642,1.024,1.499,1.344,2.585
				c0.318,1.088,0.48,2.432,0.48,4.04v12.136h-3.297v-11.871c0-1.987-0.254-3.442-0.764-4.363c-0.514-0.918-1.466-1.378-2.873-1.378
				c-0.741,0-1.566,0.129-2.484,0.387v17.226h-3.297V300.21z"/>
			<path fill="#ffffff" d="M649.636,310.663c0.029,0.971,0.12,1.858,0.274,2.661c0.152,0.805,0.4,1.503,0.744,2.11
				c0.346,0.592,0.805,1.062,1.38,1.394c0.575,0.331,1.306,0.498,2.198,0.498c0.743,0,1.424-0.109,2.048-0.324
				c0.624-0.217,1.081-0.407,1.361-0.557l0.609,2.639c-0.33,0.234-0.887,0.483-1.66,0.748c-0.78,0.272-1.704,0.407-2.778,0.407
				c-1.401,0-2.581-0.263-3.54-0.767c-0.959-0.514-1.737-1.227-2.336-2.146c-0.603-0.922-1.027-2.018-1.279-3.292
				c-0.258-1.28-0.385-2.682-0.385-4.21c0-3.707,0.611-6.414,1.835-8.121c1.223-1.707,2.845-2.564,4.863-2.564
				c2.272,0,3.883,0.857,4.823,2.564c0.945,1.707,1.416,4.112,1.416,7.2c0,0.28,0,0.569,0,0.862c0,0.292-0.008,0.589-0.037,0.897
				H649.636z M652.971,301.933c-1.097,0-1.894,0.553-2.396,1.65c-0.492,1.097-0.796,2.563-0.893,4.4h6.083
				c0-1.866-0.193-3.334-0.573-4.422C654.808,302.476,654.068,301.933,652.971,301.933z"/>
			<path fill="#ffffff" d="M667.825,317.4c0.968,0,1.702-0.275,2.203-0.825c0.496-0.549,0.746-1.267,0.746-2.164
				c0-0.556-0.1-1.035-0.307-1.433c-0.207-0.395-0.476-0.748-0.805-1.055c-0.336-0.306-0.717-0.574-1.146-0.82
				c-0.433-0.243-0.867-0.504-1.305-0.787c-0.433-0.248-0.854-0.551-1.262-0.898c-0.406-0.345-0.771-0.739-1.094-1.185
				c-0.319-0.448-0.571-0.958-0.764-1.53c-0.191-0.577-0.284-1.245-0.284-2.011c0-1.658,0.515-3.002,1.55-4.019
				c1.034-1.02,2.431-1.535,4.188-1.535c0.744,0,1.444,0.099,2.11,0.289c0.664,0.188,1.209,0.4,1.646,0.631l-0.729,2.641
				c-0.462-0.253-0.917-0.445-1.378-0.574c-0.46-0.128-0.959-0.192-1.496-0.192c-0.814,0-1.466,0.235-1.957,0.715
				c-0.477,0.467-0.723,1.152-0.723,2.045c0,0.511,0.093,0.946,0.268,1.317c0.18,0.371,0.415,0.702,0.711,1.004
				c0.294,0.285,0.619,0.565,0.996,0.817c0.366,0.251,0.758,0.495,1.168,0.731c0.485,0.277,0.961,0.588,1.436,0.916
				c0.47,0.331,0.892,0.723,1.261,1.168c0.372,0.448,0.675,0.972,0.903,1.565c0.227,0.605,0.347,1.326,0.347,2.165
				c0,1.759-0.522,3.177-1.557,4.246c-1.029,1.072-2.544,1.616-4.534,1.616c-1.022,0-1.944-0.145-2.76-0.424
				c-0.817-0.279-1.43-0.538-1.834-0.767l0.688-2.719c0.381,0.203,0.899,0.438,1.553,0.689
				C666.313,317.27,667.038,317.4,667.825,317.4z"/>
			<path fill="#ffffff" d="M681.839,317.4c0.966,0,1.705-0.275,2.204-0.825c0.495-0.549,0.743-1.267,0.743-2.164
				c0-0.556-0.098-1.035-0.308-1.433c-0.203-0.395-0.472-0.748-0.805-1.055c-0.329-0.306-0.716-0.574-1.149-0.82
				c-0.431-0.243-0.863-0.504-1.302-0.787c-0.433-0.248-0.852-0.551-1.261-0.898c-0.405-0.345-0.771-0.739-1.087-1.185
				c-0.324-0.448-0.576-0.958-0.77-1.53c-0.193-0.577-0.287-1.245-0.287-2.011c0-1.658,0.516-3.002,1.554-4.019
				c1.03-1.02,2.426-1.535,4.188-1.535c0.745,0,1.44,0.099,2.11,0.289c0.661,0.188,1.208,0.4,1.646,0.631l-0.731,2.641
				c-0.461-0.253-0.915-0.445-1.375-0.574c-0.462-0.128-0.96-0.192-1.497-0.192c-0.815,0-1.464,0.235-1.955,0.715
				c-0.48,0.467-0.723,1.152-0.723,2.045c0,0.511,0.089,0.946,0.264,1.317c0.183,0.371,0.416,0.702,0.714,1.004
				c0.294,0.285,0.623,0.565,0.994,0.817c0.369,0.251,0.759,0.495,1.164,0.731c0.487,0.277,0.967,0.588,1.443,0.916
				c0.465,0.331,0.89,0.723,1.26,1.168c0.368,0.448,0.668,0.972,0.899,1.565c0.229,0.605,0.342,1.326,0.342,2.165
				c0,1.759-0.517,3.177-1.549,4.246c-1.033,1.072-2.548,1.616-4.536,1.616c-1.022,0-1.942-0.145-2.756-0.424
				c-0.815-0.279-1.434-0.538-1.839-0.767l0.692-2.719c0.378,0.203,0.896,0.438,1.55,0.689
				C680.324,317.27,681.047,317.4,681.839,317.4z"/>
		</g>
		<g>
			<path fill="#E57E25" d="M234.325,190.965v-83.712h8.973l20.927,51.757v-51.757h11.958v83.712h-8.506l-21.389-55.679v55.679
				H234.325z"/>
			<path fill="#E57E25" d="M310.197,191.799c-4.201,0-7.811-0.636-10.815-1.908c-3.008-1.278-5.393-3.15-7.171-5.607
				c-1.771-2.462-3.064-5.346-3.875-8.665c-0.808-3.319-1.213-7.174-1.213-11.562v-30.365c0-4.388,0.405-8.214,1.213-11.487
				c0.811-3.273,2.104-6.115,3.875-8.526c1.778-2.414,4.163-4.229,7.171-5.441c3.005-1.218,6.614-1.823,10.815-1.823
				c8.16,0,14.044,2.337,17.654,7.009c3.613,4.67,5.419,11.422,5.419,20.27v30.365c0,4.328-0.414,8.15-1.235,11.466
				c-0.83,3.316-2.128,6.218-3.903,8.688c-1.772,2.479-4.166,4.357-7.169,5.654C317.956,191.152,314.365,191.799,310.197,191.799z
				 M301.485,178.205c1.604,2.53,4.511,3.784,8.712,3.784c4.204,0,7.104-1.254,8.708-3.784c1.602-2.513,2.411-6.235,2.411-11.16
				v-36.339c0-4.86-0.799-8.489-2.382-10.894c-1.593-2.393-4.498-3.593-8.737-3.593c-4.236,0-7.146,1.2-8.737,3.593
				c-1.582,2.404-2.38,6.033-2.38,10.894v36.339C299.08,171.97,299.883,175.692,301.485,178.205z"/>
			<path fill="#E57E25" d="M365.79,191.799c-4.196,0-7.81-0.636-10.81-1.908c-3.007-1.278-5.393-3.15-7.17-5.607
				c-1.772-2.462-3.067-5.346-3.876-8.665s-1.215-7.174-1.215-11.562v-30.365c0-4.388,0.406-8.214,1.215-11.487
				s2.104-6.115,3.876-8.526c1.777-2.414,4.163-4.229,7.17-5.441c3-1.218,6.613-1.823,10.81-1.823c8.166,0,14.05,2.337,17.654,7.009
				c3.613,4.67,5.42,11.422,5.42,20.27v30.365c0,4.328-0.412,8.15-1.24,11.466c-0.817,3.316-2.118,6.218-3.895,8.688
				c-1.775,2.479-4.164,4.357-7.167,5.654C373.55,191.152,369.966,191.799,365.79,191.799z M357.082,178.205
				c1.603,2.53,4.512,3.784,8.708,3.784c4.205,0,7.111-1.254,8.716-3.784c1.6-2.513,2.403-6.235,2.403-11.16v-36.339
				c0-4.86-0.795-8.489-2.388-10.894c-1.584-2.393-4.489-3.593-8.731-3.593c-4.229,0-7.146,1.2-8.732,3.593
				c-1.583,2.404-2.38,6.033-2.38,10.894v36.339C354.678,171.97,355.475,175.692,357.082,178.205z"/>
			<path fill="#E57E25" d="M421.618,191.799c-7.529,0-13.283-2.211-17.255-6.627c-3.966-4.423-6.195-10.467-6.656-18.127
				l11.954-2.988c0.592,11.957,4.585,17.933,11.957,17.933c5.979,0,8.969-2.989,8.969-8.968c0-1.778-0.236-3.417-0.722-4.923
				c-0.481-1.511-1.22-2.903-2.222-4.155c-0.998-1.272-1.896-2.282-2.709-3.04c-0.809-0.769-1.91-1.704-3.316-2.821l-14.942-11.968
				c-2.741-2.146-4.925-4.878-6.559-8.196c-1.636-3.316-2.452-7.087-2.452-11.324c0-6.167,1.916-11.072,5.74-14.715
				c3.835-3.643,8.906-5.466,15.228-5.466c6.789,0,12.18,1.66,16.185,4.979c4.002,3.31,6.468,8.006,7.404,14.086
				c0.098,0.648,0.199,1.549,0.323,2.703l-11.958,2.985c-0.025-0.523-0.106-1.316-0.23-2.382c-0.523-3.8-1.719-6.838-3.571-9.129
				c-1.856-2.291-4.57-3.436-8.152-3.436c-2.869,0-5.072,0.797-6.631,2.407c-1.558,1.606-2.341,3.841-2.341,6.705
				c0,4.703,1.99,8.646,5.979,11.82l14.946,11.957c7.972,6.448,11.958,14.146,11.958,23.121c0,6.136-1.891,10.926-5.672,14.389
				C433.086,190.07,428.001,191.799,421.618,191.799z"/>
			<path fill="#E57E25" d="M451.761,190.965v-83.712h20.928c13.953,0,20.924,7.972,20.924,23.913c0,6.826-1.793,12.019-5.393,15.581
				c-3.601,3.57-8.774,5.349-15.531,5.349h-8.972v38.869H451.761z M463.717,143.13h2.993c2.71,0,4.925-0.151,6.655-0.469
				c1.724-0.305,3.253-0.891,4.581-1.756c1.319-0.857,2.268-2.075,2.848-3.664c0.572-1.584,0.866-3.613,0.866-6.075
				c0-2.985-0.223-5.412-0.657-7.258c-0.435-1.849-1.239-3.372-2.409-4.555c-1.166-1.181-2.679-2.002-4.535-2.456
				c-1.849-0.446-4.298-0.678-7.349-0.678h-2.993V143.13z"/>
			<path fill="#E57E25" d="M500.866,190.965v-83.712h11.958v35.877h20.926v-35.877h11.955v83.712H533.75v-38.869h-20.926v38.869
				H500.866z"/>
			<path fill="#E57E25" d="M558.144,190.965v-83.712h32.881v8.967h-20.928v26.91h14.949v8.966h-14.949v29.894h20.928v8.976H558.144z
				"/>
			<path fill="#E57E25" d="M598.833,190.965v-83.712h14.96c8.903,0,15.612,1.731,20.122,5.181c4.516,3.462,6.773,9.211,6.773,17.235
				c0,4.987-0.889,9.161-2.658,12.523c-1.774,3.366-4.38,5.673-7.801,6.917l13.453,41.855H631.82l-12.052-38.869h-8.981v38.869
				H598.833z M610.787,143.13h3.006c4.972,0,8.714-1.053,11.2-3.155c2.496-2.1,3.737-5.536,3.737-10.306
				c0-4.762-1.241-8.191-3.737-10.298c-2.486-2.101-6.229-3.151-11.2-3.151h-3.006V143.13z"/>
			<path fill="#E57E25" d="M651.077,190.965v-83.712h32.88v8.967h-20.919v26.91h14.94v8.966h-14.94v29.894h20.919v8.976H651.077z"/>
		</g>
		<g>
			<path fill="#ffffff" d="M237.956,257.276v-29.234h17.843v3.496h-13.756v8.694h12.237v3.416h-12.237v10.126h14.81v3.502H237.956z"
				/>
			<path fill="#ffffff" d="M282.504,257.276c-0.619-1.037-1.328-2.208-2.13-3.502c-0.804-1.291-1.669-2.637-2.595-4.028
				c-0.933-1.39-1.894-2.806-2.891-4.238c-0.998-1.436-1.988-2.824-2.973-4.16c-0.987-1.332-1.944-2.594-2.873-3.773
				c-0.927-1.185-1.783-2.221-2.574-3.122v22.824h-4.002v-29.234h3.245c1.32,1.404,2.733,3.04,4.238,4.914
				c1.506,1.87,2.996,3.798,4.473,5.779c1.477,1.982,2.868,3.933,4.173,5.841c1.311,1.913,2.418,3.618,3.315,5.106v-21.641h4.008
				v29.234H282.504z"/>
			<path fill="#ffffff" d="M311.445,242.891h4.089v13.67c-0.337,0.109-0.826,0.237-1.455,0.38c-0.634,0.14-1.361,0.279-2.19,0.419
				c-0.83,0.142-1.743,0.262-2.723,0.36c-0.983,0.096-1.984,0.148-2.996,0.148c-2.055,0-3.923-0.342-5.606-1.011
				c-1.692-0.679-3.14-1.662-4.347-2.955c-1.213-1.292-2.147-2.886-2.809-4.77c-0.665-1.886-0.994-4.051-0.994-6.496
				c0-2.449,0.375-4.62,1.119-6.518c0.745-1.902,1.755-3.494,3.016-4.787c1.27-1.299,2.751-2.28,4.456-2.958
				c1.697-0.671,3.521-1.009,5.466-1.009c1.313,0,2.491,0.079,3.514,0.252c1.026,0.172,1.907,0.371,2.644,0.589
				c0.729,0.227,1.325,0.454,1.788,0.678c0.465,0.226,0.781,0.394,0.952,0.506l-1.308,3.419c-0.818-0.538-1.902-0.979-3.249-1.329
				c-1.35-0.355-2.729-0.525-4.136-0.525c-1.488,0-2.851,0.263-4.072,0.798c-1.221,0.537-2.263,1.307-3.124,2.32
				c-0.856,1.011-1.523,2.249-2.001,3.689c-0.476,1.449-0.717,3.076-0.717,4.875c0,1.746,0.203,3.329,0.615,4.767
				c0.403,1.437,1.022,2.665,1.853,3.694c0.828,1.027,1.856,1.822,3.084,2.379c1.22,0.564,2.66,0.848,4.323,0.848
				c1.18,0,2.187-0.061,3.015-0.189c0.831-0.125,1.427-0.246,1.794-0.36V242.891z"/>
			<path fill="#ffffff" d="M322.374,228.042h4.085v29.234h-4.085V228.042z"/>
			<path fill="#ffffff" d="M354.179,257.276c-0.614-1.037-1.327-2.208-2.132-3.502c-0.801-1.291-1.667-2.637-2.595-4.028
				c-0.928-1.39-1.888-2.806-2.887-4.238c-1.001-1.436-1.994-2.824-2.974-4.16c-0.985-1.332-1.94-2.594-2.867-3.773
				c-0.931-1.185-1.788-2.221-2.582-3.122v22.824h-4.003v-29.234h3.244c1.326,1.404,2.739,3.04,4.243,4.914
				c1.504,1.87,2.997,3.798,4.472,5.779c1.479,1.982,2.873,3.933,4.179,5.841c1.308,1.913,2.412,3.618,3.31,5.106v-21.641h4.007
				v29.234H354.179z"/>
			<path fill="#ffffff" d="M365.278,257.276v-29.234h17.841v3.496h-13.751v8.694H381.6v3.416h-12.231v10.126h14.808v3.502H365.278z"
				/>
			<path fill="#ffffff" d="M389.788,257.276v-29.234h17.845v3.496h-13.755v8.694h12.235v3.416h-12.235v10.126h14.811v3.502H389.788z
				"/>
			<path fill="#ffffff" d="M428.601,245.044c0.448,0.562,1.02,1.302,1.708,2.212c0.692,0.917,1.397,1.93,2.136,3.038
				c0.727,1.11,1.45,2.271,2.168,3.48c0.719,1.209,1.326,2.376,1.833,3.502h-4.467c-0.567-1.066-1.178-2.15-1.836-3.25
				c-0.663-1.097-1.329-2.146-2.009-3.142c-0.675-0.994-1.341-1.935-2-2.808c-0.659-0.869-1.263-1.627-1.795-2.275
				c-0.363,0.028-0.737,0.039-1.116,0.039c-0.38,0-0.768,0-1.16,0h-3.671v11.436h-4.089v-28.812
				c1.148-0.284,2.436-0.473,3.853-0.572c1.424-0.1,2.726-0.147,3.907-0.147c4.106,0,7.231,0.774,9.388,2.319
				c2.149,1.548,3.225,3.854,3.225,6.922c0,1.94-0.513,3.596-1.541,4.977C432.108,243.342,430.597,244.368,428.601,245.044z
				 M422.396,231.332c-1.739,0-3.077,0.042-4.005,0.127v11.008h2.91c1.405,0,2.674-0.073,3.794-0.21
				c1.13-0.141,2.075-0.407,2.852-0.8c0.771-0.396,1.37-0.948,1.798-1.666c0.413-0.721,0.625-1.667,0.625-2.85
				c0-1.097-0.212-2.014-0.625-2.744c-0.428-0.728-0.995-1.306-1.714-1.727c-0.72-0.425-1.563-0.719-2.531-0.887
				C424.53,231.414,423.497,231.332,422.396,231.332z"/>
			<path fill="#ffffff" d="M441.257,228.042h4.088v29.234h-4.088V228.042z"/>
			<path fill="#ffffff" d="M473.069,257.276c-0.625-1.037-1.333-2.208-2.134-3.502c-0.804-1.291-1.669-2.637-2.594-4.028
				c-0.931-1.39-1.894-2.806-2.888-4.238c-1.003-1.436-1.998-2.824-2.979-4.16c-0.987-1.332-1.943-2.594-2.867-3.773
				c-0.928-1.185-1.789-2.221-2.572-3.122v22.824h-4.009v-29.234h3.245c1.321,1.404,2.738,3.04,4.241,4.914
				c1.504,1.87,2.996,3.798,4.476,5.779c1.473,1.982,2.865,3.933,4.172,5.841c1.308,1.913,2.413,3.618,3.317,5.106v-21.641h4.007
				v29.234H473.069z"/>
			<path fill="#ffffff" d="M502.009,242.891h4.09v13.67c-0.34,0.109-0.823,0.237-1.454,0.38c-0.634,0.14-1.366,0.279-2.196,0.419
				c-0.828,0.142-1.737,0.262-2.719,0.36c-0.988,0.096-1.985,0.148-3,0.148c-2.05,0-3.919-0.342-5.606-1.011
				c-1.691-0.679-3.14-1.662-4.346-2.955c-1.208-1.292-2.147-2.886-2.806-4.77c-0.662-1.886-0.992-4.051-0.992-6.496
				c0-2.449,0.369-4.62,1.121-6.518c0.74-1.902,1.747-3.494,3.015-4.787c1.268-1.299,2.745-2.28,4.448-2.958
				c1.7-0.671,3.522-1.009,5.467-1.009c1.319,0,2.49,0.079,3.518,0.252c1.032,0.172,1.908,0.371,2.641,0.589
				c0.73,0.227,1.328,0.454,1.792,0.678c0.465,0.226,0.778,0.394,0.949,0.506l-1.311,3.419c-0.813-0.538-1.895-0.979-3.242-1.329
				c-1.356-0.355-2.736-0.525-4.135-0.525c-1.494,0-2.851,0.263-4.073,0.798c-1.226,0.537-2.267,1.307-3.124,2.32
				c-0.858,1.011-1.522,2.249-2,3.689c-0.479,1.449-0.719,3.076-0.719,4.875c0,1.746,0.201,3.329,0.611,4.767
				c0.407,1.437,1.025,2.665,1.854,3.694c0.831,1.027,1.859,1.822,3.079,2.379c1.225,0.564,2.667,0.848,4.324,0.848
				c1.18,0,2.189-0.061,3.015-0.189c0.831-0.125,1.431-0.246,1.799-0.36V242.891z"/>
			<path fill="#ffffff" d="M529.892,254.368c4.277,0,6.414-1.468,6.414-4.391c0-0.899-0.188-1.665-0.572-2.298
				c-0.377-0.634-0.892-1.182-1.538-1.648c-0.649-0.465-1.39-0.859-2.21-1.2c-0.839-0.34-1.71-0.678-2.638-1.012
				c-1.071-0.369-2.087-0.783-3.042-1.244c-0.954-0.468-1.783-1.015-2.487-1.649c-0.702-0.633-1.257-1.384-1.669-2.251
				c-0.404-0.876-0.609-1.933-0.609-3.168c0-2.56,0.869-4.553,2.615-5.989c1.74-1.434,4.15-2.152,7.216-2.152
				c1.773,0,3.381,0.189,4.828,0.57c1.448,0.376,2.508,0.791,3.188,1.241l-1.311,3.337c-0.59-0.371-1.468-0.725-2.636-1.078
				c-1.169-0.354-2.527-0.527-4.07-0.527c-0.79,0-1.521,0.082-2.199,0.252c-0.672,0.172-1.263,0.424-1.771,0.757
				c-0.503,0.345-0.903,0.77-1.197,1.29c-0.297,0.523-0.447,1.134-0.447,1.836c0,0.79,0.154,1.449,0.467,1.984
				c0.31,0.538,0.741,1.002,1.307,1.408c0.563,0.412,1.218,0.785,1.96,1.121c0.75,0.336,1.57,0.676,2.47,1.015
				c1.267,0.504,2.428,1.012,3.482,1.52c1.053,0.505,1.965,1.107,2.738,1.811c0.777,0.704,1.374,1.542,1.798,2.511
				c0.418,0.97,0.629,2.144,0.629,3.522c0,2.559-0.934,4.53-2.805,5.906c-1.867,1.379-4.505,2.068-7.91,2.068
				c-1.156,0-2.214-0.076-3.183-0.228c-0.97-0.159-1.839-0.344-2.599-0.553c-0.759-0.212-1.411-0.437-1.961-0.674
				c-0.547-0.238-0.979-0.445-1.284-0.614l1.221-3.375c0.649,0.369,1.631,0.778,2.952,1.224
				C526.36,254.14,527.979,254.368,529.892,254.368z"/>
			<path fill="#ffffff" d="M558.533,257.909c-2.05,0-3.924-0.337-5.611-1.016c-1.69-0.675-3.136-1.657-4.341-2.951
				c-1.211-1.295-2.15-2.89-2.807-4.788c-0.665-1.898-0.993-4.072-0.993-6.518c0-2.449,0.37-4.62,1.117-6.518
				c0.743-1.902,1.751-3.494,3.017-4.787c1.268-1.299,2.742-2.28,4.429-2.958c1.689-0.671,3.489-1.009,5.4-1.009
				c1.208,0,2.3,0.079,3.269,0.252c0.976,0.172,1.82,0.371,2.532,0.589c0.718,0.227,1.302,0.454,1.751,0.678
				c0.452,0.226,0.762,0.394,0.928,0.506l-1.18,3.376c-0.253-0.171-0.618-0.352-1.098-0.55c-0.476-0.197-1.021-0.394-1.625-0.59
				c-0.604-0.193-1.26-0.356-1.98-0.482c-0.717-0.127-1.442-0.189-2.173-0.189c-1.546,0-2.94,0.263-4.177,0.798
				c-1.238,0.537-2.293,1.307-3.168,2.32c-0.869,1.011-1.537,2.249-2.002,3.689c-0.465,1.449-0.693,3.076-0.693,4.875
				c0,1.746,0.201,3.329,0.612,4.767c0.405,1.437,1.015,2.665,1.831,3.694c0.814,1.027,1.836,1.822,3.06,2.379
				c1.224,0.564,2.651,0.848,4.284,0.848c1.882,0,3.444-0.195,4.681-0.593c1.239-0.394,2.168-0.747,2.787-1.057l1.055,3.38
				c-0.199,0.139-0.551,0.316-1.055,0.523c-0.508,0.213-1.142,0.414-1.901,0.615c-0.76,0.196-1.645,0.365-2.658,0.504
				C560.812,257.837,559.714,257.909,558.533,257.909z"/>
			<path fill="#ffffff" d="M590.937,228.042h4.091v29.234h-4.091v-13.501h-14.3v13.501h-4.093v-29.234h4.093v12.19h14.3V228.042z"/>
			<path fill="#ffffff" d="M601.527,242.637c0-2.503,0.367-4.715,1.116-6.627c0.743-1.908,1.758-3.505,3.031-4.786
				c1.283-1.28,2.773-2.241,4.473-2.886c1.706-0.648,3.511-0.973,5.427-0.973c1.885,0,3.659,0.324,5.336,0.973
				c1.672,0.645,3.144,1.605,4.407,2.886c1.264,1.281,2.271,2.878,3.015,4.786c0.747,1.912,1.119,4.124,1.119,6.627
				c0,2.501-0.372,4.711-1.119,6.622c-0.744,1.916-1.751,3.51-3.015,4.789c-1.264,1.278-2.735,2.245-4.407,2.893
				c-1.677,0.644-3.451,0.969-5.336,0.969c-1.916,0-3.721-0.325-5.427-0.969c-1.699-0.647-3.189-1.614-4.473-2.893
				c-1.273-1.279-2.288-2.873-3.031-4.789C601.895,247.348,601.527,245.138,601.527,242.637z M605.825,242.637
				c0,1.77,0.23,3.385,0.678,4.832c0.451,1.447,1.091,2.678,1.919,3.691c0.831,1.014,1.84,1.793,3.034,2.34
				c1.197,0.548,2.536,0.824,4.033,0.824c1.49,0,2.82-0.276,4.008-0.824c1.18-0.547,2.184-1.326,3.013-2.34
				c0.828-1.014,1.47-2.244,1.923-3.691c0.451-1.447,0.674-3.063,0.674-4.832c0-1.773-0.223-3.379-0.674-4.828
				c-0.453-1.455-1.095-2.68-1.923-3.693c-0.829-1.017-1.833-1.79-3.013-2.342c-1.188-0.55-2.518-0.819-4.008-0.819
				c-1.497,0-2.836,0.27-4.033,0.819c-1.194,0.552-2.203,1.325-3.034,2.342c-0.828,1.014-1.468,2.238-1.919,3.693
				C606.056,239.258,605.825,240.863,605.825,242.637z"/>
			<path fill="#ffffff" d="M634.77,242.637c0-2.503,0.369-4.715,1.118-6.627c0.744-1.908,1.754-3.505,3.033-4.786
				c1.28-1.28,2.775-2.241,4.471-2.886c1.705-0.648,3.516-0.973,5.426-0.973c1.883,0,3.661,0.324,5.336,0.973
				c1.673,0.645,3.145,1.605,4.408,2.886c1.267,1.281,2.273,2.878,3.016,4.786c0.749,1.912,1.116,4.124,1.116,6.627
				c0,2.501-0.367,4.711-1.116,6.622c-0.742,1.916-1.749,3.51-3.016,4.789c-1.264,1.278-2.735,2.245-4.408,2.893
				c-1.675,0.644-3.453,0.969-5.336,0.969c-1.91,0-3.721-0.325-5.426-0.969c-1.695-0.647-3.19-1.614-4.471-2.893
				c-1.279-1.279-2.289-2.873-3.033-4.789C635.139,247.348,634.77,245.138,634.77,242.637z M639.069,242.637
				c0,1.77,0.228,3.385,0.676,4.832c0.454,1.447,1.093,2.678,1.924,3.691c0.829,1.014,1.837,1.793,3.033,2.34
				c1.196,0.548,2.539,0.824,4.028,0.824c1.493,0,2.829-0.276,4.01-0.824c1.181-0.547,2.185-1.326,3.017-2.34
				c0.83-1.014,1.466-2.244,1.921-3.691c0.447-1.447,0.674-3.063,0.674-4.832c0-1.773-0.227-3.379-0.674-4.828
				c-0.455-1.455-1.091-2.68-1.921-3.693c-0.832-1.017-1.836-1.79-3.017-2.342c-1.181-0.55-2.517-0.819-4.01-0.819
				c-1.489,0-2.832,0.27-4.028,0.819c-1.196,0.552-2.204,1.325-3.033,2.342c-0.831,1.014-1.47,2.238-1.924,3.693
				C639.297,239.258,639.069,240.863,639.069,242.637z"/>
			<path fill="#ffffff" d="M686.786,253.731v3.545h-17.59v-29.234h4.09v25.689H686.786z"/>
		</g>
	</g>
	<path fill="#E57E25" d="M188.365,0c-19.105,0-34.59,15.489-34.59,34.587c0,19.099,15.484,34.569,34.59,34.569
		c19.089,0,34.572-15.471,34.572-34.569C222.938,15.489,207.454,0,188.365,0z M213.326,13.507c0.216,0.214,0.433,0.454,0.631,0.68
		c-0.183-0.162-0.37-0.321-0.567-0.479c-0.038-0.076-0.1-0.162-0.137-0.243C213.279,13.479,213.307,13.492,213.326,13.507z
		 M211.946,12.202c0.432,0.421,0.848,0.836,1.243,1.254c-0.479-0.456-0.991-0.897-1.543-1.346
		C211.755,12.144,211.855,12.177,211.946,12.202z M206.444,9.993c0.855,0.259,1.652,0.541,2.398,0.844
		c0.027,0.041,0.064,0.086,0.091,0.126c-0.424-0.152-0.876-0.288-1.333-0.422c-0.191,0.053-0.362,0.106-0.563,0.17
		c0.074,0.126,0.139,0.262,0.2,0.392c0.216,0.167,0.433,0.301,0.642,0.457c-0.549-0.312-1.11-0.616-1.668-0.923
		C206.29,10.422,206.373,10.205,206.444,9.993z M206.335,11.261c-0.107,0-0.215-0.01-0.321,0.006
		c-0.012-0.077-0.012-0.168-0.038-0.24C206.094,11.099,206.228,11.189,206.335,11.261z M205.507,8.484
		c0.063,0.076,0.153,0.143,0.208,0.214c-0.296-0.13-0.594-0.25-0.899-0.376C205.046,8.377,205.281,8.432,205.507,8.484z
		 M196.634,5.904c0.643,0.172,1.263,0.347,1.896,0.546c-0.255-0.034-0.515-0.034-0.777-0.059c-0.447-0.136-0.927-0.28-1.396-0.397
		c0.604,0.221,1.189,0.478,1.787,0.74c-0.364-0.059-0.731-0.108-1.093-0.166c0.072-0.017,0.146-0.041,0.206-0.06
		c-0.153-0.073-0.296-0.144-0.44-0.226c-0.271,0.072-0.542,0.167-0.812,0.261c-0.298-0.115-0.595-0.241-0.892-0.364
		c-0.027-0.031-0.064-0.068-0.091-0.104c0.135,0,0.26,0.009,0.378,0.009c-0.314-0.087-0.641-0.172-0.945-0.259
		c-0.073-0.075-0.144-0.146-0.201-0.233C195.048,5.685,195.85,5.787,196.634,5.904z M188.765,11.603
		c-0.262,0.163-0.515,0.329-0.746,0.497c0.169,0.034,0.347,0.077,0.538,0.121c0.161,0.222,0.342,0.432,0.512,0.661
		c0.038,0.236,0.075,0.49,0.083,0.731c0.27,0.091,0.532,0.189,0.793,0.289c-0.225,0.144-0.442,0.284-0.658,0.438
		c0.135,0.04,0.262,0.067,0.397,0.098c-0.1,0.051-0.182,0.114-0.288,0.168c-1.03,0.036-2.067,0.063-3.103,0.127
		c0.504-0.216,1.027-0.426,1.532-0.621c-0.379-0.065-0.749-0.136-1.118-0.191c0.183-0.045,0.354-0.108,0.524-0.162
		c-0.019-0.167-0.027-0.341-0.027-0.514c0.205,0.026,0.431,0.037,0.651,0.045c0.069-0.127,0.177-0.251,0.251-0.378
		c-0.131-0.06-0.251-0.101-0.382-0.153c0.064-0.063,0.119-0.123,0.182-0.172c-0.224,0.018-0.46,0.053-0.702,0.075
		c0.055-0.119,0.09-0.25,0.153-0.382c-0.198-0.044-0.406-0.103-0.595-0.163c0.127-0.203,0.271-0.388,0.404-0.577
		c-0.145-0.031-0.289-0.085-0.441-0.12c0.288-0.132,0.558-0.253,0.836-0.393c0.264,0.009,0.523,0.025,0.77,0.036
		c-0.174,0.127-0.355,0.225-0.523,0.341C188.13,11.477,188.438,11.539,188.765,11.603z M181.821,8.682
		c-0.163,0.008-0.338,0.005-0.499,0.008c0.272-0.081,0.553-0.144,0.813-0.233c-0.253,0-0.513,0.01-0.766,0.004
		c0.226-0.111,0.462-0.211,0.686-0.314c0.136,0.046,0.279,0.086,0.435,0.122c-0.039,0.058-0.092,0.117-0.109,0.181
		c0.664-0.126,1.361-0.254,2.056-0.361c0.243,0.117,0.488,0.216,0.741,0.328c-0.166,0.104-0.319,0.229-0.47,0.339
		c-0.589,0.112-1.173,0.209-1.758,0.334c-0.46-0.036-0.929-0.1-1.381-0.118c0.107-0.055,0.242-0.075,0.353-0.133
		C181.892,8.782,181.849,8.735,181.821,8.682z M185.141,13.208c-0.119-0.054-0.235-0.108-0.365-0.17
		c0.073-0.11,0.148-0.217,0.229-0.33c0.172,0.005,0.333,0.013,0.521,0.021c0.071-0.115,0.136-0.233,0.217-0.351
		c0.306,0.017,0.623,0.027,0.938,0.046c0.045,0.124,0.1,0.241,0.144,0.368c-0.197,0.307-0.396,0.624-0.604,0.938
		c-0.514,0.071-1.04,0.171-1.561,0.244c-0.081-0.101-0.153-0.226-0.245-0.335C184.66,13.498,184.905,13.352,185.141,13.208z
		 M169.054,8.176c0-0.017,0-0.035,0-0.063c0.324-0.198,0.64-0.401,0.972-0.576c0.137,0.009,0.253,0.025,0.379,0.025
		c-0.54,0.279-1.101,0.583-1.612,0.886c-0.028-0.009-0.064-0.014-0.081-0.014C168.817,8.349,168.945,8.268,169.054,8.176z
		 M169.766,8.038c-0.092,0.012-0.162,0.043-0.253,0.075c0.271-0.138,0.531-0.292,0.81-0.427c0.092-0.061,0.173-0.131,0.256-0.193
		c-0.063,0.007-0.139,0.026-0.191,0.053c0.108-0.072,0.243-0.153,0.372-0.215c-0.111,0.034-0.22,0.069-0.326,0.102
		c-0.028-0.005-0.046-0.04-0.072-0.049c0.955-0.448,1.959-0.866,3.021-1.235c0.928-0.271,1.901-0.513,2.929-0.701
		c-1.29,0.396-2.554,0.855-3.74,1.35c-0.922,0.441-1.812,0.915-2.688,1.418c-0.416,0.142-0.837,0.281-1.227,0.444
		C169.009,8.448,169.378,8.236,169.766,8.038z M168.342,8.938c0.476-0.212,0.972-0.41,1.495-0.612
		c-0.278,0.159-0.541,0.319-0.792,0.475c-0.479,0.188-0.931,0.396-1.354,0.611c-0.08,0.023-0.161,0.056-0.243,0.096
		c0.163-0.136,0.314-0.271,0.485-0.409c-0.142,0.076-0.279,0.126-0.422,0.208c0.063-0.07,0.109-0.129,0.17-0.182
		c0.199-0.102,0.403-0.187,0.623-0.28C168.313,8.88,168.342,8.903,168.342,8.938z M169.712,8.675
		c-0.073,0.061-0.153,0.125-0.229,0.197c-0.17,0.07-0.354,0.134-0.513,0.216c-0.071,0.01-0.134,0.041-0.2,0.059
		c0.094-0.077,0.185-0.158,0.274-0.239C169.26,8.825,169.483,8.744,169.712,8.675z M167.069,9.244c0.223-0.131,0.468-0.26,0.693-0.4
		c0.029-0.007,0.053-0.007,0.082-0.007c-0.091,0.062-0.163,0.144-0.244,0.215c0.191-0.127,0.371-0.252,0.541-0.375
		c0.054,0.005,0.099-0.002,0.153-0.013c-0.315,0.173-0.604,0.353-0.91,0.537c-0.115,0.059-0.245,0.104-0.36,0.162
		c0.063-0.058,0.125-0.123,0.204-0.172C167.177,9.204,167.13,9.228,167.069,9.244z M166.573,9.692
		c0.053-0.031,0.107-0.071,0.144-0.1c-0.043,0.049-0.101,0.1-0.144,0.158c-0.063,0.025-0.099,0.049-0.154,0.073
		C166.475,9.79,166.528,9.746,166.573,9.692z M166.23,10.003c0.063-0.024,0.125-0.045,0.196-0.06c0.128-0.1,0.254-0.197,0.38-0.302
		c0.108-0.049,0.218-0.104,0.333-0.157c-0.178,0.157-0.369,0.297-0.542,0.45c-0.114,0.059-0.214,0.126-0.324,0.198
		c0.021-0.044,0.049-0.081,0.082-0.117c-0.099,0.073-0.188,0.137-0.289,0.204C166.122,10.152,166.186,10.079,166.23,10.003z
		 M166.066,10.494c-0.118,0.117-0.24,0.243-0.358,0.369c-0.182,0.127-0.362,0.257-0.552,0.388c0.01-0.062,0.01-0.131,0.03-0.188
		c0.37-0.303,0.745-0.577,1.161-0.868c-0.157,0.119-0.281,0.236-0.416,0.354C165.987,10.529,166.03,10.513,166.066,10.494z
		 M165.363,10.611c0.138-0.11,0.272-0.218,0.406-0.323c-0.025,0.035-0.062,0.063-0.089,0.103c0.063-0.031,0.133-0.059,0.197-0.092
		c-0.116,0.115-0.253,0.214-0.368,0.321c-0.354,0.251-0.696,0.523-1.013,0.794c-0.027,0.019-0.069,0.035-0.088,0.051
		c0.061-0.073,0.132-0.131,0.205-0.214c-0.125,0.104-0.252,0.198-0.367,0.309c0.188-0.204,0.404-0.4,0.621-0.594
		c0.128-0.075,0.271-0.147,0.406-0.215C165.3,10.703,165.346,10.656,165.363,10.611z M164.076,11.662
		c0.352-0.349,0.737-0.689,1.135-1.02c-0.366,0.323-0.731,0.645-1.073,0.97c-0.036,0.031-0.08,0.063-0.116,0.098
		C164.029,11.693,164.058,11.675,164.076,11.662z M162.74,13.281c0.046-0.073,0.09-0.119,0.136-0.182
		c0.081-0.1,0.163-0.206,0.236-0.315c0.007-0.008,0.027-0.019,0.033-0.032c0.173-0.21,0.344-0.42,0.522-0.626
		c0.073-0.063,0.173-0.127,0.271-0.188c-0.262,0.261-0.513,0.531-0.772,0.792c0.241-0.242,0.478-0.494,0.738-0.737
		c0.034-0.048,0.083-0.083,0.125-0.115c-0.054,0.061-0.109,0.115-0.151,0.178c0.18-0.162,0.386-0.308,0.584-0.46
		c0.163-0.154,0.334-0.316,0.516-0.471c0.063-0.038,0.135-0.08,0.209-0.115c-0.146,0.128-0.301,0.265-0.443,0.395
		c-0.145,0.156-0.292,0.307-0.424,0.462c0.081-0.028,0.15-0.063,0.242-0.083c-0.225,0.198-0.432,0.406-0.642,0.603
		c-0.079,0.048-0.179,0.094-0.252,0.146c-0.388,0.309-0.72,0.642-1.046,0.976c0.047-0.064,0.1-0.122,0.135-0.19
		c-0.062,0.056-0.114,0.118-0.178,0.162C162.633,13.417,162.687,13.348,162.74,13.281z M162.435,13.665
		c0.027-0.024,0.043-0.043,0.08-0.064c-0.08,0.099-0.164,0.195-0.234,0.293C162.324,13.816,162.371,13.741,162.435,13.665z
		 M163.112,56.064c-0.092-0.129-0.192-0.262-0.282-0.399c0.073,0.094,0.145,0.175,0.217,0.255c0.054,0.081,0.108,0.171,0.161,0.244
		C163.182,56.127,163.129,56.101,163.112,56.064z M166.877,53.892c-0.07,0.082-0.15,0.15-0.224,0.235
		c-0.27-0.126-0.549-0.251-0.8-0.38c-0.165,0.055-0.327,0.102-0.49,0.152c-0.081,0.126-0.161,0.249-0.251,0.372
		c0.107,0.316,0.244,0.643,0.36,0.955c-0.116,0.45-0.198,0.874-0.271,1.267c-0.152-0.086-0.316-0.168-0.459-0.252
		c-0.207-0.203-0.424-0.393-0.632-0.595c0.27,0.337,0.532,0.671,0.802,1.005c0.064,0.152,0.127,0.302,0.182,0.446
		c-0.163-0.078-0.325-0.149-0.47-0.234c-0.136-0.108-0.269-0.222-0.407-0.329c0.155,0.227,0.318,0.442,0.462,0.658
		c-0.183-0.134-0.352-0.28-0.532-0.41c0.09,0.116,0.189,0.225,0.271,0.347c0.117,0.117,0.243,0.234,0.351,0.364
		c0,0-0.015,0.005-0.015,0.015c-0.012,0.018-0.012,0.036-0.032,0.056c0.073,0.075,0.136,0.16,0.2,0.241
		c-0.037,0.027-0.064,0.041-0.078,0.063c0.224,0.234,0.447,0.469,0.682,0.704c0,0.037,0.009,0.081,0.009,0.123
		c0.055,0.066,0.118,0.139,0.173,0.207l-0.02-0.011c-0.747-0.706-1.434-1.473-2.093-2.249c0.029,0.054,0.072,0.113,0.11,0.172
		c-0.054-0.081-0.118-0.162-0.182-0.235c-0.044-0.063-0.099-0.105-0.154-0.163c-0.017-0.034-0.042-0.07-0.062-0.098
		c0.036,0.035,0.072,0.07,0.099,0.104c0.036,0.052,0.082,0.104,0.117,0.157c0.02,0.021,0.038,0.041,0.071,0.063
		c-0.059-0.072-0.106-0.148-0.161-0.227c-0.137-0.185-0.269-0.377-0.396-0.566c-0.055-0.051-0.119-0.1-0.17-0.158
		c-0.064-0.084-0.12-0.167-0.183-0.257c-0.225-0.325-0.442-0.653-0.65-0.995c-0.16-0.312-0.313-0.641-0.469-0.98
		c-0.279-0.519-0.551-1.049-0.81-1.591c-0.335-0.787-0.631-1.618-0.912-2.483c-0.161-0.424-0.308-0.849-0.45-1.279
		c-0.433-0.704-0.829-1.407-1.183-2.111c-0.313-0.894-0.62-1.795-0.871-2.705c-0.163-0.443-0.31-0.875-0.442-1.313
		c-0.046-0.247-0.101-0.491-0.129-0.735c0.011-0.13,0.02-0.26,0.037-0.392c-0.037-0.122-0.079-0.238-0.106-0.355
		c-0.028-0.186-0.048-0.364-0.075-0.542c0.027-0.116,0.027-0.229,0.047-0.346c0.056-0.437,0.117-0.881,0.207-1.329
		c-0.072-0.706-0.127-1.408-0.162-2.111c-0.045-0.122-0.098-0.239-0.126-0.361c-0.047,0.104-0.082,0.208-0.117,0.312
		c0.017,0.104,0.035,0.203,0.046,0.308c-0.029,0.039-0.055,0.074-0.072,0.121c0-0.09,0-0.176-0.011-0.267
		c-0.089-0.157-0.162-0.315-0.25-0.467c-0.029-0.215-0.029-0.447-0.056-0.673c-0.021,0-0.055,0.016-0.055,0.016
		c0-0.174,0-0.351,0-0.53c0-0.343-0.081-0.667-0.109-0.993c-0.033-0.017-0.099-0.038-0.125-0.052
		c-0.064-0.397-0.136-0.776-0.161-1.15c-0.036,0.049-0.071,0.095-0.091,0.143c-0.026-0.065-0.048-0.13-0.056-0.192
		c0-0.072,0-0.137-0.01-0.202c0.028-0.557,0.075-1.112,0.146-1.668c0.687-6.097,3.103-11.854,6.555-16.56
		c0.055-0.042,0.094-0.091,0.146-0.127c0.144-0.153,0.315-0.288,0.479-0.425c0.044-0.053,0.089-0.115,0.141-0.171
		c-0.007,0.005-0.023,0.005-0.034,0.005c0.172-0.177,0.361-0.354,0.567-0.522c0.038,0,0.071,0.037,0.119,0.037
		c0.114-0.084,0.224-0.154,0.344-0.235c0.135-0.123,0.26-0.249,0.394-0.394c-0.024,0-0.044-0.009-0.062-0.009
		c0.15-0.143,0.306-0.283,0.477-0.424c0,0.045,0,0.099-0.026,0.153c-0.09,0.091-0.198,0.166-0.3,0.254
		c-0.051,0.063-0.113,0.116-0.16,0.179c0.01,0.005,0.019,0.028,0.027,0.028c0.288-0.285,0.586-0.555,0.883-0.84
		c-0.009-0.025-0.033-0.062-0.054-0.09c0.244-0.202,0.487-0.405,0.722-0.611c0.179-0.189,0.369-0.37,0.568-0.558
		c0.17-0.139,0.38-0.268,0.576-0.399c0.117-0.045,0.237-0.107,0.353-0.139c-0.36,0.237-0.711,0.486-1.063,0.732
		c-0.073,0.084-0.163,0.164-0.256,0.234c-0.051,0.109-0.118,0.222-0.17,0.335c-0.098,0.089-0.208,0.157-0.307,0.244
		c-0.009,0.066-0.009,0.127-0.009,0.185c0.107-0.113,0.262-0.202,0.387-0.321c-0.142,0.172-0.279,0.349-0.398,0.542
		c0.192-0.163,0.398-0.316,0.609-0.476c0.177-0.193,0.357-0.367,0.538-0.553c0.135-0.05,0.27-0.106,0.413-0.168
		c0.038,0.006,0.094,0.01,0.129,0.015c-0.227,0.193-0.452,0.37-0.667,0.56c0.034,0,0.097-0.018,0.135-0.024
		c-0.314,0.241-0.633,0.483-0.928,0.718c-0.146,0.045-0.272,0.099-0.397,0.153c0,0.02,0,0.035,0.009,0.051
		c-0.19,0.167-0.37,0.341-0.56,0.519c-0.821,0.685-1.578,1.396-2.281,2.118c-0.219,0.262-0.424,0.52-0.641,0.784
		c0.037,0,0.09,0.004,0.118,0.01c-0.136,0.206-0.263,0.424-0.407,0.626c0.1-0.087,0.183-0.17,0.271-0.256
		c0.107,0.086,0.188,0.169,0.299,0.27c0.114-0.049,0.252-0.101,0.378-0.146c-0.2,0.292-0.405,0.578-0.603,0.872
		c-0.057,0.186-0.074,0.38-0.1,0.574c0.17-0.194,0.352-0.397,0.531-0.588c0.162-0.314,0.323-0.621,0.486-0.919
		c0.298-0.27,0.604-0.535,0.9-0.813c0.191-0.274,0.362-0.559,0.553-0.832c-0.02-0.028-0.047-0.061-0.064-0.086
		c0.159-0.146,0.322-0.3,0.478-0.437c0.252-0.322,0.505-0.637,0.731-0.953c0.305-0.148,0.604-0.299,0.926-0.442
		c0.064,0.036,0.128,0.086,0.18,0.136c-0.052,0.046-0.115,0.091-0.15,0.145c0.117-0.014,0.232-0.036,0.351-0.054
		c-0.181,0.216-0.343,0.425-0.533,0.63c0.021,0.1,0.021,0.204,0.038,0.303c0.451-0.374,0.928-0.744,1.406-1.095
		c-0.08,0.333-0.153,0.68-0.226,1.036c-0.134,0.117-0.264,0.244-0.388,0.37c0.025,0.099,0.045,0.198,0.063,0.302
		c0.162,0.042,0.332,0.085,0.514,0.121c-0.117,0.063-0.219,0.118-0.334,0.189c0.126,0.081,0.264,0.182,0.38,0.271
		c-0.09,0.159-0.18,0.304-0.279,0.451c-0.578,0.38-1.164,0.758-1.704,1.155c-0.578,0.152-1.119,0.316-1.622,0.496
		c-0.615,0.576-1.202,1.172-1.76,1.759c0.288-0.29,0.586-0.587,0.91-0.857c0.29-0.227,0.622-0.433,0.965-0.633
		c0.01,0.091,0.018,0.177,0.035,0.263c-0.196,0.104-0.405,0.208-0.596,0.333c0.081,0.019,0.172,0.019,0.254,0.04
		c-0.118,0.223-0.217,0.451-0.324,0.672c0.128,0,0.261,0.01,0.389,0.029c-0.075-0.082-0.137-0.175-0.218-0.25
		c0.172-0.03,0.324-0.041,0.504-0.065c-0.097,0.104-0.188,0.202-0.278,0.315c0.064,0.007,0.119,0.007,0.182,0.013
		c0.188-0.217,0.356-0.41,0.538-0.626c-0.009,0.13-0.018,0.26-0.035,0.391c-0.685,0.51-1.343,1.016-1.973,1.531
		c0.007-0.092,0.016-0.179,0.016-0.265c0.244-0.23,0.497-0.475,0.741-0.703c-0.028-0.027-0.056-0.063-0.072-0.09
		c-0.569,0.424-1.119,0.847-1.622,1.281c-0.155,0.225-0.305,0.437-0.451,0.662c0.017,0.08,0.026,0.166,0.036,0.247
		c-0.308,0.205-0.615,0.406-0.896,0.605c-0.132,0.242-0.621,0.487-0.747,0.738c-0.035,0.036-0.297,0.082-0.424,0.118
		c0.082,0.103,0.199,0.205,0.174,0.317c-0.12,0.182-0.047,0.377-0.162,0.574c0.042-0.107,0.096-0.218,0.15-0.321
		c0-0.029,0.012-0.057,0.012-0.083c0.097-0.162,0.161-0.335,0.25-0.498c0.045-0.034,0.026-0.088,0.062-0.12
		c-0.089,0.229-0.215,0.464-0.323,0.701c-0.072,0.331-0.136,0.66-0.197,0.989c-0.018-0.005-0.027-0.005-0.045-0.005
		c-0.028,0.077-0.057,0.15-0.091,0.225c-0.39,0.501-0.73,0.994-1.047,1.485c-0.114,0.232-0.225,0.448-0.314,0.681
		c-0.118,0.57-0.207,1.163-0.29,1.743c-0.097,0.279-0.17,0.561-0.242,0.819c-0.011-0.269-0.011-0.553-0.02-0.819
		c0.057-0.288,0.119-0.567,0.165-0.865c0.017-0.135,0-0.271,0.017-0.397c-0.063,0.069-0.125,0.147-0.189,0.209
		c0-0.108,0.008-0.213,0-0.316c-0.063,0.063-0.137,0.119-0.181,0.188c-0.058-0.022-0.099-0.044-0.144-0.069
		c-0.018,0.061-0.035,0.125-0.063,0.188c0.037-0.009,0.063-0.027,0.09-0.036c-0.035,0.149-0.071,0.289-0.116,0.441
		c-0.037-0.018-0.08-0.009-0.128-0.009c0.021-0.09,0.029-0.177,0.029-0.261c-0.083,0.091-0.146,0.188-0.226,0.27
		c0.025-0.055,0.025-0.111,0.044-0.17c-0.109,0.306-0.224,0.612-0.314,0.908c-0.153,0.687-0.271,1.365-0.379,2.04
		c-0.038,0.405-0.093,0.81-0.109,1.226c0.011,0.141,0.011,0.28,0.017,0.421c0.083-0.046,0.128-0.082,0.2-0.127
		c0.044-0.356,0.126-0.699,0.208-1.06c0.063-0.019,0.154-0.033,0.226-0.071c-0.162,0.747-0.308,1.486-0.409,2.208
		c0.012,0.054,0.02,0.116,0.039,0.172c0.072-0.023,0.171-0.047,0.243-0.073c0.037,0.117,0.063,0.243,0.106,0.356
		c-0.051,0.564-0.09,1.104-0.142,1.669c0.052,0.329,0.08,0.657,0.128,0.994c0.087-0.035,0.197-0.063,0.297-0.09
		c0.09,0.29,0.17,0.578,0.279,0.875c0.055-0.419,0.117-0.848,0.197-1.27c0.072-0.022,0.152-0.039,0.234-0.074
		c0.089-0.17,0.188-0.332,0.287-0.514c0.019,0.063,0.046,0.116,0.065,0.182c-0.038,0.09-0.091,0.162-0.118,0.255
		c-0.009,0.386-0.009,0.776,0,1.17c0.018-0.019,0.045-0.038,0.08-0.046c-0.009-0.272-0.016-0.551-0.027-0.82
		c0.074-0.183,0.174-0.353,0.262-0.531c0.072,0.305,0.155,0.613,0.246,0.929c0.17,0.105,0.366,0.217,0.55,0.328
		c0.134-0.032,0.259-0.067,0.403-0.104c0-0.004,0-0.004,0-0.004c0.056-0.022,0.117-0.022,0.174-0.039
		c-0.065,0.017-0.109,0.024-0.174,0.043c0.037,0.144,0.08,0.279,0.117,0.42c0.1,0.05,0.182,0.141,0.273,0.185
		c0,0.19-0.012,0.375-0.021,0.559c0.056-0.01,0.117-0.01,0.16-0.037c0.12,0.208,0.236,0.408,0.352,0.624c0,0.14,0,0.285,0,0.415
		c0.13,0.18,0.245,0.364,0.374,0.541c0.27,0.145,0.55,0.298,0.845,0.442c0.243,0.387,0.495,0.782,0.731,1.18
		c0.063,0.354,0.125,0.709,0.18,1.064c0.055,0.035,0.119,0.081,0.182,0.117c-0.127,0.471-0.226,0.938-0.344,1.389
		c0.063-0.023,0.107-0.05,0.153-0.07c0.036,0.115,0.063,0.238,0.101,0.364c-0.012-0.212-0.012-0.411-0.012-0.618
		c0.128,0.009,0.271,0,0.408,0.009c0.063,0.046,0.116,0.082,0.17,0.134c0.008,0.227,0.008,0.443,0.029,0.659
		c0.017-0.116,0.026-0.234,0.052-0.368c0.099,0.004,0.202,0.008,0.282,0.008c0.269,0.234,0.54,0.46,0.803,0.695
		c0.041,0.242,0.088,0.485,0.122,0.721c0.12-0.02,0.227-0.06,0.344-0.081c0.389,0.193,0.797,0.396,1.225,0.586
		c0.382,0.526,0.797,1.035,1.201,1.556c0.198,0.094,0.406,0.179,0.596,0.275c0.135,0.541,0.263,1.071,0.396,1.604
		c-0.414,0.712-0.786,1.396-1.118,2.046c0.082,0.659,0.189,1.304,0.299,1.929C166.942,52.856,166.905,53.389,166.877,53.892z
		 M165.085,12.469c-0.208,0.157-0.423,0.315-0.615,0.483c0.057-0.059,0.102-0.112,0.145-0.176c-0.073,0.045-0.145,0.075-0.214,0.117
		c0.369-0.362,0.756-0.717,1.156-1.069c0.013,0.12,0.049,0.258,0.068,0.4c-0.099,0.081-0.196,0.16-0.306,0.236
		C165.246,12.461,165.156,12.451,165.085,12.469z M165.319,12.704c-0.117,0.117-0.244,0.229-0.36,0.341
		c0.081-0.089,0.136-0.18,0.197-0.269C165.211,12.747,165.274,12.721,165.319,12.704z M163.19,15.265
		c0.082-0.072,0.163-0.155,0.244-0.236c-0.045,0.036-0.09,0.063-0.137,0.1c0.083-0.072,0.174-0.145,0.256-0.215
		c-0.082,0.106-0.173,0.215-0.256,0.334c0.047-0.055,0.083-0.109,0.118-0.174C163.345,15.146,163.272,15.2,163.19,15.265z
		 M162.244,16.491c-0.024,0.054-0.053,0.108-0.081,0.153c-0.035,0-0.081-0.01-0.116-0.01
		C162.099,16.584,162.171,16.535,162.244,16.491z M166.763,15.909c0,0.098,0.008,0.194,0.008,0.292
		c0.163-0.031,0.316-0.053,0.488-0.063c-0.091,0.115-0.189,0.233-0.272,0.359c0.074-0.033,0.163-0.049,0.242-0.081
		c-0.168,0.147-0.323,0.297-0.493,0.436c0.116-0.069,0.244-0.146,0.352-0.208c-0.133,0.212-0.271,0.441-0.398,0.668
		c-0.091-0.012-0.178-0.017-0.262-0.023c0.057-0.068,0.128-0.148,0.189-0.221c-0.16,0.089-0.343,0.192-0.512,0.287
		c-0.047,0-0.101,0.019-0.145,0.009c0.089-0.1,0.19-0.194,0.289-0.292c-0.361,0.081-0.692,0.148-1.029,0.229
		c0.037-0.072,0.072-0.131,0.09-0.198c0.544-0.567,1.082-1.148,1.652-1.712c0.125-0.059,0.262-0.126,0.386-0.185
		c-0.308,0.293-0.603,0.606-0.884,0.905C166.565,16.046,166.653,15.973,166.763,15.909z M158.899,31.98
		c-0.101,0.023-0.19,0.063-0.288,0.077c0.009-0.081,0.017-0.157,0.024-0.238C158.735,31.868,158.819,31.918,158.899,31.98z
		 M157.169,31.044c0.035-0.127,0.063-0.253,0.1-0.37c-0.02-0.009-0.057,0-0.09-0.009c-0.01-0.137-0.019-0.268-0.019-0.405
		c-0.11-0.087-0.199-0.163-0.298-0.244c0.018-0.06,0.044-0.112,0.055-0.172c-0.037-0.019-0.072-0.044-0.109-0.07
		c-0.09,0.13-0.182,0.247-0.251,0.364c0.052-0.149,0.127-0.289,0.188-0.425c0.072-0.06,0.162-0.104,0.222-0.162
		c0.183,0.465,0.403,0.932,0.671,1.426C157.474,30.979,157.321,31.02,157.169,31.044z M157.221,31.962
		c-0.072-0.062-0.162-0.121-0.235-0.179c0.031-0.055,0.047-0.096,0.073-0.145C157.124,31.743,157.169,31.854,157.221,31.962z
		 M157.792,31.696c-0.019-0.18-0.057-0.356-0.092-0.535c0.035-0.036,0.035-0.071,0.055-0.103c0.172,0.039,0.323,0.103,0.495,0.147
		c0.054,0.198,0.119,0.393,0.181,0.586c-0.029,0.072-0.054,0.145-0.071,0.207c-0.109-0.067-0.208-0.127-0.289-0.195
		c-0.063,0.133-0.132,0.254-0.19,0.385c-0.026-0.09-0.026-0.163-0.035-0.247c-0.136-0.058-0.252-0.114-0.36-0.177
		C157.583,31.746,157.692,31.711,157.792,31.696z M167.854,60.681c-0.091-0.072-0.188-0.151-0.279-0.215
		c-0.044-0.054-0.101-0.108-0.147-0.154c0.047,0.027,0.104,0.072,0.155,0.101c0.172,0.136,0.335,0.261,0.514,0.396
		C168.016,60.762,167.934,60.717,167.854,60.681z M169.466,10.494c-0.098-0.086-0.196-0.171-0.287-0.253
		c-0.09,0.091-0.189,0.175-0.289,0.26c0,0.163,0,0.336,0.01,0.508c-0.188,0.12-0.389,0.233-0.587,0.364
		c-0.125-0.036-0.26-0.066-0.396-0.095c0.037,0.113,0.063,0.239,0.106,0.346c-0.163,0.069-0.324,0.142-0.486,0.206
		c-0.144-0.109-0.278-0.195-0.407-0.291c-0.313,0.069-0.619,0.162-0.928,0.243c0.162-0.131,0.334-0.252,0.498-0.386
		c0.262-0.127,0.539-0.26,0.82-0.38c0-0.044-0.009-0.073-0.009-0.112c0.28-0.186,0.541-0.363,0.83-0.543
		c0.052-0.083,0.115-0.169,0.187-0.246c-0.043-0.055-0.089-0.095-0.124-0.137c-0.118,0.073-0.233,0.145-0.352,0.216
		c0.089-0.079,0.195-0.174,0.304-0.251c-0.044-0.045-0.079-0.081-0.116-0.119c-0.196,0.11-0.38,0.236-0.559,0.364
		c-0.314,0.11-0.621,0.211-0.9,0.337c-0.046-0.071-0.081-0.139-0.118-0.202c0.406-0.311,0.829-0.612,1.254-0.912
		c0.168-0.079,0.331-0.171,0.522-0.252c-0.269,0.173-0.541,0.343-0.812,0.518c-0.08,0.082-0.165,0.167-0.261,0.25
		c0.009,0.008,0.035,0.017,0.035,0.031c0.172-0.139,0.315-0.277,0.469-0.421c0.243-0.144,0.485-0.287,0.739-0.439
		c0.083-0.028,0.182-0.056,0.264-0.092c-0.181,0.144-0.346,0.306-0.526,0.451c0.47-0.233,0.956-0.446,1.471-0.657
		c-0.091,0.075-0.153,0.143-0.227,0.223c0.136-0.034,0.298-0.071,0.452-0.098c0.092,0.063,0.189,0.112,0.289,0.173
		c-0.071,0.052-0.152,0.104-0.226,0.152c0.037,0.018,0.073,0.056,0.1,0.062c-0.172,0.1-0.343,0.203-0.514,0.31
		c0.179-0.028,0.342-0.059,0.52-0.084c0.13,0.056,0.264,0.136,0.4,0.209C170.223,9.979,169.837,10.241,169.466,10.494z
		 M167.385,10.76c0.036-0.045,0.078-0.096,0.107-0.136c0.119-0.09,0.235-0.17,0.353-0.263c0.072-0.002,0.135-0.011,0.208-0.02
		c-0.128,0.089-0.254,0.192-0.388,0.286C167.574,10.675,167.483,10.719,167.385,10.76z M175.382,9.614
		c-0.252,0.132-0.505,0.24-0.768,0.356c-0.017,0.081-0.024,0.152-0.051,0.229c-0.434,0.298-0.857,0.592-1.275,0.899
		c-0.357-0.117-0.709-0.208-1.051-0.316c0.043-0.459,0.123-0.909,0.187-1.331c0.243-0.247,0.507-0.471,0.75-0.716
		c0.352-0.17,0.721-0.34,1.064-0.504c0.024-0.056,0.042-0.1,0.071-0.15c-0.351,0.09-0.695,0.187-1.028,0.275
		c0.18-0.125,0.361-0.251,0.55-0.381c0.218-0.029,0.432-0.053,0.657-0.067c-0.044-0.087-0.081-0.164-0.106-0.245
		c-0.234,0.049-0.442,0.108-0.658,0.158c0.235-0.187,0.459-0.369,0.693-0.547c0.02-0.135,0.039-0.265,0.065-0.396
		c-0.734,0.136-1.425,0.298-2.095,0.469c-0.044,0-0.079,0.011-0.125,0c0.081-0.026,0.152-0.062,0.235-0.1
		c-0.11,0.009-0.235,0.027-0.342,0.038c0.231-0.087,0.458-0.171,0.692-0.264c-0.21,0.015-0.418,0.047-0.611,0.072
		c0.63-0.251,1.26-0.497,1.945-0.721c0.152-0.09,0.306-0.158,0.479-0.241c-0.18,0.044-0.382,0.093-0.56,0.144
		c0.594-0.226,1.197-0.449,1.802-0.655c1.454-0.383,2.959-0.689,4.518-0.933c1.326-0.177,2.695-0.271,4.103-0.324
		c0.551,0.035,1.11,0.068,1.669,0.116c-0.163,0.019-0.343,0.031-0.504,0.064c0.435,0.003,0.881,0.027,1.324,0.053
		c0.388,0.036,0.794,0.072,1.181,0.117c-0.837,0.091-1.694,0.226-2.542,0.36c-0.037,0.131-0.063,0.277-0.088,0.413
		c-0.3,0.011-0.598,0-0.895,0.021c0.136,0.066,0.26,0.127,0.397,0.187c-0.138,0.087-0.262,0.161-0.407,0.243
		c0.146-0.006,0.264,0.002,0.388,0c-0.307,0.048-0.622,0.091-0.93,0.146c0.073,0.047,0.164,0.07,0.245,0.126
		c-0.218,0.045-0.426,0.099-0.632,0.137c-0.054,0.068-0.107,0.142-0.171,0.204c-0.244-0.034-0.488-0.053-0.731-0.08
		c0.215,0.091,0.45,0.172,0.685,0.248c-0.078,0.081-0.161,0.158-0.241,0.235c-0.334-0.027-0.678-0.086-1.021-0.122
		c-0.178,0.085-0.32,0.181-0.503,0.266c0.315,0.032,0.641,0.051,0.956,0.081c-1.136,0.213-2.264,0.438-3.37,0.7
		c-0.551,0.226-1.095,0.46-1.635,0.703c-0.642,0.143-1.271,0.312-1.902,0.479C175.673,9.244,175.52,9.426,175.382,9.614z
		 M207.744,54.893c-0.073,0.081-0.144,0.151-0.208,0.234c-0.027-0.037-0.054-0.094-0.073-0.125c-0.83,1.323-1.666,2.579-2.541,3.75
		c-0.064,0.068-0.127,0.13-0.198,0.199c-0.283,0.082-0.561,0.152-0.839,0.243c-0.047-0.081-0.089-0.161-0.145-0.235
		c0.09-0.307,0.19-0.612,0.286-0.93c0.254-0.274,0.507-0.536,0.769-0.824c0.09-0.328,0.171-0.677,0.251-1.023
		c0.164-0.181,0.311-0.359,0.452-0.55c0.478-0.267,0.937-0.542,1.398-0.83c0.089-0.171,0.162-0.343,0.252-0.513
		c0.117-0.045,0.242-0.108,0.369-0.157c0.136-0.217,0.261-0.434,0.417-0.653C207.871,53.965,207.815,54.438,207.744,54.893z
		 M218.179,43.396c-0.059,0.03-0.112,0.058-0.157,0.1c0.036-0.302,0.083-0.605,0.106-0.921c0.066-0.26,0.111-0.531,0.183-0.81
		c0.009,0.053,0.037,0.093,0.057,0.136c0.016,0.286,0.016,0.559,0.025,0.836C218.319,42.951,218.248,43.174,218.179,43.396z
		 M221.009,36.97c-0.049,0.594-0.11,1.191-0.183,1.784c-0.119,0.909-0.278,1.801-0.468,2.691c-0.108,0.554-0.441,1.095-0.704,1.635
		c0.02,0.01,0.046,0.018,0.055,0.027c-0.019,0.334-0.045,0.676-0.1,0.997c0.018,0.076,0.009,0.157,0.009,0.233
		c-0.166,0.492-0.316,0.988-0.495,1.466c0.128-0.478,0.252-0.97,0.329-1.479c0.064-0.351,0.094-0.715,0.131-1.087
		c-0.08,0.177-0.153,0.355-0.208,0.538c-0.026,0.09-0.496,0.172-0.496,0.271c0-0.086,0-0.152,0-0.222
		c0-0.437,0.599-0.892,0.685-1.348c0-0.154,0.225-0.316,0.225-0.478c0.12-0.576,0.315-1.15,0.417-1.727
		c0.045-0.501,0.144-1.001,0.171-1.503c0-0.089,0.008-0.165,0.008-0.251c-0.055,0.162-0.088,0.324-0.123,0.482
		c-0.02-0.042-0.05-0.085-0.056-0.131c0.026-0.383,0.063-0.766,0.08-1.154c-0.017-0.561-0.08-1.136-0.132-1.713
		c-0.05,0.127-0.073,0.257-0.12,0.383c-0.063,0.037-0.116,0.068-0.181,0.102c-0.006-0.078-0.017-0.174-0.017-0.268
		c-0.039,0.099-0.074,0.203-0.127,0.307c-0.025,0.216-0.063,0.439-0.091,0.658c-0.199,0.523-0.414,1.058-0.658,1.6
		c-0.081,0.072-0.162,0.159-0.234,0.226c-0.107,0.871-0.252,1.727-0.406,2.593c-0.181,0.344-0.344,0.694-0.52,1.035
		c-0.039-0.135-0.049-0.27-0.102-0.405c0.026-1.144-0.027-2.33-0.106-3.552c0.032-0.947,0.032-1.92,0.017-2.895
		c-0.063,0.208-0.145,0.409-0.209,0.613c-0.071,0.036-0.143,0.04-0.216,0.063c-0.088-0.27-0.188-0.546-0.29-0.813
		c0.092-0.115,0.184-0.223,0.266-0.337c-0.072,0.015-0.164,0.032-0.246,0.042c-0.171-0.479-0.37-0.958-0.567-1.442
		c-0.37-0.055-0.757-0.074-1.164-0.114c-0.396-0.193-0.812-0.409-1.254-0.603c-0.072-0.241-0.126-0.484-0.188-0.727
		c-0.289,0.018-0.588,0.036-0.894,0.054c-0.261-0.307-0.524-0.604-0.775-0.894c-0.163-0.415-0.305-0.838-0.468-1.243
		c-0.173-0.172-0.343-0.344-0.505-0.508c-0.135,0.19-0.263,0.382-0.396,0.581c0.396,0.904,0.757,1.812,1.098,2.713
		c0.049-0.158,0.083-0.312,0.126-0.465c0.073,0.04,0.137,0.111,0.19,0.164c-0.027,0.282-0.07,0.575-0.117,0.851
		c0.323,0.072,0.659,0.145,0.977,0.225c0.214-0.342,0.432-0.699,0.62-1.036c0.019,0.265,0.034,0.536,0.054,0.803
		c0.35,0.487,0.676,0.987,0.991,1.464c-0.209,0.429-0.402,0.861-0.612,1.285c0,0.189,0,0.36-0.008,0.535
		c-0.327,0.384-0.658,0.763-1.021,1.143c-0.197,0.082-0.414,0.139-0.629,0.213c-0.082,0.166-0.173,0.328-0.255,0.508
		c-0.622,0.405-1.28,0.815-1.967,1.229c-0.477,0.097-0.953,0.183-1.449,0.269c-0.046-0.868-0.119-1.747-0.2-2.625
		c-0.387-0.848-0.793-1.695-1.217-2.557c-0.091-0.622-0.162-1.239-0.262-1.861c-0.512-0.983-1.057-1.952-1.622-2.938
		c0.053-0.317,0.091-0.627,0.127-0.931c-0.118,0.354-0.245,0.708-0.372,1.065c-0.225-0.528-0.458-1.037-0.714-1.559
		c0.518,1.613,0.968,3.235,1.398,4.85c0.175,0.153,0.325,0.315,0.496,0.478c0.066,0.749,0.12,1.488,0.175,2.217
		c0.143,0.163,0.276,0.321,0.423,0.473c0.08,0.515,0.18,1.044,0.27,1.557c0.48,0.689,0.92,1.37,1.379,2.028
		c-0.071,0.151-0.134,0.309-0.197,0.466c0.206,0.274,0.434,0.537,0.64,0.811c0.794-0.301,1.56-0.591,2.291-0.888
		c0.073,0.037,0.136,0.081,0.208,0.127c-0.056,0.257-0.109,0.512-0.161,0.757c-0.56,1.19-1.147,2.389-1.778,3.559
		c-1.171,1.277-2.406,2.537-3.705,3.781c-0.38,0.668-0.767,1.325-1.146,1.975c0.063,0.729,0.092,1.443,0.118,2.129
		c-0.206,0.749-0.444,1.463-0.678,2.163c-1.034,0.813-2.118,1.586-3.2,2.339c-0.024,0.321-0.043,0.638-0.081,0.952
		c-0.135,0.262-0.271,0.513-0.415,0.771c-0.36,0.157-0.722,0.324-1.1,0.473c-0.236,0.381-0.469,0.741-0.704,1.091
		c-0.728,0.515-1.462,0.986-2.188,1.452c-0.577,0.193-1.139,0.379-1.714,0.546c-0.271,0.005-0.542,0.005-0.822,0.005
		c-0.362,0.081-0.728,0.162-1.109,0.219c-0.225-0.03-0.459-0.065-0.694-0.116c-0.043-0.14-0.061-0.265-0.108-0.41
		c0.091-0.079,0.175-0.162,0.264-0.243c-0.29-0.469-0.604-0.947-0.911-1.466c0-0.589,0.024-1.226,0.024-1.889
		c-0.323-0.632-0.647-1.29-0.989-1.987c0.261-0.69,0.521-1.393,0.783-2.121c0.28-0.336,0.56-0.678,0.839-1.026
		c-0.162-1.051-0.322-2.133-0.486-3.26c-0.531-0.91-1.063-1.85-1.596-2.809c0.125-0.157,0.271-0.319,0.407-0.478
		c0.177-0.635,0.35-1.266,0.539-1.916c-0.098-0.181-0.182-0.37-0.263-0.559c-0.09-0.127-0.171-0.254-0.253-0.38
		c-0.557,0-1.117,0.011-1.676-0.009c-0.342-0.494-0.668-1.027-1-1.542c-0.542,0.036-1.082,0.026-1.623,0.055
		c-0.66,0.234-1.319,0.477-1.958,0.698c-0.45-0.147-0.873-0.328-1.315-0.482c-0.614,0.154-1.227,0.289-1.822,0.423
		c-0.173-0.059-0.314-0.144-0.476-0.206c-0.821-0.839-1.624-1.681-2.411-2.523c-0.043-0.299-0.078-0.597-0.112-0.894
		c-0.363-0.662-0.723-1.325-1.067-1.987c-0.226-0.112-0.424-0.231-0.632-0.34c0.037-0.361,0.082-0.723,0.109-1.091
		c-0.109-0.189-0.217-0.378-0.324-0.559c0.215-0.218,0.413-0.434,0.621-0.636c0.145-0.488,0.264-0.975,0.407-1.466
		c-0.037-0.928-0.057-1.857-0.074-2.775c0.887-1.229,1.778-2.463,2.696-3.685c0.262-0.059,0.532-0.103,0.792-0.168
		c0.364-0.295,0.706-0.62,1.066-0.909c0.227-0.604,0.434-1.187,0.648-1.785c0.481-0.274,0.976-0.574,1.47-0.857
		c0.225-0.364,0.46-0.721,0.694-1.081c0.604,0.179,1.208,0.373,1.813,0.567c0.675-0.235,1.341-0.479,2.012-0.713
		c1.558-0.008,3.103-0.035,4.636,0c0.116,0.148,0.252,0.28,0.366,0.433c0.118-0.045,0.244-0.09,0.359-0.134
		c-0.099,0.115-0.204,0.238-0.304,0.347c0.08,0.258,0.154,0.509,0.223,0.771c-0.179,0.278-0.358,0.551-0.557,0.831
		c0.927,0.428,1.856,0.88,2.777,1.31c0.054,0.177,0.074,0.356,0.108,0.528c0.551,0.33,1.1,0.644,1.633,0.975
		c0.224-0.051,0.45-0.072,0.675-0.127c0.035-0.315,0.091-0.64,0.125-0.965c0.31-0.09,0.596-0.203,0.895-0.294
		c0.574,0.365,1.135,0.741,1.694,1.104c0.641,0.244,1.255,0.479,1.877,0.723c0.341-0.088,0.666-0.181,1.007-0.267
		c0.163,0.159,0.325,0.307,0.471,0.47c0.335-0.083,0.686-0.142,0.999-0.213c0.191-0.59,0.38-1.162,0.562-1.732
		c0-0.494-0.019-0.976-0.019-1.461c-0.458,0.087-0.902,0.19-1.372,0.281c-0.241-0.194-0.468-0.406-0.711-0.604
		c-0.206,0.085-0.44,0.154-0.638,0.247c-0.417-0.247-0.831-0.493-1.256-0.725c0-0.197-0.016-0.394-0.016-0.583
		c-0.157-0.094-0.299-0.174-0.435-0.274c0.107-0.017,0.197-0.028,0.314-0.045c-0.127-0.315-0.269-0.624-0.416-0.929
		c0.147-0.063,0.272-0.164,0.379-0.221c0.319,0.05,0.615,0.111,0.922,0.175c0.045-0.049,0.109-0.089,0.18-0.125
		c-0.063-0.082-0.151-0.153-0.216-0.235c0-0.051,0.024-0.099,0.024-0.153c0.102,0.063,0.22,0.111,0.336,0.161
		c0.748-0.016,1.469-0.016,2.182-0.026c0.326,0.261,0.668,0.528,1.002,0.795c0.351,0.081,0.713,0.173,1.065,0.262
		c0.178-0.145,0.747-0.259,0.935-0.398c-0.686-0.72-1.713-1.456-1.713-2.173c0-0.042,0-0.098,0-0.146c0,0-0.287,0.029-0.26,0.029
		c0.091-0.125,0.018-0.251,0.097-0.383c-0.079-0.103-0.262-0.203-0.349-0.301c0.206-0.01,0.343-0.037,0.54-0.037
		c-0.217-0.063-0.463-0.134-0.695-0.188c-0.37,0.097-0.757,0.193-1.146,0.314c0.182,0.153,0.324,0.32,0.497,0.474
		c0.136,0.013,0.29,0.067,0.44,0.081c0,0.049,0,0.104,0,0.149c-0.359,0.018-0.721,0.063-1.09,0.092
		c-0.19-0.219-0.351-0.444-0.54-0.67c0.135-0.062,0.26-0.13,0.387-0.198c-0.234-0.172-0.462-0.341-0.712-0.517
		c-0.162-0.041-0.343-0.078-0.515-0.123c-0.152,0.117-0.323,0.235-0.486,0.359c-0.254,0.524-0.497,1.057-0.75,1.597
		c0.19,0.253,0.372,0.507,0.56,0.768c0.046,0.027,0.092,0.04,0.118,0.063c-0.01,0.055-0.034,0.1-0.054,0.146
		c-0.189-0.017-0.39-0.064-0.587-0.084c-0.188,0.15-0.369,0.3-0.552,0.453c0.064-0.111,0.11-0.216,0.171-0.325
		c-0.131-0.08-0.25-0.157-0.387-0.239c-0.224-0.062-0.46-0.093-0.694-0.158c-0.098,0.127-0.189,0.27-0.295,0.406
		c-0.156-0.126-0.325-0.233-0.488-0.353c0.325,0.567,0.659,1.147,0.984,1.727c-0.082-0.044-0.173-0.094-0.262-0.146
		c0,0.115,0,0.226-0.01,0.331c-0.47-0.219-0.959-0.439-1.434-0.666c-0.288-0.438-0.577-0.879-0.866-1.316
		c0.019-0.287,0.035-0.577,0.052-0.869c-0.691-0.551-1.397-1.078-2.097-1.616c-0.05-0.185-0.092-0.383-0.147-0.585
		c-0.088-0.086-0.188-0.157-0.296-0.23c-0.073,0.073-0.134,0.163-0.199,0.252c-0.107-0.189-0.234-0.369-0.332-0.538
		c-0.144,0-0.3,0.035-0.441,0.054c0,0.232,0.008,0.459,0,0.692c0.302,0.407,0.603,0.829,0.899,1.245
		c0.327,0.145,0.65,0.296,0.966,0.433c0.388,0.391,0.774,0.775,1.171,1.163c-0.262-0.118-0.521-0.209-0.783-0.315
		c0.01,0.289,0.027,0.587,0.027,0.874c-0.172,0.198-0.336,0.406-0.505,0.605c-0.054-0.424-0.097-0.848-0.146-1.271
		c-0.775-0.57-1.543-1.147-2.318-1.706c-0.133-0.338-0.251-0.68-0.388-1.01c-0.215-0.104-0.449-0.182-0.685-0.285
		c-0.396,0.181-0.785,0.376-1.198,0.575c-0.397-0.125-0.794-0.255-1.2-0.362c-0.188,0.072-0.368,0.151-0.541,0.237
		c0,0.205,0.012,0.402,0.012,0.61c-0.397,0.144-0.785,0.308-1.19,0.451c-0.271,0.27-0.562,0.522-0.832,0.803
		c0.089,0.158,0.146,0.33,0.239,0.485c-0.509,0.377-0.996,0.745-1.5,1.118c-0.605,0.096-1.217,0.19-1.82,0.28
		c-0.227-0.271-0.462-0.509-0.671-0.774c-0.341,0.019-0.692,0.019-1.035,0.045c0.271-1.255,0.55-2.463,0.821-3.642
		c0.181-0.084,0.332-0.172,0.521-0.253c1.085,0.081,2.177,0.176,3.273,0.287c0.117-0.483,0.236-0.946,0.335-1.41
		c-0.479-0.448-0.946-0.886-1.424-1.301c0.532,0.017,1.043,0.047,1.566,0.079c-0.035-0.188-0.066-0.379-0.109-0.561
		c0.293,0.077,0.581,0.189,0.857,0.271c0.833-0.528,1.643-1.047,2.457-1.532c0.169,0.085,0.35,0.14,0.521,0.225
		c-0.055-0.126-0.108-0.25-0.153-0.378c0.469,0.036,0.919,0.031,1.361,0.073c0.089-0.15,0.191-0.285,0.264-0.425
		c-0.12-0.316-0.235-0.617-0.345-0.923c0.081-0.069,0.183-0.141,0.272-0.217c0.249-0.028,0.513-0.077,0.775-0.114
		c0.035,0.207,0.069,0.416,0.108,0.614c-0.226,0.134-0.434,0.279-0.64,0.423c0.198,0.189,0.367,0.393,0.566,0.585
		c0.377-0.063,0.768-0.115,1.145-0.178c-0.009,0.071-0.025,0.134-0.037,0.201c0.144,0.063,0.281,0.145,0.443,0.204
		c0.567-0.047,1.117-0.082,1.685-0.127c0.127,0.099,0.271,0.212,0.415,0.307c0.19-0.089,0.379-0.186,0.577-0.271
		c0.091-0.329,0.198-0.659,0.281-0.97c0.341,0.128,0.701,0.235,1.055,0.365c-0.153-0.284-0.316-0.578-0.462-0.859
		c0.824,0.088,1.624,0.211,2.408,0.319c-0.243-0.159-0.485-0.326-0.729-0.479c-0.57-0.059-1.145-0.116-1.725-0.176
		c-0.286-0.15-0.576-0.294-0.874-0.428c0-0.288,0-0.574,0-0.849c0.389-0.145,0.766-0.288,1.157-0.414
		c-0.12-0.118-0.229-0.243-0.335-0.361c-0.234-0.059-0.479-0.098-0.722-0.157c-0.145,0.085-0.289,0.176-0.435,0.275
		c0.093,0.044,0.181,0.1,0.273,0.14c-0.48,0.152-0.986,0.306-1.488,0.475c0,0.168,0,0.341-0.021,0.508
		c0.234,0.166,0.452,0.349,0.678,0.518c-0.252,0.119-0.496,0.236-0.76,0.354c-0.105,0.305-0.222,0.617-0.331,0.937
		c-0.406,0.035-0.812,0.081-1.208,0.126c-0.335-0.613-0.65-1.2-0.975-1.776c-0.416,0.108-0.811,0.244-1.228,0.36
		c-0.234-0.063-0.469-0.145-0.701-0.204c-0.047-0.173-0.116-0.335-0.181-0.508c0.206-0.073,0.423-0.115,0.641-0.18
		c-0.01-0.055-0.01-0.109-0.028-0.162c-0.189,0.063-0.386,0.116-0.577,0.188c-0.02-0.126-0.045-0.243-0.071-0.362
		c0.251,0.028,0.504,0.057,0.749,0.066c0.043-0.042,0.071-0.109,0.107-0.168c-0.28,0.005-0.57,0.005-0.846,0.015
		c-0.021-0.101-0.04-0.186-0.057-0.281c0.622-0.127,1.224-0.25,1.841-0.356c0.333-0.148,0.657-0.301,0.982-0.444
		c0.47-0.254,0.927-0.507,1.37-0.741c-0.369-0.008-0.74-0.025-1.108-0.03c0.242-0.022,0.468-0.051,0.713-0.059
		c-0.073-0.027-0.146-0.081-0.209-0.109c0.188-0.016,0.379-0.053,0.568-0.067c0.063,0.067,0.127,0.141,0.188,0.202
		c0.225-0.093,0.462-0.171,0.694-0.25c0.449,0.008,0.911,0.045,1.354,0.048c0.604,0.149,1.216,0.283,1.795,0.438
		c0.233,0.116,0.469,0.221,0.703,0.334c-0.242-0.046-0.487-0.1-0.722-0.146c1.362,0.586,2.704,1.225,3.995,1.886
		c0.078,0.106,0.16,0.226,0.252,0.353c-0.252-0.036-0.517-0.065-0.777-0.076c-0.656-0.322-1.359-0.628-2.054-0.919
		c0.313,0.199,0.621,0.407,0.927,0.606c0.055,0.162,0.119,0.319,0.173,0.486c0.378,0.198,0.784,0.379,1.172,0.569
		c-0.18-0.136-0.522-0.262-0.522-0.398c0-0.055,0-0.103,0-0.151c0,0.179,0.83,0.377,1.231,0.565
		c-0.133-0.129-0.274-0.277-0.429-0.414c0.225-0.018,0.448-0.044,0.666-0.062c0.207,0.134,0.423,0.274,0.631,0.414
		c-0.009-0.067-0.018-0.145-0.027-0.208c-0.233-0.296-0.476-0.586-0.721-0.875c0.306,0.144,0.605,0.308,0.919,0.462
		c0.046,0.053,0.11,0.106,0.155,0.162c-0.117,0.004-0.243-0.009-0.391,0c0.218,0.138,0.417,0.28,0.622,0.423
		c0.092-0.064,0.163-0.131,0.236-0.198c0.415,0.04,0.849,0.099,1.235,0.145c0.127,0.136,0.29,0.26,0.406,0.396
		c0.3,0.051,0.575,0.119,0.85,0.182c0.108,0.098,0.223,0.209,0.333,0.306c0.034-0.035,0.1-0.062,0.134-0.086
		c-0.1-0.103-0.19-0.193-0.29-0.282c-0.188-0.128-0.369-0.275-0.557-0.405c0.006-0.012,0.034-0.037,0.054-0.048
		c0.909,0.604,1.784,1.224,2.613,1.866c-0.01-0.045-0.01-0.079-0.018-0.123c-0.215-0.189-0.432-0.381-0.658-0.573
		c-0.108-0.187-0.244-0.356-0.351-0.541c0.043-0.087,0.098-0.169,0.136-0.252c0.222,0.146,0.447,0.283,0.664,0.427
		c0.038,0.101,0.075,0.19,0.102,0.29c0.332,0.386,0.659,0.666,0.973,1.039c-0.079-0.147-0.167-0.293-0.251-0.437
		c-0.163-0.158-0.316-0.324-0.471-0.479c0.063-0.019,0.127-0.026,0.191-0.039c0.07,0.121,0.17,0.239,0.27,0.375
		c0.224,0.156,0.442,0.313,0.669,0.48c-0.227-0.194-0.445-0.399-0.659-0.608c0.107,0.073,0.214,0.144,0.323,0.209
		c0.036,0.006,0.075,0.006,0.109,0c0.227,0.205,0.439,0.399,0.666,0.586c0.037,0.007,0.063,0.021,0.082,0.021
		c-0.235-0.239-0.47-0.491-0.733-0.722c-0.015-0.032-0.015-0.072-0.023-0.097c0.306,0.181,0.604,0.378,0.883,0.552
		c-0.09-0.09-0.163-0.18-0.251-0.266c0.035-0.014,0.088-0.022,0.125-0.036c0.459,0.289,0.866,0.601,1.26,0.905
		c-0.052-0.055-0.099-0.117-0.15-0.175c0.09,0.077,0.183,0.153,0.252,0.221c-0.048-0.063-0.102-0.127-0.142-0.189
		c0.06,0.019,0.106,0.046,0.16,0.072c0.172,0.175,0.342,0.352,0.494,0.533c0.047,0.048,0.071,0.105,0.11,0.16
		c0.018,0.019,0.035,0.029,0.035,0.036c4.401,6.258,6.878,13.923,6.376,21.73C221.017,36.818,221.017,36.895,221.009,36.97z
		 M192.901,20.219c0.063,0.086,0.117,0.166,0.189,0.252c-0.06,0.348-0.115,0.686-0.17,1.024c-0.136,0.063-0.279,0.096-0.406,0.155
		c-0.074-0.437-0.127-0.867-0.189-1.301C192.515,20.295,192.704,20.272,192.901,20.219z M192.622,19.455
		c0.146-0.064,0.279-0.161,0.409-0.233c-0.056,0.312-0.13,0.637-0.201,0.958C192.768,19.936,192.685,19.701,192.622,19.455z
		 M194.345,22.428c0.587,0.004,1.172,0.023,1.757,0.028c-0.098,0.319-0.205,0.645-0.294,0.959
		C195.329,23.082,194.831,22.747,194.345,22.428z M198.835,23.316c0.118-0.082,0.215-0.172,0.334-0.252
		c0.171,0.099,0.333,0.217,0.495,0.319c0.047,0.301,0.099,0.598,0.126,0.906c-0.217-0.108-0.45-0.207-0.674-0.315
		C199.016,23.748,198.925,23.531,198.835,23.316z M200.035,24.983c0.018-0.09,0.027-0.181,0.045-0.27
		c0.433,0.147,0.88,0.27,1.299,0.425c-0.019,0.048-0.046,0.098-0.073,0.151c-0.316-0.025-0.63-0.082-0.947-0.116
		C200.251,25.111,200.154,25.041,200.035,24.983z M204.199,25.804c0.324-0.062,0.658-0.11,0.976-0.171
		c-0.129,0.151-0.271,0.289-0.396,0.455C204.587,25.983,204.388,25.895,204.199,25.804z M194.171,12.894
		c0.068-0.028,0.119-0.028,0.165-0.054c0.062,0.025,0.134,0.025,0.197,0.054c0.056-0.028,0.128-0.028,0.191-0.047
		c0.034,0.047,0.063,0.101,0.097,0.135c-0.115,0.072-0.224,0.146-0.331,0.219C194.388,13.091,194.28,12.996,194.171,12.894z
		 M197.086,12.821c0-0.074,0-0.135,0-0.198c0.143-0.055,0.287-0.081,0.44-0.116c-0.061,0.084-0.115,0.154-0.163,0.24
		C197.276,12.766,197.178,12.784,197.086,12.821z M198.547,12.568c0.16,0,0.333,0.018,0.503,0.035
		c-0.024,0.027-0.034,0.049-0.062,0.083c-0.101,0.021-0.207,0.026-0.316,0.054C198.637,12.677,198.584,12.623,198.547,12.568z"/>
	<path fill-rule="evenodd" clip-rule="evenodd" fill="#E57E25" d="M52.827,190.636c-13.762,8.893-27.096,20.671-37.105,34.304
		c-4.427,3.493-11.207,8.872-15.229,12.281c-0.172,0.133-0.338,0.27-0.492,0.402l6.633,2.168c-0.054,0.117-0.126,0.238-0.189,0.359
		c0.018,0.045,0.027,0.082,0.037,0.116l-3.27,3.216l4.684-0.74l0.031-0.029c0.575,0.453,1.295,0.782,2.222,1.002
		c0.093-0.066,0.183-0.124,0.272-0.183l3.112,6.338c0.115-0.179,0.225-0.35,0.342-0.548c2.841-4.535,7.309-12.161,10.118-17.031
		c6.202-6.099,11.711-12.933,16.59-20.073C47.497,202.109,52.827,190.636,52.827,190.636z M13.812,246.461l-2.319-3.407l2.319,1.802
		l7.838-11.102L13.812,246.461z M31.8,219.742c-6.097,8.354-12.499,15.549-21.733,21.92l-0.26,0.177l-0.289-0.128
		c-0.212-0.112-0.375-0.254-0.481-0.334l-0.397-0.369l16.345-18.441l-12.836,12.864l-0.817-0.702
		c10.189-14.055,16.249-21.971,32.254-34.079l2.614-1.993l-1.827,2.721c-0.534,0.762-1.003,1.489-1.517,2.24
		c-1.945,2.63-4.275,5.824-6.742,9.188c-6.226,8.555-18.726,21.488-18.726,21.488C22.413,230.43,27.381,225.14,31.8,219.742z"/>
	<path fill="#E57E25" d="M205.335,68.309c-0.269-0.144-0.721-0.059-1.098,0.119c0-0.01,0-0.019,0-0.027
		c-0.099-0.352-0.93-0.646-1.959-0.116c-0.668,0.341-1.515,0.863-2.289,1.286c-8.548,4.875-20.379-1.525-22.408,3.03
		c-6.978,15.201-21.521,27.367-31.963,38.862c-2.479,2.738-4.518,6.51-7.098,8.728c-3.715,3.222-8.854,4.523-12,8.198
		c-2.071,2.416-3.913,4.91-5.464,5.996c-0.857-0.806-1.976-2.674-2.473-3.916c-0.072-0.177-0.132-0.35-0.17-0.482
		c-0.026-0.081-0.063-0.176-0.072-0.236c-0.209-1.687,0.667-2.976,0.667-2.976s4.78-7.958,4.96-8.306
		c0.543-1.041,0.543-1.614,0.543-1.614c0-1.513-1.438-1.883-1.887-2.577c-0.449-0.686-0.027-1.856-0.027-1.856
		c0.116-0.646-0.079-1.002-0.297-1.204c-0.325-0.257-1.092-0.248-1.092-0.248s0.245-0.46,0.116-1.29
		c-0.053-0.335-0.269-0.595-0.529-0.791c-0.435-0.326-1.841-0.62-2.146-1.111c-0.037-0.225,0.529-1.135,0.34-2.679
		c-0.178-1.414-1.431-1.447-1.431-1.447s-2.861,0.276-5.131-0.103c-1.299-0.212-1.776-0.929-1.776-0.929
		c-4.041-7.024-9.829-8.504-9.829-8.504c-0.274-1.109-0.241-3.443-2.245-4.129c-2.001-0.693-4.527,0.729-4.527,0.729
		s-3.041,1.703-6.636,4.896c-1.492,1.629-2.78,3.183-3.896,4.626l0,0c0,0-0.022,0.032-0.034,0.057
		c-1.046,1.359-1.936,2.611-2.669,3.727c-1.453,2.105-3.094,4.619-3.807,6.212c-1.423,3.17-0.517,8.869,0.582,11.979
		c1.099,3.107,2.938,7.354,6.496,10.267c3.561,2.912,6.272,3.019,8.783,3.196c3.961,0.293,7.186,1.551,7.186,1.551
		s1.551,0.65,3.11,2.592c0.044,0.06,0.072,0.124,0.119,0.182c1.244,4.116,0.071,8.038-2.427,10.226
		c-12.004,9.002-13.066,25.908-22.936,36.568c-7.244,7.851-14.136,14.55-20.732,22.379l-7.638,5.57
		c-2.154,1.001-4.278,2.045-6.348,3.201c-1.53,0.863-3.03,1.781-4.469,2.778c-0.815,0.567-1.588,1.153-2.333,1.765
		c-0.596,0.489-1.161,1.007-1.81,1.396c-0.866,0.542-1.812,0.934-2.647,1.512c-1.199,0.837-2.256,1.855-3.158,3.005
		c-0.629,0.827-1.178,1.683-1.628,2.619c-0.741,1.259-1.561,2.428-1.629,4.364c8.478,9.002,12.886-3.255,18.009-8.196
		c5.323-5.112,14.557-8.061,21.838-13.641c6.603-5.073,13.892-10.371,19.656-16.387c8.323-8.689,10.455-20.746,18.005-28.919
		c4.806,9.16,19.812,14.448,16.917,27.292c-2.074,9.23-5.771,19.835-5.995,28.932c-0.036,1.325-0.028,2.635-0.011,3.931
		c0,0-0.15,16.133-0.15,20.533c0,4.404-3.237,9.715-3.237,9.715c-0.74,1.158-3.384,4.732-5.331,7.346
		c-1.109,1.479-3.102,3.856-3.544,4.396c-6.571,8.111-9.706,23.617-10.676,27.746c-1.037,4.399-2.459,5.955-2.459,5.955
		c-2.201,1.169-4.013,5.695-4.923,8.418c-0.904,2.713-2.591,6.986-2.591,6.986s-3.103,5.7-4.336,9.518
		c-1.229,3.824,0.585,4.732,0.585,4.732c0.516,1.548,2.524,1.805,2.524,1.805c0.388,0.713,2.327,1.104,2.327,1.104h5.442
		c2.199-0.064,2.979,0,3.43-1.623c0.451-1.614-0.323-3.687,0.711-10.029c1.038-6.344,1.942-8.933,3.759-14.568
		c1.812-5.632,3.69-7.12,10.418-16.699c6.734-9.584,7.449-12.235,8.809-14.635c1.352-2.388,1.75-2.648,7.378-8.736
		c5.635-6.085,6.147-8.091,6.86-9.777c0.713-1.685,2.264-5.826,2.264-5.826s2.48,2.069,1.866,5.468
		c-0.099,0.516-1.859,7.873-2.967,12.535c-1.65,6.908,0.991,15.219,2.344,20.722c1.36,5.499,2.308,11.042,2.445,14.604
		c0.124,3.563-1.614,7.006-1.614,7.006c-1.55,3.37-1.227,5.377-1.227,5.377c0.774,3.885,5.95,3.299,5.95,3.299s7.321,0.129,8.674,0
		c1.361-0.127,4.985,2.199,6.474,3.044c1.498,0.841,4.176,0.966,4.176,0.966s4.083-0.029,5.391-0.194
		c1.308-0.175,1.635-0.985,1.788-1.576c0.213-0.905-0.137-1.73-0.137-1.73h0.388c0.217,0,0.198-0.319,0.198-0.319l0.019-0.383
		c0-0.849-0.55-1.02-0.55-1.02c-0.071-0.463-1.173-0.509-1.334-0.509c-0.126-0.371-0.759-0.417-1.147-0.417
		c0.046,0.016,0.452,0.202,0.577,0.632h0.461c0,0,1.101-0.035,1.163,0.519c0,0,0.524,0.063,0.586,0.465c0,0,0.063,0.217-0.172,0.229
		c-0.233,0.015-0.532,0-0.532,0s-0.135-0.616-0.701-0.572c-0.064-0.021-1.174-0.163-1.174-0.163s0.28-0.865-2.021-1.391
		c0.552,0.021,0.947,0.085,1.237,0.14c-0.534-0.271-1.632-0.501-2.454-0.501c-0.965,0-1.676-0.844-1.676-0.844
		s-6.419-6.646-8.737-8.674c-3.104-2.711-3.328-3.488-3.308-3.995c0.015-0.5-0.218-37.701,1.485-42.099
		c0.759-1.946,2.724-7.637,3.236-8.938c0.522-1.29,0.775-11.066,0.775-13.529c0-2.458,1.11-6.992,1.11-6.992
		c1.064-4.878,2.001-9.374,2.434-11.993c0.74-2.956,1.38-5.878,1.75-8.744c1.569-12.066-3.256-20.938-5.453-30.558
		c-1.615-7.08-2.761-15.077-5.458-21.844c-2.461-6.163-7.762-14.28-8.197-19.105c-0.765-8.633,8.759-13.933,13.655-19.106
		c3.957-4.185,7.572-9.05,11.467-13.099c8.782-9.125,13.57-19.755,19.647-29.475c6.612-10.596,11.416,0.167,22.751-10.463
		C205.769,70.059,206.164,68.77,205.335,68.309z M99.979,97.424c-1.006,1.316-2.832,1.607-4.513,3.184
		c-1.683,1.578-0.568,3.029-0.568,3.029c0.956,1.083,2.866,3.436,0.231,4.788c-1.711,0.876-6.706,0.253-6.706,0.253
		c6.579-0.954,5.618-2.714,5.203-3.335c-0.417-0.623-1.138-0.57-3.546,1.01c-2.406,1.583-4.479,1.734-4.479,1.734
		c2.722-1.108,4.906-2.826,6.808-5.451c0.541-0.748,1.298-1.95,1.298-1.95s-0.906-0.203-3.79,2.292
		c-1.552,1.345-4.315,2.211-4.315,2.211s1.631-0.954,4.121-3.832c2.719-3.148,6.363-3.391,6.363-3.391s-1.21-0.657-4.555,0.515
		c-1.385,0.485-3.497,1.965-3.497,1.965c2.382-3.228,4.322-4.148,7.115-4.081c5.555,0.131,4.9-1.564,4.9-1.564
		C100.47,95.287,100.989,96.104,99.979,97.424z M39.724,229.376c-2.37-0.185-2.871,1.501-3.282,3.273
		c-1.544-2.552,3.393-4.356,0.556-7.105c-2.529,3.604-2.393,7.094-6.015,8.188c1.146-4.159,5.568-11.327,11.322-11.453
		C40.497,222.754,38.173,226.652,39.724,229.376z M73.564,202.622c-0.72-0.188-0.859-0.962-1.642-1.077
		c-1.359,0.366,1.021,1.447,0.547,2.72c-0.666-0.23-1.119-0.694-1.087-1.643c-3.162,1.398-4.789,4.33-6.557,7.106
		c0.562-0.36,0.568-1.258,1.643-1.101c-0.867,1.322-1.499,2.89-3.272,3.274c0.26-1.159-0.77-1.039-1.633-1.093
		c2.453-7.727,11.547-8.825,13.103-17.466c3.011-0.793,2.01-5.616,5.997-5.444c-0.362-0.57-1.246-0.574-1.104-1.644
		c0.444-0.477,1.502-0.317,1.646-1.101c0.096,1.938,0.983,5.297,3.269,6.551C83.366,197.862,75.557,197.349,73.564,202.622z
		 M111.776,151.858c-3.514,1.69-8.204,1.534-12.009,4.915c-7.679,6.823-8.625,20.974-17.471,28.382
		c9.103-9.095,8.463-27.931,21.295-33.297c1.676,0.55-1.19,0.902-1.093,1.643c1.749,1.01,2.417-3.752,5.456-3.277
		c0.334-2.48,0.036-3.975,3.821-3.823c-0.195,1.393-0.945,3.421-2.18,2.187C109.722,150.271,111.11,150.705,111.776,151.858z
		 M86.946,333.975c-0.068-0.553-0.65-0.468-0.65-0.468h-1.748c-0.064-0.424-0.406-0.308-0.406-0.308s-1.824,0-1.926,0
		c0.068-0.634-0.631-0.767-0.631-0.767H79.84c0.096-0.974-1.234-1.163-1.234-1.163s0.554,0.018,0.664,0
		c1.119-0.029,1.038,0.537,1.038,0.537s0.972,0.043,1.669,0c0.694-0.052,0.614,0.621,0.614,0.621s1.1,0.022,1.615,0.005
		c0.521-0.021,0.502,0.456,0.502,0.456s1.232-0.03,1.75,0c0.518,0.032,0.488,0.662,0.488,0.662V333.975z M87.435,314.196
		c-2.038-0.288-1.625-3.327-1.625-3.327c0.031-0.414,0.315-0.75,0.436-0.192c0.124,0.558,0.316,0.896,0.854,1.256
		c0.531,0.365,1.234-0.723,2.082-1.74c0.851-1.02,0.926-0.242,0.926-0.242S89.473,314.486,87.435,314.196z M90.359,333.551
		c0,0-0.115-0.273-1.036-0.29c-0.926-0.017-1.521,0.063-1.732,0.39v-0.144c0,0,0.019-1.092,0.953-1.074c0.94,0.015,1.071,0,1.071,0
		s0.682,0.037,0.744,0.607V333.551z M113.407,258.853c-0.393,0.95-2.511,4.671-3.811,7.104c-1.841,3.409-3.121,8.34-6.558,8.183
		c3.708-4.521,6.844-13.737,11.47-19.106c0.037,0.757-0.198,1.771,0.29,2.084C114.014,257.236,112.309,259.703,113.407,258.853z
		 M162.515,324.933c0.315-0.033,0.345-0.158,0.477-0.399c0.327-0.564,0.686-0.734,0.686-0.734s-0.438,0.739-0.459,1.479
		c-0.549,0.082-2.46-0.487-2.46-0.487S162.199,324.964,162.515,324.933z M125.97,150.767c-1.27,2.289-1.324,0.787-3.822,0.553
		c0.955-3.287-4.672-1.976-4.915-6.011c-1.479-0.051-1.091,0.914-2.183,0c-1.036-0.376,0.596-0.852,0.553,0
		c0.403-1.428,1.251-4.179,1.63-7.091c1.119,0.149,1.085,1.459,1.634,2.171c0.402-0.457-0.146-2.829,1.09-3.814
		c2.543,0.263,3.271,0.726,6.564,1.093c-1.084,0.374-1.74,2.479,0,2.722c-0.406,0.974-0.994,0.082-1.65,0
		c-0.561,1.839,1.704,0.854,2.732,1.096c0.586-2.042-1.343-1.553-1.082-3.267c1.579-0.479,0.605-0.826,0.531-2.192
		c1.975-1.33,3.625-1.212,5.465-1.641c0.433,1.227,0.504,4.815-2.183,5.47c1.741,0.62,0.379,4.352,3.283,3.813
		c-1.55,2.691,2.389,2.521,1.632,6.001c-3.492-1.781-4.148-6.394-8.729-7.097c0.388,0.518,0.981,0.838,1.632,1.096
		c-1.658,8.092,0.484,11.626,3.281,18.015C127.916,159.731,126.53,155.672,125.97,150.767z M136.267,317.627
		c0,0-1.099-0.064-1.999-0.58c-0.91-0.514-0.396-1.439-0.354-1.521c0.326-0.599,0.613-0.292,1.003,0.194
		c0.386,0.486,1.162,1.129,1.647,1.52C137.051,317.627,136.267,317.627,136.267,317.627z M139.613,160.045
		c-0.128,3.571,3.488,5.127,2.181,8.193c-1.765-0.319-2.533,0.366-3.805,0.549c-1.217-1.142,0.468-1.775-0.56-2.736
		c-0.441,0.289-0.892,0.578-1.633,0.552c-0.009,1.595,2.518,1.848,1.082,3.263c-0.765-0.551-2.865-2.512-1.63-3.263
		c-0.233-0.813-0.697,0.214-1.632,0c-0.325-1.147-1.361-1.557-1.101-3.283c1.497-0.388,1.11,1.09,2.189,1.09
		c-0.478-1.172-1.414-1.856-1.089-3.822c1.54,0.815,3.72,0.997,4.903,2.187c0.263,1.718-1.47,1.437-1.642,2.728
		c2.645,0.234,0.541-1.153,2.19-2.182c-0.809-1.193-1.062-2.933-2.19-3.822C136.953,158.46,138.919,159.938,139.613,160.045z
		 M158.18,103.277c-0.271,0.279,0.28,1.369,0,1.631c-3.175,3.029-7.881,4.673-11.058,7.513c-0.116,0.421-0.459,0.829-0.459,1.225
		c0-0.359,0-0.73,0-1.09c0-0.044,0.397-0.091,0.459-0.135c0.938-3.364,5.943-7.205,9.262-6.962c-0.009-0.531-0.586-0.423-1.01-0.551
		c6.188-8.909,15.879-17.267,20.234-26.194c3.074,0.064,3.984-2.381,6.635-4.476C175.49,84.427,167.402,93.537,158.18,103.277z"/>
</g>
</svg>
