<?xml version="1.0" encoding="utf-8"?>
<!-- Generator: Adobe Illustrator 16.0.3, SVG Export Plug-In . SVG Version: 6.00 Build 0)  -->
<!DOCTYPE svg PUBLIC "-//W3C//DTD SVG 1.1//EN" "http://www.w3.org/Graphics/SVG/1.1/DTD/svg11.dtd">
<svg version="1.1" id="Шар_1" xmlns="http://www.w3.org/2000/svg" xmlns:xlink="http://www.w3.org/1999/xlink" x="0px" y="0px"
	 width="1325.321px" height="439.092px" viewBox="0 0 1325.321 439.092" enable-background="new 0 0 1325.321 439.092"
	 xml:space="preserve">
<path fill="none" d="M94.776,375.118c-21.265-28.383-33.341-65.914-34.503-106.897c-8.322,16.672-13.732,32.925-16.177,48.497
	c7.198,11.015,15.298,21.708,24.253,31.94C76.628,358.115,85.487,366.965,94.776,375.118z"/>
<path fill="#F5F5F5" d="M60.137,133.15l-0.105,15.503l-44.285-0.302l0.479-70.457l43.789,0.297l-0.105,15.489l-27.685-0.188
	l-0.079,11.681l25.159,0.17l-0.104,15.305l-25.16-0.172l-0.084,12.483L60.137,133.15z"/>
<path fill="#F5F5F5" d="M233.55,36.402c0.142-20.749,16.649-36.539,36.885-36.401c20.244,0.139,36.526,16.151,36.385,36.9
	c-0.14,20.731-16.64,36.513-36.884,36.374C249.702,73.139,233.408,57.135,233.55,36.402z M290.717,36.791
	c0.086-12.585-8.928-21.005-20.389-21.084c-11.477-0.077-20.592,8.219-20.678,20.805c-0.085,12.579,8.917,20.988,20.393,21.066
	C281.504,57.657,290.631,49.37,290.717,36.791z"/>
<g>
	<path fill="#1589C6" d="M368.359,98.582c-1.658-3.002-3.398-5.927-5.227-8.781c-10.953-17.07-24.889-31.403-41.52-41.97
		c-0.481,2.214-1.108,4.368-1.859,6.465c13.551,8.894,25.36,20.569,35.088,34.622c1.902,2.745,3.729,5.582,5.467,8.512
		c6.689,11.24,12.175,23.768,16.289,37.437c6.661,22.103,9.407,45.943,8.155,70.858c-1.295,25.883-6.862,51.778-16.547,76.969
		c-6.095,15.854-13.582,30.805-22.294,44.636c-0.273,4.658-0.755,9.239-1.435,13.728c11.759-16.741,21.86-35.538,29.748-56.051
		C400.064,217.792,395.902,148.34,368.359,98.582z"/>
	<path fill="#1589C6" d="M295.484,384.089c-15.187,12.046-31.363,21.363-48.082,27.69c-16.841,6.372-33.818,9.546-50.454,9.432
		c-14.655-0.099-28.905-2.771-42.353-7.94c-37.739-14.508-65.98-47.258-79.527-92.22c-6.113-20.29-8.919-42.051-8.369-64.76
		c-2.189,3.789-4.25,7.596-6.175,11.415c-0.085,0.171-0.164,0.345-0.251,0.515c1.162,40.983,13.238,78.515,34.503,106.897
		c6.917,9.229,14.807,17.489,23.612,24.59c10.119,8.16,21.443,14.795,33.888,19.579c0.89,0.345,1.785,0.673,2.68,0.995
		c9.284,3.329,18.771,5.495,28.369,6.571c0.992-0.111,1.985-0.217,2.982-0.336c1.043,0.294,2.087,0.595,3.131,0.875
		c2.482,0.158,4.974,0.25,7.466,0.266c35.635,0.244,71.954-13.947,103.494-39.245c13.444-10.788,26.02-23.59,37.297-38.161
		c1.061-4.616,1.876-9.352,2.457-14.19C327.41,354.484,312.385,370.684,295.484,384.089z"/>
	<path fill="#1589C6" d="M156.182,71.83c15.188-12.043,31.361-21.361,48.083-27.688c4.337-1.642,8.683-3.068,13.031-4.282
		c-0.077-1.225-0.125-2.453-0.116-3.7c0.006-0.998,0.047-1.992,0.106-2.979c-27.609,7.375-54.475,22.797-78.009,44.705
		c2.664,0.41,5.333,0.867,8.014,1.409C150.191,76.719,153.156,74.23,156.182,71.83z"/>
	<path fill="#1589C6" d="M83.46,173.227c13.504-35.137,33.823-65.832,59.247-89.736c-2.675-0.481-5.337-0.896-7.988-1.244
		c-23.729,23.377-43.76,53.496-57.279,88.663c-10.342,26.913-15.871,54.181-17.02,80.4c2.277-3.908,4.703-7.808,7.264-11.69
		C69.811,217.27,75.096,194.986,83.46,173.227z"/>
</g>
<g>
	<path fill="#F5F5F5" d="M220.158,115.184c1.817-0.8,3.641-1.582,5.457-2.351c-25.499-16.921-52.329-28.291-78.324-33.537
		c-2.681-0.542-5.35-0.999-8.014-1.409c-7.888-1.22-15.681-1.883-23.312-1.936c-12.906-0.086-25.353,1.521-37.033,4.891
		c1.007,1.42,1.942,2.891,2.804,4.406c10.673-2.934,22.127-4.418,34.198-4.336h0.003c6.155,0.043,12.43,0.502,18.781,1.334
		c2.651,0.348,5.313,0.763,7.988,1.244c18.494,3.338,37.516,9.865,56.137,19.38C206.052,106.554,213.174,110.674,220.158,115.184z"
		/>
	<path fill="#F5F5F5" d="M281.567,162.067c-14.9-17.026-31.183-31.7-48.167-43.872c-1.818,0.733-3.635,1.488-5.449,2.254
		c17.97,12.57,34.879,27.74,49.884,44.883c47.024,53.73,68.633,118.225,62.317,170.729c-0.581,4.839-1.396,9.574-2.457,14.19
		c-1.518,6.644-3.535,13.038-6.054,19.134c-2.017,4.883-4.356,9.569-7.017,14.041c-5.33,8.938-11.95,17.01-19.903,23.97
		c-19.427,17.002-45.177,25.881-74.463,25.684c-7.466-0.052-15.113-0.714-22.856-1.927c-4.658,0.926-9.279,1.709-13.859,2.377
		c12.466,2.905,24.77,4.428,36.682,4.509c29.563,0.201,56.698-8.475,77.763-26.91c10.7-9.365,19.103-20.625,25.273-33.273
		c2.108-4.319,3.959-8.796,5.545-13.422c2.56-7.444,4.446-15.263,5.672-23.377c0.68-4.488,1.161-9.069,1.435-13.728
		C348.975,275.285,326.847,213.803,281.567,162.067z"/>
	<path fill="#F5F5F5" d="M94.776,375.118c-9.289-8.153-18.148-17.003-26.427-26.46c-8.955-10.232-17.055-20.926-24.253-31.94
		c-2.146-3.28-4.202-6.594-6.184-9.929c-17.617-29.667-28.696-61.274-31.971-92.177c-2.2-20.753-0.749-40.029,4.118-57.165
		c-1.494-0.834-2.938-1.738-4.341-2.706c-13.624,46.103-2.732,105.171,30.784,159.241c2.12,3.423,4.338,6.83,6.646,10.211
		c6.454,9.467,13.608,18.75,21.469,27.732c16.533,18.889,34.758,34.893,53.771,47.782
		C109.583,392.607,101.693,384.348,94.776,375.118z"/>
</g>
<g>
	<path fill="#F5F5F5" d="M430.074,128.231c2.551-1.239,5.218-2.278,7.98-3.098c-17.669-19.521-43.842-31.286-74.922-35.333
		c1.828,2.854,3.568,5.779,5.227,8.781C394.213,102.939,415.287,113.059,430.074,128.231z"/>
	<path fill="#F5F5F5" d="M300.398,388.413c-31.54,25.298-67.859,39.489-103.494,39.245c-2.492-0.016-4.983-0.107-7.466-0.266
		c-2.043-0.135-4.079-0.313-6.113-0.539c-3.28,0.357-6.533,0.646-9.763,0.861c-5.561,0.379-11.055,0.56-16.463,0.521
		c-47.364-0.321-83.488-16.604-101.726-45.846c-9.367-15.023-13.624-32.701-12.651-52.539c0.091-1.869,0.241-3.762,0.427-5.658
		c-2.308-3.381-4.525-6.788-6.646-10.211c-4.507,26.666-0.892,51.715,12.139,72.606c20.432,32.769,60.216,49.255,108.401,49.584
		c11.724,0.079,23.947-0.809,36.499-2.643c4.58-0.668,9.201-1.451,13.859-2.377c37.762-7.463,77.977-23.249,116.58-47.325
		c0.216-0.129,0.428-0.27,0.643-0.401c2.66-4.472,5-9.158,7.017-14.041c-3.893,2.628-7.838,5.206-11.856,7.709
		C313.387,381.089,306.918,384.854,300.398,388.413z"/>
	<path fill="#F5F5F5" d="M452.724,228.612c-1.823-0.013-3.623-0.115-5.399-0.309c-2.891,9.287-6.754,18.76-11.581,28.372
		c-11.005,21.897-26.421,43.326-45.812,63.7c-15.195,15.963-32.332,30.722-51.126,44.058c-1.586,4.626-3.437,9.103-5.545,13.422
		c63.226-41.944,106.888-97.507,122.251-149.298C454.586,228.602,453.66,228.618,452.724,228.612z"/>
	<path fill="#F5F5F5" d="M60.273,268.221c0.087-0.17,0.166-0.344,0.251-0.515c1.925-3.819,3.985-7.626,6.175-11.415
		c10.342-17.926,23.631-35.467,39.641-52.289c20.18-21.198,43.776-40.277,70.146-56.718c16.764-10.455,33.979-19.426,51.465-26.835
		c1.814-0.766,3.631-1.521,5.449-2.254c8.899-3.596,17.869-6.784,26.874-9.56c27.473-8.457,54.019-12.661,78.899-12.489h0.005
		c7.321,0.05,14.374,0.48,21.13,1.283c-1.738-2.93-3.564-5.767-5.467-8.512c-5.096-0.432-10.303-0.674-15.617-0.711
		c-34.859-0.232-74.113,7.992-113.609,24.626c-1.816,0.769-3.64,1.551-5.457,2.351c-16.043,7.07-32.094,15.524-47.876,25.368
		c-44.954,28.031-80.776,62.966-104.599,99.067c-2.561,3.883-4.986,7.782-7.264,11.69c-10.877,18.604-18.501,37.353-22.507,55.479
		c1.981,3.335,4.038,6.648,6.184,9.929C46.541,301.146,51.951,284.893,60.273,268.221z"/>
</g>
<path fill="#F5F5F5" d="M425.579,194.947l13.948-7.962c2.459,5.853,6.766,9.815,14.729,9.871c7.646,0.051,9.577-2.962,9.597-5.683
	c0.029-4.327-3.978-6.068-14.535-9.05c-10.441-2.994-20.68-8.098-20.588-21.593c0.092-13.587,11.622-21.356,23.802-21.274
	c11.579,0.079,20.604,5.679,25.653,16.084l-13.643,7.859c-2.376-5.049-5.676-8.193-12.119-8.237
	c-5.041-0.035-7.572,2.461-7.59,5.286c-0.022,3.209,1.672,5.448,12.618,8.839c10.657,3.291,22.616,7.103,22.517,22.003
	c-0.093,13.591-11.034,21.566-26.328,21.462C438.859,212.453,429.43,205.343,425.579,194.947z"/>
<path fill="#1589C6" d="M286.152,360.336c-11.857,5.535-13.718-2.843-11.938-12.854c1.955-11.006,6.732-21.054,7.244-32.374
	c0.371-8.086-1.465-18.353-9.411-22.674c-9.036-4.935-20.77-3.099-29.054-9.619c-11.539-9.088-15.246-30.484-9.223-43.195
	c10.014-21.118,40.143-17.788,58.498-9.728c-18.51-25.978-47.807-43.697-81.37-46.512c-2.03,6.314-8.819,12.735-13.851,13.612
	c-7.996,1.388-5.271-7.613-4.822-13.615c-7.965,0.657-15.694,2.148-23.1,4.4c-5.022,2.731-11.379,6.148-12.534,7.373
	c-7.352,7.813,5.061,5.641,9.405,3.296c3.629-1.951,10.299-6.926,14.176-2.6c3.348,3.725-0.949,10.797-4.102,13.287
	c-6.203,4.907-15.772,1.954-22.612,5.677c-5.718,3.112-10.388,7.909-13.872,13.377c-3.035,4.761-4.25,11.776-8.499,15.58
	c-5.068,4.538-6.432-1.674-10.874-3.787c-6.414-3.065-15.172,14.427-11.061,16.406c3.872,1.864,5.347-5.475,7.988-3.42
	c2.646,2.063-4.752,8.547-0.484,10.823c3.914,2.093,3.763,8.968-0.28,10.724c-6.393,2.779-10.726-7.617-12.142-11.989
	c-0.835-2.595-1.359-5.07-1.572-6.819c-0.563-4.726-0.228-9.44,0.723-14.061c-8.459,15.647-13.324,33.551-13.454,52.6
	c-0.421,61.866,49.187,112.357,110.797,112.777c44.419,0.303,82.95-25.512,101.151-63.124
	C296.726,351.269,290.982,358.08,286.152,360.336z M188.49,334.341c-7.732,14.874-31.344,21.841-26.877,42.038
	c0.689,3.123,5.542,14.326,1.781,16.772c-0.832,0.546-2.092,0.659-3.912,0.158c-5.101-1.41-9.795-9.415-12.479-13.661
	c-7.362-11.645-5.446-26.159-11.817-38.125c-5.986-11.254-16.672-20.768-17.583-34.185c-0.362-5.389,1.724-10.532,1.733-15.886
	c0.012-3.698-3.021-7.801-1.874-11.475c1.495-4.762,7.767-4.342,11.843-4.602c13.86-0.889,24.533,8.869,35.071,16.388
	c7.612,5.423,17.739,7.037,24.877,13.094C198.801,312.958,193.256,325.168,188.49,334.341z"/>
<g>
	<g>
		<path fill="#F5F5F5" d="M546.161,84.89l0.464-68.374l68.378,0.465l-0.049,7.124l-59.827-0.407l-0.155,22.784l56.964,0.388
			l-0.049,7.124l-56.964-0.389l-0.164,24.219l59.828,0.407l-0.05,7.126L546.161,84.89z"/>
		<path fill="#F5F5F5" d="M694.927,70.233l-53.487-0.364l-9.029,15.608l-9.891-0.067l39.469-68.11l12.271,0.084l38.421,68.641
			l-8.973-0.062L694.927,70.233z M690.921,63.09l-22.373-40.095l-23.004,39.786L690.921,63.09z"/>
		<path fill="#F5F5F5" d="M805.701,86.657l-8.551-0.059l0.088-12.823c0.014-2.072-0.01-3.865-0.078-5.361
			c-0.063-1.504-0.298-2.786-0.717-3.869c-0.436-1.06-1.115-1.923-2.026-2.585c-0.897-0.662-2.21-1.164-3.899-1.532
			c-1.686-0.37-3.834-0.634-6.426-0.786c-2.598-0.153-5.801-0.245-9.592-0.271l-38.414-0.262L735.9,86.183l-8.546-0.06l0.466-68.374
			l48.385,0.328c5.232,0.036,9.625,0.252,13.2,0.655c3.569,0.385,6.51,0.956,8.843,1.723c2.322,0.759,4.111,1.687,5.369,2.789
			c1.237,1.109,2.167,2.407,2.734,3.896c0.549,1.49,0.881,3.149,0.985,4.993c0.096,1.844,0.128,3.876,0.113,6.104
			c-0.021,2.841-0.237,5.341-0.664,7.493c-0.399,2.148-1.096,3.978-2.043,5.482c-0.976,1.511-2.235,2.705-3.82,3.602
			c-1.577,0.898-3.552,1.507-5.927,1.852c2.371,0.374,4.266,1.006,5.678,1.91c1.432,0.896,2.512,2.055,3.277,3.497
			c0.754,1.425,1.258,3.121,1.494,5.082c0.242,1.962,0.359,4.188,0.342,6.679L805.701,86.657z M736.135,51.986l39.838,0.272
			c3.804,0.024,6.993-0.018,9.59-0.126c2.598-0.123,4.758-0.35,6.439-0.696c1.692-0.341,2.998-0.839,3.93-1.494
			c0.921-0.632,1.594-1.499,2.04-2.563c0.442-1.06,0.692-2.333,0.79-3.838c0.078-1.499,0.126-3.289,0.141-5.362
			c0.013-1.927-0.011-3.591-0.07-4.988c-0.077-1.4-0.312-2.563-0.738-3.516c-0.435-0.955-1.096-1.724-2.008-2.292
			c-0.924-0.573-2.225-1.013-3.91-1.345c-1.678-0.314-3.836-0.535-6.43-0.641c-2.598-0.11-5.785-0.171-9.59-0.197l-39.838-0.271
			L736.135,51.986z"/>
		<path fill="#F5F5F5" d="M898.189,18.908l-0.048,7.124l-34.192-0.233l-0.418,61.252l-8.545-0.059l0.418-61.252l-34.195-0.232
			l0.049-7.123L898.189,18.908z"/>
		<path fill="#F5F5F5" d="M985.922,19.505l8.55,0.06l-0.466,68.374l-8.547-0.058l0.213-31.344l-62.671-0.427l-0.214,31.343
			l-8.547-0.058l0.464-68.376l8.547,0.059l-0.202,29.908l62.67,0.428L985.922,19.505z"/>
	</g>
	<g>
		<path fill="#F5F5F5" d="M602.822,138.96c5.224,0.035,9.621,0.381,13.188,1.044c3.577,0.652,6.512,1.648,8.808,2.957
			c2.305,1.3,4.088,2.936,5.322,4.907c1.228,1.961,2.12,4.275,2.688,6.915c0.559,2.644,0.889,5.624,0.963,8.948
			c0.081,3.328,0.102,7.011,0.074,11.048c-0.027,4.033-0.098,7.716-0.225,11.039c-0.119,3.317-0.49,6.299-1.084,8.935
			c-0.604,2.64-1.527,4.935-2.783,6.876c-1.258,1.964-3.064,3.574-5.387,4.846c-2.313,1.28-5.264,2.22-8.848,2.829
			c-3.575,0.608-7.979,0.909-13.201,0.874l-25.737-0.175c-5.227-0.036-9.625-0.396-13.177-1.054c-3.59-0.658-6.52-1.639-8.823-2.949
			c-2.313-1.302-4.075-2.939-5.33-4.921c-1.247-1.956-2.157-4.264-2.714-6.91c-0.568-2.646-0.879-5.631-0.949-8.95
			c-0.061-3.324-0.083-7.007-0.055-11.039c0.027-4.037,0.1-7.721,0.205-11.047c0.115-3.323,0.467-6.299,1.072-8.935
			c0.592-2.634,1.533-4.935,2.807-6.879c1.28-1.954,3.064-3.564,5.396-4.834c2.32-1.276,5.265-2.231,8.861-2.837
			c3.561-0.613,7.967-0.899,13.191-0.864L602.822,138.96z M602.387,203.057c3.764,0.025,6.945-0.065,9.543-0.271
			c2.6-0.206,4.749-0.649,6.442-1.313c1.699-0.665,3.011-1.646,3.944-2.914c0.924-1.273,1.605-2.959,2.027-5.061
			c0.438-2.108,0.705-4.688,0.795-7.762c0.092-3.069,0.152-6.752,0.182-11.014c0.029-4.273,0.018-7.947-0.031-11.016
			c-0.048-3.074-0.281-5.658-0.689-7.78c-0.395-2.112-1.053-3.805-1.959-5.079c-0.918-1.287-2.213-2.279-3.88-2.968
			c-1.675-0.7-3.806-1.16-6.399-1.404c-2.594-0.237-5.783-0.362-9.588-0.389l-25.736-0.175c-3.785-0.025-6.998,0.055-9.593,0.258
			c-2.597,0.209-4.74,0.639-6.433,1.315c-1.707,0.667-3.018,1.642-3.943,2.916c-0.936,1.262-1.602,2.946-2.041,5.052
			c-0.426,2.115-0.679,4.697-0.758,7.771c-0.081,3.065-0.139,6.74-0.168,11.012c-0.029,4.264-0.006,7.945,0.027,11.017
			c0.06,3.075,0.283,5.658,0.689,7.771c0.396,2.106,1.056,3.803,1.953,5.089c0.891,1.28,2.178,2.278,3.877,2.966
			c1.682,0.688,3.818,1.161,6.412,1.401c2.592,0.242,5.804,0.376,9.589,0.401L602.387,203.057z"/>
		<path fill="#F5F5F5" d="M650.165,209.072l0.466-68.369l57.022,0.387c4.271,0.03,7.702,0.395,10.312,1.117
			c2.613,0.724,4.605,1.75,6.015,3.113c1.39,1.362,2.329,3.051,2.798,5.065c0.453,2.032,0.688,4.35,0.67,6.949
			c-0.014,1.908-0.192,3.578-0.539,5.028c-0.329,1.459-0.773,2.721-1.307,3.777c-0.549,1.066-1.167,1.955-1.84,2.676
			c-0.695,0.729-1.394,1.33-2.114,1.803c-1.676,1.113-3.568,1.732-5.722,1.867c2.678,0.17,5.058,0.834,7.129,2.009
			c0.877,0.503,1.752,1.145,2.581,1.913c0.838,0.756,1.599,1.694,2.247,2.816c0.662,1.115,1.19,2.426,1.606,3.926
			c0.411,1.511,0.612,3.239,0.599,5.188c-0.018,2.379-0.145,4.555-0.385,6.521c-0.236,1.977-0.709,3.747-1.398,5.313
			c-0.705,1.57-1.688,2.942-2.964,4.113c-1.288,1.184-2.995,2.152-5.131,2.938c-2.128,0.761-4.729,1.331-7.793,1.694
			c-3.078,0.366-6.753,0.533-11.019,0.505L650.165,209.072z M698.819,169.526c2.91,0.02,5.425-0.031,7.524-0.13
			c2.105-0.105,3.902-0.318,5.392-0.63c1.472-0.315,2.698-0.766,3.604-1.34c0.935-0.565,1.654-1.313,2.188-2.222
			c0.521-0.923,0.872-2.025,1.066-3.315c0.171-1.288,0.279-2.824,0.292-4.612c0.012-1.887-0.174-3.437-0.579-4.629
			c-0.414-1.188-1.147-2.104-2.229-2.74c-1.06-0.664-2.501-1.095-4.321-1.331c-1.826-0.237-4.153-0.364-7.019-0.383l-45.621-0.312
			l-0.146,21.371L698.819,169.526z M698.596,202.286c3.321,0.023,6.197-0.014,8.643-0.101c2.42-0.085,4.486-0.294,6.195-0.623
			c1.676-0.326,3.055-0.813,4.09-1.45c1.051-0.628,1.854-1.455,2.448-2.516c0.584-1.043,0.994-2.329,1.201-3.835
			c0.22-1.516,0.341-3.348,0.354-5.481c0.012-1.661-0.086-3.101-0.287-4.335c-0.189-1.24-0.583-2.275-1.154-3.131
			c-0.58-0.847-1.375-1.536-2.418-2.057c-1.027-0.526-2.398-0.945-4.07-1.252c-1.705-0.318-3.768-0.528-6.188-0.65
			c-2.442-0.122-5.317-0.188-8.639-0.211l-39.849-0.272l-0.173,25.644L698.596,202.286z"/>
		<path fill="#F5F5F5" d="M789.797,171.568c4.699,0.031,8.71,0.252,12.067,0.655c3.341,0.409,6.173,1.007,8.464,1.785
			c2.285,0.78,4.125,1.736,5.471,2.873c1.356,1.145,2.406,2.441,3.137,3.89c0.73,1.459,1.214,3.066,1.423,4.861
			c0.214,1.79,0.304,3.732,0.288,5.824c-0.014,2.063-0.213,4.002-0.589,5.816c-0.378,1.814-1.056,3.478-2.021,4.972
			c-0.961,1.496-2.25,2.832-3.9,4.016c-1.641,1.166-3.725,2.15-6.244,2.964c-2.543,0.81-5.573,1.422-9.123,1.824
			c-3.547,0.395-7.689,0.601-12.447,0.568l-11.399-0.078c-4.278-0.028-8.007-0.23-11.196-0.579c-3.217-0.341-5.975-0.856-8.281-1.55
			c-2.309-0.674-4.216-1.538-5.721-2.576c-1.51-1.022-2.713-2.234-3.607-3.627c-0.896-1.386-1.504-2.963-1.869-4.734
			c-0.342-1.76-0.504-3.713-0.489-5.862l8.55,0.06c-0.02,2.725,0.349,4.844,1.115,6.396c0.754,1.532,2.025,2.702,3.805,3.477
			c1.771,0.788,4.111,1.283,7,1.499c2.901,0.219,6.463,0.329,10.742,0.358l11.402,0.077c4.984,0.034,9.121-0.171,12.422-0.62
			c3.289-0.458,5.928-1.203,7.893-2.241c1.982-1.024,3.367-2.389,4.172-4.064c0.808-1.691,1.229-3.734,1.245-6.152
			c0.017-2.429-0.245-4.446-0.782-6.064c-0.533-1.617-1.604-2.912-3.229-3.886c-1.603-0.96-3.887-1.646-6.818-2.075
			c-2.934-0.419-6.771-0.657-11.526-0.689l-11.753-0.08c-5.214-0.035-9.684-0.256-13.416-0.662
			c-3.729-0.421-6.835-1.002-9.352-1.737c-2.526-0.744-4.539-1.661-6.048-2.753c-1.489-1.1-2.636-2.343-3.411-3.742
			c-0.777-1.398-1.296-2.957-1.506-4.656c-0.231-1.717-0.34-3.558-0.327-5.549c0.015-2.08,0.219-4.006,0.596-5.798
			c0.385-1.769,1.098-3.37,2.105-4.811c1.021-1.424,2.413-2.695,4.171-3.815c1.762-1.109,4.007-2.042,6.762-2.78
			c2.752-0.738,6.055-1.283,9.905-1.646c3.868-0.361,8.413-0.516,13.636-0.48l8.536,0.058c4.287,0.03,8.017,0.202,11.229,0.547
			c3.197,0.326,5.949,0.831,8.26,1.518c2.32,0.678,4.237,1.521,5.748,2.536c1.529,1.005,2.742,2.194,3.629,3.578
			c0.891,1.394,1.514,2.964,1.857,4.71c0.338,1.75,0.512,3.702,0.496,5.843l-8.542-0.058c0.019-2.682-0.347-4.768-1.112-6.287
			c-0.773-1.52-2.035-2.664-3.815-3.438c-1.767-0.766-4.11-1.259-7.009-1.474c-2.924-0.211-6.502-0.318-10.79-0.348l-8.536-0.058
			c-5.701-0.039-10.376,0.112-14.08,0.496c-3.676,0.378-6.596,1.027-8.723,1.965c-2.134,0.937-3.643,2.194-4.467,3.8
			c-0.867,1.586-1.29,3.59-1.307,6.001c-0.01,1.478,0.087,2.805,0.293,3.965c0.197,1.154,0.605,2.181,1.242,3.053
			c0.629,0.885,1.518,1.621,2.668,2.221c1.164,0.601,2.688,1.11,4.588,1.503c1.899,0.391,4.223,0.688,6.963,0.859
			c2.742,0.196,6.003,0.299,9.805,0.325L789.797,171.568z"/>
		<path fill="#F5F5F5" d="M837.037,210.345l0.467-68.369l68.391,0.465l-0.049,7.122l-59.83-0.407l-0.156,22.794l56.977,0.389
			l-0.047,7.115l-56.979-0.389l-0.164,24.224l59.83,0.407l-0.049,7.114L837.037,210.345z"/>
		<path fill="#F5F5F5" d="M997.455,211.437l-8.563-0.058l0.088-12.813c0.015-2.078-0.008-3.869-0.068-5.367
			c-0.064-1.503-0.313-2.783-0.738-3.858c-0.414-1.068-1.091-1.93-2.004-2.591c-0.92-0.667-2.232-1.176-3.908-1.545
			c-1.691-0.363-3.836-0.621-6.432-0.783c-2.596-0.15-5.797-0.237-9.576-0.264l-38.431-0.261l-0.183,27.063l-8.547-0.057
			l0.465-68.371l48.382,0.329c5.229,0.035,9.627,0.256,13.204,0.649c3.557,0.395,6.513,0.972,8.844,1.729
			c2.316,0.761,4.117,1.69,5.371,2.788c1.248,1.112,2.168,2.408,2.72,3.904c0.591,1.483,0.907,3.146,1,4.984
			c0.091,1.844,0.123,3.874,0.107,6.093c-0.021,2.854-0.229,5.357-0.632,7.507c-0.431,2.144-1.122,3.97-2.07,5.48
			c-0.965,1.513-2.23,2.704-3.805,3.604c-1.594,0.893-3.559,1.508-5.943,1.842c2.379,0.381,4.265,1.015,5.693,1.904
			c1.4,0.916,2.509,2.078,3.261,3.503c0.767,1.438,1.258,3.129,1.507,5.09c0.245,1.964,0.36,4.191,0.343,6.686L997.455,211.437z
			 M927.873,176.781l39.834,0.271c3.805,0.026,6.998-0.021,9.595-0.133c2.612-0.123,4.758-0.358,6.44-0.7
			c1.693-0.339,3-0.834,3.932-1.483c0.92-0.645,1.609-1.506,2.046-2.563c0.446-1.062,0.702-2.345,0.792-3.848
			c0.077-1.495,0.125-3.282,0.141-5.372c0.012-1.918-0.013-3.578-0.07-4.977c-0.07-1.398-0.312-2.568-0.739-3.527
			c-0.427-0.953-1.103-1.711-2.016-2.286c-0.923-0.563-2.224-1.011-3.913-1.339c-1.677-0.324-3.82-0.532-6.432-0.644
			c-2.594-0.105-5.785-0.171-9.592-0.196l-39.834-0.271L927.873,176.781z"/>
		<path fill="#F5F5F5" d="M1085.652,143.663l8.809,0.061l-36.346,68.126l-12.527-0.085l-35.438-68.614l9.918,0.067l32.377,62.876
			L1085.652,143.663z"/>
		<path fill="#F5F5F5" d="M1109.299,143.823l8.535,0.06l-0.467,68.371l-8.532-0.06L1109.299,143.823z"/>
		<path fill="#F5F5F5" d="M1145.288,212.442l-8.545-0.058l0.464-68.37l15.004,0.101l62.265,60.26l0.405-59.832l8.559,0.058
			l-0.464,68.371l-11.413-0.078l-65.858-61.699L1145.288,212.442z"/>
		<path fill="#F5F5F5" d="M1316.782,166.6c0.025-3.549-0.351-6.385-1.112-8.461c-0.75-2.089-2.009-3.666-3.785-4.75
			c-1.787-1.075-4.121-1.774-7.031-2.09c-2.897-0.314-6.474-0.479-10.766-0.507l-22.864-0.155c-3.805-0.026-7.001,0.055-9.607,0.258
			c-2.597,0.21-4.751,0.639-6.439,1.316c-1.689,0.665-3.005,1.639-3.935,2.914c-0.936,1.262-1.605,2.947-2.043,5.052
			c-0.427,2.116-0.676,4.698-0.768,7.771c-0.08,3.066-0.127,6.741-0.157,11.014c-0.028,4.263-0.009,7.944,0.026,11.016
			c0.063,3.073,0.297,5.658,0.693,7.771c0.396,2.107,1.052,3.803,1.935,5.087c0.909,1.281,2.202,2.279,3.882,2.968
			c1.682,0.688,3.828,1.161,6.422,1.401c2.604,0.242,5.798,0.375,9.604,0.401l22.917,0.155c3.318,0.022,6.186-0.047,8.594-0.212
			c2.396-0.164,4.454-0.479,6.149-0.932c1.691-0.467,3.058-1.104,4.107-1.939c1.038-0.815,1.855-1.859,2.452-3.118
			c0.587-1.257,0.982-2.766,1.208-4.534c0.221-1.761,0.339-3.825,0.354-6.204l0.029-4.279l-34.283-0.233l0.049-7.116l42.82,0.292
			l-0.078,11.395c-0.018,2.846-0.2,5.422-0.579,7.715c-0.381,2.298-1.015,4.351-1.931,6.135c-0.919,1.784-2.147,3.332-3.674,4.619
			c-1.511,1.312-3.429,2.363-5.753,3.2c-2.331,0.819-5.093,1.435-8.296,1.812c-3.212,0.375-6.946,0.552-11.217,0.522l-22.918-0.155
			c-5.238-0.036-9.627-0.397-13.206-1.054c-3.563-0.658-6.5-1.639-8.806-2.949c-2.307-1.304-4.088-2.938-5.334-4.921
			c-1.25-1.957-2.152-4.265-2.72-6.911c-0.562-2.645-0.87-5.631-0.94-8.948c-0.063-3.326-0.08-7.009-0.053-11.042
			c0.027-4.036,0.096-7.719,0.203-11.046c0.115-3.322,0.467-6.298,1.061-8.934c0.602-2.633,1.537-4.934,2.815-6.879
			c1.272-1.954,3.077-3.564,5.399-4.835c2.322-1.275,5.275-2.23,8.845-2.836c3.589-0.613,7.98-0.899,13.22-0.863l22.864,0.155
			c4.292,0.028,8.021,0.249,11.227,0.671c3.201,0.415,5.953,1.053,8.252,1.883c2.316,0.83,4.236,1.88,5.755,3.131
			c1.519,1.256,2.728,2.734,3.622,4.433c0.893,1.694,1.499,3.62,1.85,5.753c0.349,2.138,0.496,4.514,0.479,7.123L1316.782,166.6z"/>
	</g>
	<g>
		<path fill="#F5F5F5" d="M590.682,293.786c4.699,0.032,8.713,0.253,12.057,0.662c3.352,0.416,6.176,1.002,8.475,1.782
			c2.287,0.768,4.119,1.735,5.475,2.877c1.354,1.135,2.401,2.436,3.132,3.891c0.743,1.45,1.2,3.066,1.411,4.865
			c0.209,1.783,0.316,3.726,0.303,5.806c-0.015,2.068-0.217,4.015-0.604,5.831c-0.374,1.811-1.06,3.471-2.007,4.97
			c-0.961,1.498-2.26,2.84-3.898,4.004c-1.654,1.175-3.728,2.157-6.26,2.976c-2.529,0.803-5.571,1.418-9.121,1.821
			c-3.539,0.403-7.697,0.591-12.438,0.558l-11.387-0.078c-4.287-0.029-8.021-0.223-11.222-0.566
			c-3.218-0.344-5.96-0.852-8.267-1.549c-2.32-0.669-4.219-1.543-5.737-2.586c-1.507-1.023-2.696-2.231-3.589-3.62
			c-0.906-1.388-1.52-2.959-1.881-4.736c-0.333-1.763-0.494-3.711-0.48-5.862l8.549,0.059c-0.018,2.727,0.343,4.853,1.105,6.396
			c0.768,1.539,2.027,2.697,3.806,3.483c1.779,0.782,4.12,1.279,7.011,1.497c2.875,0.209,6.467,0.33,10.753,0.359l11.388,0.077
			c4.977,0.033,9.123-0.176,12.413-0.623c3.302-0.459,5.929-1.199,7.904-2.235c1.97-1.034,3.352-2.389,4.162-4.068
			c0.812-1.692,1.227-3.739,1.242-6.165c0.018-2.425-0.245-4.439-0.772-6.058c-0.55-1.623-1.621-2.91-3.213-3.876
			c-1.627-0.965-3.909-1.654-6.829-2.075c-2.935-0.429-6.782-0.662-11.529-0.694l-11.751-0.08c-5.222-0.035-9.695-0.26-13.413-0.666
			c-3.731-0.407-6.842-0.991-9.362-1.735c-2.52-0.739-4.53-1.664-6.037-2.75c-1.494-1.102-2.637-2.346-3.416-3.747
			c-0.779-1.399-1.291-2.956-1.518-4.652c-0.223-1.726-0.327-3.56-0.314-5.553c0.016-2.078,0.217-4.003,0.592-5.785
			c0.379-1.77,1.095-3.378,2.121-4.81c1.01-1.439,2.395-2.713,4.137-3.825c1.771-1.115,4.019-2.051,6.783-2.784
			c2.752-0.731,6.056-1.283,9.912-1.639c3.859-0.362,8.396-0.524,13.615-0.489l8.563,0.06c4.264,0.028,8.018,0.207,11.211,0.544
			c3.203,0.328,5.961,0.838,8.279,1.524c2.293,0.673,4.213,1.527,5.734,2.535c1.52,1.002,2.73,2.19,3.627,3.589
			c0.895,1.376,1.52,2.944,1.858,4.696c0.349,1.761,0.516,3.7,0.5,5.838l-8.556-0.059c0.019-2.671-0.355-4.764-1.111-6.282
			c-0.755-1.512-2.023-2.661-3.803-3.428c-1.779-0.766-4.129-1.265-7.023-1.479c-2.897-0.213-6.502-0.328-10.766-0.356l-8.563-0.06
			c-5.678-0.039-10.375,0.123-14.051,0.497c-3.693,0.387-6.61,1.035-8.738,1.971c-2.156,0.937-3.643,2.206-4.488,3.796
			c-0.83,1.594-1.268,3.596-1.284,6.004c-0.011,1.479,0.083,2.806,0.288,3.959c0.191,1.168,0.609,2.181,1.248,3.068
			c0.617,0.878,1.517,1.611,2.685,2.217c1.134,0.598,2.669,1.107,4.572,1.495c1.882,0.393,4.207,0.691,6.944,0.879
			c2.754,0.18,6.017,0.282,9.822,0.307L590.682,293.786z"/>
		<path fill="#F5F5F5" d="M635.534,264.175l11.411,0.078l31.108,33.677l31.551-33.251l11.402,0.078l-38.735,39.622l-0.193,28.496
			l-8.549-0.06l0.194-28.494L635.534,264.175z"/>
		<path fill="#F5F5F5" d="M781.494,295.085c4.68,0.032,8.705,0.253,12.037,0.661c3.371,0.416,6.184,1.002,8.479,1.782
			c2.294,0.769,4.118,1.735,5.487,2.878c1.341,1.134,2.4,2.436,3.12,3.89c0.726,1.45,1.196,3.067,1.419,4.865
			c0.213,1.783,0.306,3.726,0.291,5.807c-0.014,2.067-0.216,4.015-0.604,5.831c-0.376,1.81-1.058,3.471-2.007,4.97
			c-0.959,1.497-2.247,2.839-3.901,4.004c-1.637,1.174-3.714,2.157-6.245,2.976c-2.527,0.802-5.573,1.417-9.119,1.822
			c-3.547,0.402-7.694,0.589-12.448,0.557l-11.392-0.078c-4.273-0.029-8.006-0.223-11.219-0.566c-3.208-0.344-5.946-0.853-8.27-1.55
			c-2.304-0.669-4.215-1.542-5.723-2.585c-1.507-1.024-2.707-2.232-3.604-3.621c-0.898-1.386-1.516-2.959-1.869-4.735
			c-0.34-1.764-0.5-3.712-0.485-5.861l8.544,0.057c-0.018,2.727,0.354,4.853,1.123,6.397c0.76,1.539,2.031,2.696,3.803,3.482
			c1.765,0.782,4.111,1.279,6.997,1.498c2.899,0.21,6.479,0.329,10.749,0.358L778.052,328c4.987,0.034,9.136-0.175,12.424-0.621
			c3.302-0.461,5.926-1.201,7.894-2.237c1.967-1.034,3.362-2.388,4.16-4.067c0.822-1.692,1.236-3.739,1.251-6.165
			c0.018-2.425-0.241-4.439-0.779-6.058c-0.526-1.623-1.614-2.911-3.215-3.876c-1.623-0.966-3.889-1.654-6.831-2.076
			c-2.932-0.427-6.768-0.661-11.51-0.694l-11.756-0.08c-5.234-0.034-9.709-0.259-13.426-0.665c-3.723-0.407-6.838-0.991-9.359-1.736
			c-2.52-0.739-4.52-1.664-6.025-2.749c-1.514-1.102-2.654-2.347-3.44-3.747c-0.767-1.4-1.272-2.957-1.497-4.651
			c-0.219-1.727-0.335-3.562-0.321-5.555c0.015-2.078,0.221-4.003,0.602-5.784c0.376-1.771,1.091-3.378,2.11-4.811
			c1.01-1.439,2.392-2.712,4.157-3.825c1.763-1.113,4.007-2.049,6.761-2.783c2.753-0.732,6.054-1.283,9.918-1.64
			c3.854-0.362,8.396-0.523,13.624-0.489l8.55,0.06c4.271,0.029,8.004,0.208,11.205,0.546c3.206,0.326,5.978,0.836,8.282,1.524
			c2.306,0.672,4.214,1.525,5.746,2.533c1.522,1.003,2.722,2.192,3.627,3.589c0.886,1.376,1.507,2.945,1.86,4.697
			c0.354,1.76,0.501,3.701,0.487,5.838l-8.548-0.059c0.02-2.671-0.342-4.764-1.124-6.283c-0.748-1.511-2.019-2.66-3.8-3.428
			c-1.768-0.766-4.113-1.265-7.011-1.479c-2.913-0.213-6.502-0.328-10.774-0.357l-8.55-0.059
			c-5.696-0.039-10.391,0.123-14.067,0.496c-3.693,0.388-6.594,1.035-8.74,1.972c-2.141,0.937-3.643,2.207-4.484,3.796
			c-0.835,1.593-1.27,3.596-1.286,6.004c-0.01,1.479,0.087,2.806,0.288,3.959c0.205,1.168,0.621,2.181,1.26,3.067
			c0.617,0.878,1.519,1.612,2.658,2.218c1.15,0.597,2.687,1.107,4.598,1.494c1.884,0.395,4.208,0.692,6.943,0.879
			c2.748,0.181,6.021,0.282,9.826,0.307L781.494,295.085z"/>
		<path fill="#F5F5F5" d="M903.27,265.997l-0.047,7.129l-34.191-0.233l-0.417,61.251l-8.558-0.058l0.416-61.251l-34.18-0.233
			l0.049-7.128L903.27,265.997z"/>
		<path fill="#F5F5F5" d="M919.32,334.488l0.465-68.379l68.371,0.466l-0.051,7.129l-59.82-0.407l-0.156,22.785l56.979,0.389
			l-0.048,7.121l-56.978-0.389l-0.166,24.222l59.82,0.407l-0.047,7.121L919.32,334.488z"/>
		<path fill="#F5F5F5" d="M1010.349,272.429l-0.427,62.677l-8.56-0.059l0.466-68.379l13.749,0.094l39.433,60.109l40.275-59.566
			l14.089,0.095l-0.466,68.38l-8.535-0.059l0.422-61.745l-41.018,61.47l-8.645-0.06L1010.349,272.429z"/>
	</g>
</g>
<g>
	<path fill="#F5F5F5" d="M537.199,426.78v-43.062h3.874v39.368h16.485v3.693H537.199z"/>
	<path fill="#F5F5F5" d="M561.877,388.644v-4.925h4.295v4.925H561.877z M562.178,426.78v-30.749h3.693v30.749H562.178z"/>
	<path fill="#F5F5F5" d="M594.092,418.973c0,1.241-0.25,2.377-0.75,3.408c-0.501,1.031-1.182,1.918-2.042,2.657
		c-0.861,0.741-1.857,1.317-2.988,1.728c-1.132,0.41-2.317,0.615-3.558,0.615h-2.463c-1.242,0-2.428-0.235-3.559-0.706
		c-1.131-0.47-2.122-1.115-2.973-1.937c-0.852-0.82-1.531-1.781-2.042-2.883c-0.511-1.101-0.767-2.271-0.767-3.513v-1.231
		l3.694-0.601v2.042c0,0.74,0.155,1.437,0.466,2.086c0.31,0.651,0.725,1.217,1.246,1.697c0.52,0.48,1.121,0.861,1.801,1.142
		c0.681,0.28,1.392,0.42,2.133,0.42h2.463c0.74,0,1.45-0.109,2.131-0.331c0.681-0.22,1.287-0.534,1.817-0.945
		c0.53-0.41,0.95-0.905,1.261-1.486c0.311-0.58,0.466-1.241,0.466-1.982c0-1.1-0.24-2.001-0.721-2.702
		c-0.48-0.7-1.116-1.285-1.907-1.757c-0.791-0.47-1.691-0.859-2.702-1.171c-1.011-0.31-2.048-0.62-3.108-0.931
		s-2.097-0.665-3.107-1.066c-1.012-0.4-1.912-0.925-2.703-1.576c-0.791-0.65-1.426-1.466-1.906-2.447
		c-0.48-0.98-0.721-2.201-0.721-3.664c0-1.24,0.24-2.376,0.721-3.407s1.131-1.917,1.951-2.658c0.821-0.74,1.777-1.315,2.868-1.727
		c1.091-0.41,2.257-0.616,3.498-0.616h2.163c1.24,0,2.412,0.236,3.513,0.706c1.101,0.471,2.062,1.116,2.883,1.938
		c0.82,0.821,1.466,1.782,1.937,2.883s0.706,2.271,0.706,3.513v0.12l-3.694,0.601v-0.931c0-0.74-0.14-1.437-0.42-2.087
		s-0.66-1.216-1.141-1.696c-0.48-0.481-1.047-0.86-1.697-1.142c-0.65-0.28-1.346-0.42-2.086-0.42h-2.163
		c-0.74,0-1.437,0.109-2.087,0.33s-1.216,0.535-1.696,0.945c-0.48,0.411-0.86,0.906-1.142,1.486c-0.28,0.581-0.42,1.242-0.42,1.982
		c0,1.062,0.24,1.927,0.721,2.598s1.115,1.236,1.906,1.696c0.791,0.461,1.691,0.847,2.703,1.156
		c1.011,0.311,2.042,0.631,3.093,0.961s2.082,0.706,3.093,1.126c1.011,0.421,1.912,0.961,2.703,1.621
		c0.791,0.661,1.426,1.487,1.906,2.479C593.852,416.285,594.092,417.512,594.092,418.973z"/>
	<path fill="#F5F5F5" d="M610.842,426.78c-1.121,0-2.178-0.21-3.168-0.63c-0.99-0.421-1.852-1.002-2.582-1.742
		c-0.731-0.74-1.313-1.602-1.742-2.582c-0.431-0.981-0.646-2.032-0.646-3.153v-19.128h-5.525v-3.514h5.525v-7.388l3.694-0.601v7.988
		h7.807v3.514h-7.807v19.309c0,0.62,0.114,1.196,0.344,1.726c0.23,0.53,0.546,0.997,0.947,1.397c0.4,0.399,0.87,0.715,1.41,0.945
		c0.541,0.23,1.121,0.346,1.742,0.346h3.363v3.513H610.842z"/>
	<path fill="#F5F5F5" d="M639.289,421.855c-0.471,1.102-1.117,2.063-1.938,2.883c-0.821,0.821-1.782,1.467-2.883,1.937
		c-1.102,0.471-2.272,0.706-3.514,0.706h-2.462c-1.241,0-2.413-0.235-3.514-0.706c-1.101-0.47-2.062-1.115-2.883-1.937
		c-0.821-0.82-1.467-1.781-1.937-2.883c-0.471-1.101-0.706-2.271-0.706-3.513v-13.874c0-1.241,0.235-2.412,0.706-3.513
		c0.47-1.101,1.115-2.062,1.937-2.883s1.782-1.467,2.883-1.938c1.101-0.47,2.272-0.706,3.514-0.706h2.462
		c1.241,0,2.412,0.236,3.514,0.706c1.101,0.471,2.062,1.116,2.883,1.938c0.82,0.821,1.467,1.782,1.938,2.883
		c0.469,1.101,0.705,2.271,0.705,3.513v7.236h-16.846v6.848c0,0.74,0.14,1.437,0.42,2.086c0.279,0.651,0.66,1.217,1.141,1.697
		s1.047,0.861,1.697,1.142s1.346,0.42,2.087,0.42h2.462c0.74,0,1.437-0.14,2.087-0.42c0.651-0.28,1.217-0.661,1.696-1.142
		c0.48-0.48,0.861-1.046,1.142-1.697c0.28-0.649,0.421-1.346,0.421-2.086v-2.042l3.693,0.601v1.231
		C639.994,419.584,639.758,420.755,639.289,421.855z M636.301,404.259c0-0.74-0.141-1.437-0.421-2.087s-0.661-1.216-1.142-1.696
		c-0.479-0.481-1.045-0.86-1.696-1.142c-0.65-0.28-1.347-0.42-2.087-0.42h-2.462c-0.741,0-1.437,0.14-2.087,0.42
		c-0.65,0.281-1.217,0.66-1.697,1.142c-0.48,0.48-0.861,1.046-1.141,1.696c-0.28,0.65-0.42,1.347-0.42,2.087v4.564h13.152V404.259z"
		/>
	<path fill="#F5F5F5" d="M662.689,426.78v-22.521c0-0.74-0.141-1.437-0.42-2.087c-0.281-0.65-0.661-1.216-1.142-1.696
		c-0.479-0.481-1.046-0.86-1.696-1.142c-0.65-0.28-1.347-0.42-2.087-0.42h-2.462c-0.742,0-1.438,0.14-2.088,0.42
		c-0.65,0.281-1.217,0.66-1.696,1.142c-0.48,0.48-0.861,1.046-1.142,1.696s-0.42,1.347-0.42,2.087v22.521h-3.693v-30.749h1.23
		l2.012,3.123c0.842-1.142,1.896-2.047,3.169-2.718c1.271-0.671,2.657-1.007,4.159-1.007h0.931c1.241,0,2.411,0.236,3.513,0.706
		c1.102,0.471,2.063,1.116,2.883,1.938s1.467,1.782,1.938,2.883c0.47,1.101,0.705,2.271,0.705,3.513v22.312H662.689z"/>
	<path fill="#F5F5F5" d="M673.164,388.644v-4.925h4.293v4.925H673.164z M673.464,426.78v-30.749h3.693v30.749H673.464z"/>
	<path fill="#F5F5F5" d="M701.084,426.78v-22.521c0-0.74-0.141-1.437-0.42-2.087c-0.281-0.65-0.661-1.216-1.141-1.696
		c-0.48-0.481-1.047-0.86-1.697-1.142c-0.65-0.28-1.347-0.42-2.087-0.42h-2.462c-0.741,0-1.438,0.14-2.088,0.42
		c-0.65,0.281-1.216,0.66-1.696,1.142c-0.48,0.48-0.86,1.046-1.142,1.696c-0.279,0.65-0.42,1.347-0.42,2.087v22.521h-3.693v-30.749
		h1.23l2.013,3.123c0.841-1.142,1.896-2.047,3.168-2.718c1.271-0.671,2.657-1.007,4.159-1.007h0.931
		c1.241,0,2.411,0.236,3.513,0.706c1.102,0.471,2.063,1.116,2.883,1.938c0.821,0.821,1.467,1.782,1.938,2.883
		c0.47,1.101,0.705,2.271,0.705,3.513v22.312H701.084z"/>
	<path fill="#F5F5F5" d="M730.762,434.077c-0.471,1.041-1.117,1.932-1.938,2.673c-0.82,0.74-1.781,1.316-2.883,1.727
		c-1.101,0.41-2.271,0.615-3.513,0.615h-1.532c-1.24,0-2.412-0.205-3.513-0.615c-1.102-0.41-2.063-0.986-2.883-1.727
		c-0.821-0.741-1.467-1.632-1.937-2.673c-0.471-1.041-0.706-2.182-0.706-3.423v-0.12c0-1.201,0.22-2.303,0.661-3.304
		c0.439-1.001,1.04-1.871,1.801-2.612c-0.961-0.58-1.727-1.366-2.297-2.357c-0.57-0.99-0.855-2.087-0.855-3.288
		c0-1.081,0.229-2.087,0.69-3.018c0.46-0.931,1.091-1.687,1.892-2.268c-0.961-0.84-1.722-1.851-2.281-3.032
		c-0.562-1.182-0.842-2.473-0.842-3.874v-2.313c0-1.241,0.235-2.412,0.706-3.513c0.47-1.101,1.116-2.062,1.937-2.883
		s1.781-1.467,2.883-1.938c1.101-0.47,2.271-0.706,3.514-0.706h1.531c1.502,0,2.888,0.336,4.159,1.007
		c1.271,0.671,2.327,1.576,3.168,2.718l2.013-3.123h1.23v10.75c0,1.242-0.235,2.412-0.706,3.514
		c-0.47,1.101-1.116,2.062-1.937,2.882c-0.821,0.821-1.782,1.468-2.883,1.938c-1.102,0.471-2.272,0.706-3.514,0.706h-5.345
		c-0.421,0-0.821,0.085-1.201,0.255s-0.716,0.396-1.007,0.676c-0.289,0.28-0.516,0.615-0.675,1.006
		c-0.161,0.391-0.24,0.796-0.24,1.216c0,0.421,0.079,0.821,0.24,1.201c0.159,0.381,0.386,0.716,0.675,1.006
		c0.291,0.291,0.627,0.516,1.007,0.676s0.78,0.24,1.201,0.24h5.045c1.241,0,2.412,0.206,3.513,0.616
		c1.102,0.41,2.063,0.986,2.883,1.726c0.82,0.741,1.467,1.633,1.938,2.674c0.47,1.04,0.705,2.181,0.705,3.423v0.12
		C731.467,431.896,731.231,433.036,730.762,434.077z M728.104,404.259c0-0.74-0.14-1.437-0.42-2.087
		c-0.281-0.65-0.666-1.216-1.156-1.696c-0.49-0.481-1.062-0.86-1.711-1.142c-0.651-0.28-1.348-0.42-2.088-0.42h-3.063
		c-0.741,0-1.438,0.14-2.087,0.42c-0.651,0.281-1.216,0.66-1.696,1.142c-0.48,0.48-0.861,1.046-1.142,1.696
		s-0.421,1.347-0.421,2.087v2.733c0,0.74,0.141,1.436,0.421,2.086c0.28,0.651,0.661,1.217,1.142,1.697s1.045,0.86,1.696,1.141
		c0.649,0.281,1.346,0.421,2.087,0.421h3.063c0.74,0,1.437-0.14,2.088-0.421c0.649-0.28,1.221-0.66,1.711-1.141
		s0.875-1.046,1.156-1.697c0.28-0.65,0.42-1.346,0.42-2.086V404.259z M727.953,430.354c0-0.74-0.14-1.406-0.42-1.996
		c-0.28-0.592-0.66-1.087-1.141-1.487c-0.48-0.399-1.047-0.71-1.697-0.931s-1.346-0.33-2.086-0.33h-1.893
		c-0.741,0-1.437,0.109-2.087,0.33s-1.216,0.531-1.696,0.931c-0.48,0.4-0.861,0.896-1.142,1.487c-0.28,0.59-0.421,1.256-0.421,1.996
		v0.48c0,0.74,0.141,1.4,0.421,1.982c0.28,0.58,0.661,1.076,1.142,1.486s1.046,0.726,1.696,0.945c0.65,0.221,1.346,0.33,2.087,0.33
		h1.893c0.74,0,1.436-0.109,2.086-0.33c0.65-0.22,1.217-0.535,1.697-0.945s0.86-0.906,1.141-1.486c0.28-0.582,0.42-1.242,0.42-1.982
		V430.354z"/>
	<path fill="#F5F5F5" d="M761.304,387.412v39.368h-3.874v-39.368h-10.27v-3.693h24.414v3.693H761.304z"/>
	<path fill="#F5F5F5" d="M792.332,421.855c-0.471,1.102-1.115,2.063-1.936,2.883c-0.822,0.821-1.783,1.467-2.884,1.937
		c-1.101,0.471-2.272,0.706-3.513,0.706h-2.463c-1.241,0-2.412-0.235-3.514-0.706c-1.101-0.47-2.062-1.115-2.883-1.937
		c-0.82-0.82-1.467-1.781-1.937-2.883c-0.47-1.101-0.706-2.271-0.706-3.513v-13.874c0-1.241,0.236-2.412,0.706-3.513
		s1.116-2.062,1.937-2.883c0.821-0.821,1.782-1.467,2.883-1.938c1.102-0.47,2.272-0.706,3.514-0.706H784
		c1.24,0,2.412,0.236,3.513,0.706c1.101,0.471,2.062,1.116,2.884,1.938c0.82,0.821,1.465,1.782,1.936,2.883s0.707,2.271,0.707,3.513
		v13.874C793.039,419.584,792.803,420.755,792.332,421.855z M789.345,404.259c0-0.74-0.141-1.437-0.421-2.087
		c-0.279-0.65-0.66-1.216-1.141-1.696c-0.48-0.481-1.047-0.86-1.697-1.142c-0.65-0.28-1.346-0.42-2.086-0.42h-2.463
		c-0.74,0-1.437,0.14-2.087,0.42c-0.651,0.281-1.216,0.66-1.696,1.142c-0.48,0.48-0.861,1.046-1.141,1.696
		c-0.281,0.65-0.422,1.347-0.422,2.087v14.294c0,0.74,0.141,1.437,0.422,2.086c0.279,0.651,0.66,1.217,1.141,1.697
		s1.045,0.861,1.696,1.142c0.65,0.28,1.347,0.42,2.087,0.42H784c0.74,0,1.436-0.14,2.086-0.42s1.217-0.661,1.697-1.142
		s0.861-1.046,1.141-1.697c0.28-0.649,0.421-1.346,0.421-2.086V404.259z"/>
	<path fill="#F5F5F5" d="M823.175,387.412v39.368h-3.874v-39.368h-10.27v-3.693h24.414v3.693H823.175z"/>
	<path fill="#F5F5F5" d="M853.678,426.78v-22.521c0-0.74-0.14-1.437-0.42-2.087s-0.66-1.216-1.141-1.696
		c-0.48-0.481-1.047-0.86-1.697-1.142c-0.65-0.28-1.346-0.42-2.086-0.42h-2.463c-0.741,0-1.438,0.14-2.087,0.42
		c-0.651,0.281-1.217,0.66-1.696,1.142c-0.48,0.48-0.861,1.046-1.142,1.696s-0.421,1.347-0.421,2.087v22.521h-3.693v-43.062h3.693
		v14.895c0.842-1.001,1.852-1.781,3.033-2.342s2.463-0.842,3.844-0.842h0.932c1.24,0,2.411,0.236,3.513,0.706
		c1.101,0.471,2.062,1.116,2.883,1.938c0.82,0.821,1.466,1.782,1.937,2.883s0.706,2.271,0.706,3.513v22.312H853.678z"/>
	<path fill="#F5F5F5" d="M883.055,421.855c-0.471,1.102-1.115,2.063-1.936,2.883c-0.822,0.821-1.783,1.467-2.883,1.937
		c-1.102,0.471-2.273,0.706-3.514,0.706h-2.463c-1.241,0-2.412-0.235-3.514-0.706c-1.101-0.47-2.062-1.115-2.883-1.937
		c-0.82-0.82-1.467-1.781-1.937-2.883c-0.47-1.101-0.706-2.271-0.706-3.513v-13.874c0-1.241,0.236-2.412,0.706-3.513
		s1.116-2.062,1.937-2.883c0.821-0.821,1.782-1.467,2.883-1.938c1.102-0.47,2.272-0.706,3.514-0.706h2.463
		c1.24,0,2.412,0.236,3.514,0.706c1.1,0.471,2.061,1.116,2.883,1.938c0.82,0.821,1.465,1.782,1.936,2.883s0.707,2.271,0.707,3.513
		v7.236h-16.847v6.848c0,0.74,0.14,1.437,0.421,2.086c0.279,0.651,0.66,1.217,1.141,1.697s1.045,0.861,1.696,1.142
		c0.65,0.28,1.347,0.42,2.087,0.42h2.463c0.74,0,1.436-0.14,2.086-0.42c0.651-0.28,1.217-0.661,1.697-1.142s0.861-1.046,1.141-1.697
		c0.281-0.649,0.421-1.346,0.421-2.086v-2.042l3.694,0.601v1.231C883.762,419.584,883.525,420.755,883.055,421.855z
		 M880.067,404.259c0-0.74-0.14-1.437-0.421-2.087c-0.279-0.65-0.66-1.216-1.141-1.696c-0.48-0.481-1.046-0.86-1.697-1.142
		c-0.65-0.28-1.346-0.42-2.086-0.42h-2.463c-0.74,0-1.437,0.14-2.087,0.42c-0.651,0.281-1.216,0.66-1.696,1.142
		c-0.48,0.48-0.861,1.046-1.141,1.696c-0.281,0.65-0.421,1.347-0.421,2.087v4.564h13.152V404.259z"/>
	<path fill="#F5F5F5" d="M926.855,403.778c-0.551,1.281-1.307,2.402-2.268,3.363s-2.087,1.717-3.378,2.268
		c-1.292,0.55-2.668,0.825-4.13,0.825h-9.759v16.546h-3.874v-43.062h13.633c1.462,0,2.838,0.275,4.13,0.826
		c1.291,0.551,2.417,1.307,3.378,2.268s1.717,2.086,2.268,3.378s0.826,2.668,0.826,4.129v5.345
		C927.682,401.126,927.406,402.497,926.855,403.778z M923.807,394.319c0-0.961-0.18-1.856-0.54-2.688
		c-0.36-0.83-0.855-1.561-1.486-2.191c-0.63-0.631-1.361-1.126-2.192-1.486c-0.83-0.36-1.727-0.541-2.688-0.541h-9.579v19.129h9.579
		c0.961,0,1.857-0.18,2.688-0.541c0.831-0.359,1.563-0.85,2.192-1.471c0.631-0.621,1.126-1.346,1.486-2.178
		c0.36-0.83,0.54-1.727,0.54-2.688V394.319z"/>
	<path fill="#F5F5F5" d="M951.607,426.78l-2.041-3.123c-0.842,1.142-1.893,2.047-3.153,2.718c-1.261,0.67-2.643,1.006-4.144,1.006
		h-0.932c-1.241,0-2.412-0.235-3.514-0.706c-1.101-0.47-2.062-1.115-2.883-1.937c-0.82-0.82-1.467-1.781-1.937-2.883
		c-0.47-1.101-0.706-2.271-0.706-3.513v-22.312h3.694v22.521c0,0.74,0.14,1.437,0.421,2.086c0.279,0.651,0.66,1.217,1.141,1.697
		s1.046,0.861,1.697,1.142c0.649,0.28,1.346,0.42,2.086,0.42h2.463c0.74,0,1.436-0.14,2.087-0.42c0.65-0.28,1.216-0.661,1.696-1.142
		s0.86-1.046,1.141-1.697c0.281-0.649,0.422-1.346,0.422-2.086v-22.521h3.693v30.749H951.607z"/>
	<path fill="#F5F5F5" d="M959.92,426.78v-43.062h3.693v43.062H959.92z"/>
	<path fill="#F5F5F5" d="M991.834,418.973c0,1.241-0.25,2.377-0.75,3.408c-0.502,1.031-1.182,1.918-2.043,2.657
		c-0.86,0.741-1.857,1.317-2.988,1.728s-2.316,0.615-3.558,0.615h-2.463c-1.241,0-2.427-0.235-3.558-0.706
		c-1.132-0.47-2.123-1.115-2.973-1.937c-0.852-0.82-1.532-1.781-2.043-2.883c-0.51-1.101-0.766-2.271-0.766-3.513v-1.231
		l3.693-0.601v2.042c0,0.74,0.156,1.437,0.466,2.086c0.311,0.651,0.726,1.217,1.247,1.697c0.52,0.48,1.121,0.861,1.801,1.142
		c0.681,0.28,1.392,0.42,2.132,0.42h2.463c0.741,0,1.452-0.109,2.132-0.331c0.681-0.22,1.286-0.534,1.817-0.945
		c0.53-0.41,0.95-0.905,1.261-1.486c0.311-0.58,0.465-1.241,0.465-1.982c0-1.1-0.239-2.001-0.721-2.702
		c-0.48-0.7-1.115-1.285-1.906-1.757c-0.791-0.47-1.691-0.859-2.702-1.171c-1.012-0.31-2.048-0.62-3.108-0.931
		s-2.098-0.665-3.107-1.066c-1.012-0.4-1.912-0.925-2.703-1.576c-0.791-0.65-1.426-1.466-1.907-2.447
		c-0.479-0.98-0.72-2.201-0.72-3.664c0-1.24,0.24-2.376,0.72-3.407c0.481-1.031,1.131-1.917,1.952-2.658
		c0.82-0.74,1.776-1.315,2.868-1.727c1.091-0.41,2.257-0.616,3.498-0.616h2.162c1.241,0,2.412,0.236,3.513,0.706
		c1.102,0.471,2.063,1.116,2.883,1.938c0.821,0.821,1.467,1.782,1.938,2.883s0.705,2.271,0.705,3.513v0.12l-3.693,0.601v-0.931
		c0-0.74-0.141-1.437-0.42-2.087c-0.281-0.65-0.661-1.216-1.141-1.696c-0.48-0.481-1.047-0.86-1.697-1.142
		c-0.65-0.28-1.346-0.42-2.087-0.42h-2.162c-0.741,0-1.437,0.109-2.087,0.33s-1.217,0.535-1.697,0.945
		c-0.479,0.411-0.861,0.906-1.141,1.486c-0.28,0.581-0.42,1.242-0.42,1.982c0,1.062,0.24,1.927,0.721,2.598s1.115,1.236,1.906,1.696
		c0.791,0.461,1.691,0.847,2.703,1.156c1.01,0.311,2.041,0.631,3.093,0.961s2.081,0.706,3.093,1.126
		c1.011,0.421,1.912,0.961,2.703,1.621c0.79,0.661,1.426,1.487,1.906,2.479C991.594,416.285,991.834,417.512,991.834,418.973z"/>
	<path fill="#F5F5F5" d="M1017.217,421.855c-0.471,1.102-1.115,2.063-1.937,2.883c-0.821,0.821-1.782,1.467-2.883,1.937
		c-1.101,0.471-2.272,0.706-3.513,0.706h-2.463c-1.24,0-2.412-0.235-3.513-0.706c-1.103-0.47-2.063-1.115-2.883-1.937
		c-0.821-0.82-1.468-1.781-1.938-2.883c-0.471-1.101-0.706-2.271-0.706-3.513v-13.874c0-1.241,0.235-2.412,0.706-3.513
		c0.47-1.101,1.116-2.062,1.938-2.883c0.82-0.821,1.78-1.467,2.883-1.938c1.101-0.47,2.272-0.706,3.513-0.706h2.463
		c1.24,0,2.412,0.236,3.513,0.706c1.101,0.471,2.062,1.116,2.883,1.938s1.466,1.782,1.937,2.883s0.707,2.271,0.707,3.513v7.236
		h-16.848v6.848c0,0.74,0.141,1.437,0.422,2.086c0.279,0.651,0.66,1.217,1.141,1.697s1.046,0.861,1.696,1.142
		c0.649,0.28,1.346,0.42,2.087,0.42h2.463c0.74,0,1.436-0.14,2.087-0.42c0.65-0.28,1.216-0.661,1.696-1.142s0.86-1.046,1.141-1.697
		c0.281-0.649,0.422-1.346,0.422-2.086v-2.042l3.693,0.601v1.231C1017.924,419.584,1017.688,420.755,1017.217,421.855z
		 M1014.23,404.259c0-0.74-0.141-1.437-0.422-2.087c-0.28-0.65-0.66-1.216-1.141-1.696c-0.48-0.481-1.046-0.86-1.696-1.142
		c-0.651-0.28-1.347-0.42-2.087-0.42h-2.463c-0.741,0-1.438,0.14-2.087,0.42c-0.65,0.281-1.216,0.66-1.696,1.142
		c-0.48,0.48-0.861,1.046-1.141,1.696c-0.281,0.65-0.422,1.347-0.422,2.087v4.564h13.154V404.259z"/>
	<path fill="#F5F5F5" d="M1060.387,420.925c-0.551,1.281-1.306,2.402-2.268,3.363c-0.961,0.961-2.082,1.717-3.363,2.268
		c-1.281,0.55-2.652,0.825-4.113,0.825h-3.063c-1.463,0-2.838-0.275-4.129-0.825c-1.291-0.551-2.418-1.307-3.379-2.268
		s-1.717-2.082-2.268-3.363c-0.55-1.281-0.824-2.652-0.824-4.114v-23.121c0-1.462,0.274-2.834,0.824-4.115
		c0.551-1.28,1.307-2.401,2.268-3.362c0.961-0.962,2.088-1.717,3.379-2.268c1.291-0.55,2.666-0.825,4.129-0.825h3.063
		c1.461,0,2.832,0.275,4.113,0.825c1.281,0.551,2.402,1.306,3.363,2.268c0.962,0.961,1.717,2.082,2.268,3.362
		c0.551,1.281,0.826,2.653,0.826,4.115v23.121C1061.213,418.272,1060.938,419.644,1060.387,420.925z M1057.339,393.689
		c0-0.962-0.181-1.857-0.54-2.688c-0.361-0.83-0.852-1.556-1.472-2.177c-0.621-0.621-1.347-1.111-2.177-1.472
		c-0.832-0.36-1.727-0.54-2.688-0.54h-2.702c-0.961,0-1.857,0.18-2.688,0.54c-0.831,0.36-1.563,0.851-2.191,1.472
		c-0.632,0.621-1.127,1.347-1.486,2.177c-0.361,0.831-0.541,1.727-0.541,2.688v23.121c0,0.961,0.18,1.857,0.541,2.688
		c0.359,0.831,0.854,1.563,1.486,2.192c0.629,0.631,1.36,1.126,2.191,1.486c0.83,0.36,1.727,0.54,2.688,0.54h2.702
		c0.962,0,1.856-0.18,2.688-0.54c0.83-0.36,1.556-0.855,2.177-1.486c0.62-0.63,1.11-1.361,1.472-2.192
		c0.359-0.83,0.54-1.727,0.54-2.688V393.689z"/>
	<path fill="#F5F5F5" d="M1078.263,387.232c-0.62,0-1.196,0.115-1.727,0.346s-0.996,0.545-1.396,0.945
		c-0.401,0.401-0.716,0.871-0.946,1.412c-0.23,0.54-0.345,1.121-0.345,1.741v4.354h7.177v3.514h-7.177v27.235h-3.693v-27.235h-5.556
		v-3.514h5.556v-4.174c0-1.121,0.21-2.178,0.63-3.169c0.42-0.99,1.001-1.856,1.742-2.597c0.74-0.741,1.602-1.321,2.582-1.742
		c0.98-0.42,2.032-0.631,3.153-0.631h3.394v3.514H1078.263z"/>
	<path fill="#F5F5F5" d="M1108.1,387.412v39.368h-3.873v-39.368h-10.271v-3.693h24.413v3.693H1108.1z"/>
	<path fill="#F5F5F5" d="M1138.603,426.78v-22.521c0-0.74-0.14-1.437-0.421-2.087c-0.28-0.65-0.66-1.216-1.141-1.696
		c-0.48-0.481-1.047-0.86-1.696-1.142c-0.651-0.28-1.347-0.42-2.087-0.42h-2.463c-0.741,0-1.438,0.14-2.087,0.42
		c-0.65,0.281-1.216,0.66-1.696,1.142c-0.48,0.48-0.861,1.046-1.141,1.696c-0.281,0.65-0.422,1.347-0.422,2.087v22.521h-3.693
		v-43.062h3.693v14.895c0.842-1.001,1.852-1.781,3.033-2.342s2.463-0.842,3.844-0.842h0.932c1.24,0,2.412,0.236,3.514,0.706
		c1.1,0.471,2.061,1.116,2.882,1.938s1.466,1.782,1.937,2.883s0.706,2.271,0.706,3.513v22.312H1138.603z"/>
	<path fill="#F5F5F5" d="M1167.979,421.855c-0.471,1.102-1.116,2.063-1.937,2.883c-0.822,0.821-1.782,1.467-2.883,1.937
		c-1.102,0.471-2.272,0.706-3.514,0.706h-2.463c-1.24,0-2.412-0.235-3.513-0.706c-1.102-0.47-2.063-1.115-2.883-1.937
		c-0.821-0.82-1.467-1.781-1.937-2.883c-0.471-1.101-0.706-2.271-0.706-3.513v-13.874c0-1.241,0.235-2.412,0.706-3.513
		c0.47-1.101,1.115-2.062,1.937-2.883c0.82-0.821,1.781-1.467,2.883-1.938c1.101-0.47,2.272-0.706,3.513-0.706h2.463
		c1.241,0,2.412,0.236,3.514,0.706c1.101,0.471,2.061,1.116,2.883,1.938c0.82,0.821,1.466,1.782,1.937,2.883
		c0.47,1.101,0.706,2.271,0.706,3.513v7.236h-16.847v6.848c0,0.74,0.14,1.437,0.421,2.086c0.279,0.651,0.66,1.217,1.141,1.697
		s1.047,0.861,1.696,1.142c0.65,0.28,1.347,0.42,2.087,0.42h2.463c0.74,0,1.436-0.14,2.088-0.42c0.649-0.28,1.215-0.661,1.695-1.142
		s0.861-1.046,1.141-1.697c0.281-0.649,0.422-1.346,0.422-2.086v-2.042l3.693,0.601v1.231
		C1168.686,419.584,1168.449,420.755,1167.979,421.855z M1164.992,404.259c0-0.74-0.141-1.437-0.422-2.087
		c-0.279-0.65-0.66-1.216-1.141-1.696c-0.48-0.481-1.046-0.86-1.695-1.142c-0.652-0.28-1.348-0.42-2.088-0.42h-2.463
		c-0.74,0-1.437,0.14-2.087,0.42c-0.649,0.281-1.216,0.66-1.696,1.142c-0.48,0.48-0.861,1.046-1.141,1.696
		c-0.281,0.65-0.421,1.347-0.421,2.087v4.564h13.153V404.259z"/>
	<path fill="#F5F5F5" d="M1211.779,403.778c-0.551,1.281-1.307,2.402-2.268,3.363c-0.96,0.961-2.087,1.717-3.378,2.268
		c-1.291,0.55-2.668,0.825-4.128,0.825h-9.76v16.546h-3.874v-43.062h13.634c1.46,0,2.837,0.275,4.128,0.826s2.418,1.307,3.378,2.268
		c0.961,0.961,1.717,2.086,2.268,3.378s0.826,2.668,0.826,4.129v5.345C1212.605,401.126,1212.33,402.497,1211.779,403.778z
		 M1208.732,394.319c0-0.961-0.181-1.856-0.541-2.688c-0.36-0.83-0.855-1.561-1.487-2.191c-0.63-0.631-1.36-1.126-2.192-1.486
		c-0.83-0.36-1.727-0.541-2.687-0.541h-9.579v19.129h9.579c0.96,0,1.856-0.18,2.687-0.541c0.832-0.359,1.563-0.85,2.192-1.471
		c0.632-0.621,1.127-1.346,1.487-2.178c0.36-0.83,0.541-1.727,0.541-2.688V394.319z"/>
	<path fill="#F5F5F5" d="M1218.455,426.78v-43.062h3.693v43.062H1218.455z"/>
	<path fill="#F5F5F5" d="M1248.537,426.78l-2.041-3.063c-0.842,1.102-1.893,1.987-3.152,2.658c-1.262,0.67-2.644,1.006-4.145,1.006
		h-0.932c-1.24,0-2.412-0.235-3.513-0.706c-1.102-0.47-2.063-1.115-2.883-1.937c-0.821-0.82-1.468-1.781-1.937-2.883
		c-0.472-1.101-0.707-2.271-0.707-3.513v-0.301c0-1.241,0.235-2.412,0.707-3.513c0.469-1.102,1.115-2.063,1.937-2.884
		c0.82-0.82,1.781-1.466,2.883-1.937c1.101-0.471,2.272-0.705,3.513-0.705h7.809v-4.745c0-0.74-0.141-1.437-0.422-2.087
		c-0.28-0.65-0.66-1.216-1.141-1.696c-0.48-0.481-1.046-0.86-1.696-1.142c-0.651-0.28-1.347-0.42-2.087-0.42h-2.162
		c-0.741,0-1.438,0.14-2.087,0.42c-0.651,0.281-1.217,0.66-1.696,1.142c-0.48,0.48-0.861,1.046-1.143,1.696
		c-0.28,0.65-0.42,1.347-0.42,2.087v1.111l-3.693-0.601v-0.301c0-1.241,0.235-2.412,0.706-3.513c0.47-1.101,1.115-2.062,1.937-2.883
		s1.781-1.467,2.883-1.938c1.102-0.47,2.271-0.706,3.514-0.706h2.162c1.24,0,2.412,0.236,3.513,0.706
		c1.101,0.471,2.062,1.116,2.883,1.938s1.466,1.782,1.938,2.883c0.47,1.101,0.706,2.271,0.706,3.513v22.312H1248.537z
		 M1246.076,411.886h-7.809c-0.74,0-1.437,0.141-2.087,0.421c-0.65,0.281-1.216,0.666-1.696,1.156s-0.861,1.061-1.141,1.711
		c-0.281,0.651-0.422,1.347-0.422,2.088v1.291c0,0.74,0.141,1.437,0.422,2.086c0.279,0.651,0.66,1.217,1.141,1.697
		s1.046,0.861,1.696,1.142s1.347,0.42,2.087,0.42h2.463c0.74,0,1.436-0.14,2.087-0.42c0.65-0.28,1.216-0.661,1.696-1.142
		s0.86-1.046,1.141-1.697c0.281-0.649,0.422-1.346,0.422-2.086V411.886z"/>
	<path fill="#F5F5F5" d="M1272.465,426.78v-22.521c0-0.74-0.141-1.437-0.421-2.087s-0.66-1.216-1.142-1.696
		c-0.48-0.481-1.045-0.86-1.695-1.142c-0.651-0.28-1.348-0.42-2.088-0.42h-2.462c-0.741,0-1.438,0.14-2.087,0.42
		c-0.65,0.281-1.217,0.66-1.697,1.142c-0.48,0.48-0.861,1.046-1.141,1.696c-0.281,0.65-0.421,1.347-0.421,2.087v22.521h-3.693
		v-30.749h1.231l2.012,3.123c0.842-1.142,1.896-2.047,3.168-2.718s2.658-1.007,4.159-1.007h0.931c1.241,0,2.412,0.236,3.514,0.706
		c1.101,0.471,2.062,1.116,2.883,1.938c0.82,0.821,1.466,1.782,1.937,2.883c0.47,1.101,0.706,2.271,0.706,3.513v22.312H1272.465z"/>
	<path fill="#F5F5F5" d="M1301.842,421.855c-0.471,1.102-1.116,2.063-1.938,2.883c-0.821,0.821-1.782,1.467-2.883,1.937
		c-1.102,0.471-2.271,0.706-3.514,0.706h-2.461c-1.242,0-2.414-0.235-3.514-0.706c-1.102-0.47-2.063-1.115-2.883-1.937
		c-0.821-0.82-1.467-1.781-1.938-2.883c-0.471-1.101-0.705-2.271-0.705-3.513v-13.874c0-1.241,0.234-2.412,0.705-3.513
		s1.116-2.062,1.938-2.883c0.82-0.821,1.781-1.467,2.883-1.938c1.1-0.47,2.271-0.706,3.514-0.706h2.461
		c1.242,0,2.412,0.236,3.514,0.706c1.101,0.471,2.062,1.116,2.883,1.938s1.467,1.782,1.938,2.883
		c0.47,1.101,0.705,2.271,0.705,3.513v7.236h-16.846v6.848c0,0.74,0.14,1.437,0.42,2.086c0.28,0.651,0.66,1.217,1.141,1.697
		c0.481,0.48,1.047,0.861,1.697,1.142s1.346,0.42,2.088,0.42h2.461c0.741,0,1.437-0.14,2.088-0.42
		c0.65-0.28,1.216-0.661,1.696-1.142s0.86-1.046,1.141-1.697c0.281-0.649,0.421-1.346,0.421-2.086v-2.042l3.693,0.601v1.231
		C1302.547,419.584,1302.312,420.755,1301.842,421.855z M1298.854,404.259c0-0.74-0.14-1.437-0.421-2.087
		c-0.28-0.65-0.66-1.216-1.141-1.696c-0.48-0.481-1.046-0.86-1.696-1.142c-0.651-0.28-1.347-0.42-2.088-0.42h-2.461
		c-0.742,0-1.438,0.14-2.088,0.42c-0.65,0.281-1.216,0.66-1.697,1.142c-0.48,0.48-0.86,1.046-1.141,1.696s-0.42,1.347-0.42,2.087
		v4.564h13.152V404.259z"/>
	<path fill="#F5F5F5" d="M1319.598,426.78c-1.122,0-2.178-0.21-3.169-0.63c-0.99-0.421-1.852-1.002-2.582-1.742
		s-1.312-1.602-1.741-2.582c-0.431-0.981-0.646-2.032-0.646-3.153v-19.128h-5.524v-3.514h5.524v-7.388l3.693-0.601v7.988h7.808
		v3.514h-7.808v19.309c0,0.62,0.116,1.196,0.346,1.726c0.23,0.53,0.546,0.997,0.946,1.397c0.399,0.399,0.871,0.715,1.411,0.945
		c0.541,0.23,1.121,0.346,1.742,0.346h3.362v3.513H1319.598z"/>
</g>
</svg>
